<?xml version="1.0" standalone="no"?>
<!DOCTYPE svg PUBLIC "-//W3C//DTD SVG 1.1//EN" "http://www.w3.org/Graphics/SVG/1.1/DTD/svg11.dtd" >
<svg xmlns="http://www.w3.org/2000/svg" xmlns:xlink="http://www.w3.org/1999/xlink" version="1.1">
<metadata></metadata>
<defs>
<font id="galahadregular" horiz-adv-x="868" >
<font-face units-per-em="2048" ascent="1638" descent="-410" />
<missing-glyph horiz-adv-x="378" />
<glyph horiz-adv-x="0" />
<glyph horiz-adv-x="682" />
<glyph horiz-adv-x="512" d="M254 1053q-41 0 -56.5 8t-41.5 24q-6 6 -18.5 8.5t-26.5 26.5q-6 12 -9.5 15.5t-6.5 5.5t-5 6t-4 18q-4 16 -8 23.5t-6 19.5q-2 4 -6.5 3t-12.5 1q-12 0 -16 -8q-8 -6 -5 -14t3 -14q4 -29 10 -43q4 -16 4 -21q0 -2 8 -12q4 -6 8.5 -17.5t10.5 -23.5q8 -27 30 -45 q4 -8 12.5 -14.5t16.5 -14.5q37 -29 71 -34t56 -3q18 2 51 6t70 33q8 8 18.5 14.5t14.5 14.5q18 14 30 43q10 12 12.5 22.5t6.5 18.5q2 4 4 10t6 23q4 10 6 19t4 24q0 6 2 14t-2 14q-12 8 -24 8l-6 -2q0 2 -2 -2q0 -16 -6.5 -24t-10.5 -25q-4 -12 -7 -17t-7 -8.5t-9 -8.5 t-12 -15q-12 -23 -27.5 -24t-21.5 -7q-27 -16 -43 -21t-55 -5z" />
<glyph horiz-adv-x="256" d="M217 934q4 -2 5 13.5t1 23.5q-8 6 -8 14t3 18.5t6 21.5t3 22q0 4 -1 8t-1 8q0 10 -4 10h-12q-14 -2 -29 -2h-18q-10 0 -23 6q-4 4 -11 2t-13 -2q-12 0 -25.5 -1t-13.5 -13q0 -25 4 -31q8 -10 6 -19t-6 -30q8 -8 6 -13t-4 -9q0 -33 12 -33h29q8 0 18 2q12 -2 17.5 1 t15.5 3h43z" />
<glyph horiz-adv-x="409" d="M254 1139q4 -4 5 -11.5t9 -9.5q16 -4 17.5 -27.5t1.5 -41.5q0 -14 -6.5 -45t-24.5 -39q-10 2 -17.5 -8.5t-39.5 -8.5q-20 2 -24.5 7.5t-14.5 9.5q-14 6 -17.5 18t-9.5 24.5t-7 19.5t-1 17q0 14 1 37t9 35q8 10 14.5 13.5t12.5 9.5q12 10 20 12t29 0q6 0 20.5 -3t22.5 -9z M205 907q18 0 36.5 5.5t32.5 5.5q8 0 20.5 6t24 15t21.5 19.5t14 16.5q8 4 8 18t9 15q4 10 6 25.5t2 29.5t-4 30.5t-15 26.5q-10 4 -11 20.5t-9 16.5q-10 0 -25.5 10.5t-38.5 18.5q-14 2 -21 4t-13 3t-15 1h-24q-20 0 -51 -6t-41 -19l-29 -8q-12 -8 -15.5 -21.5t-19.5 -29.5 q-4 -4 -11 -18.5t-5 -42.5q2 -37 9 -51.5t17 -26.5q10 -10 25.5 -21.5t23.5 -15.5q6 -6 31 -15.5t68 -11.5z" />
<glyph unicode="&#xa;" horiz-adv-x="614" d="M178 883q4 8 11.5 15t11.5 17q2 4 10 15.5t15 23t14.5 21.5t9.5 14q12 16 26.5 30.5t14.5 20.5q0 4 11 14.5t17 22.5q10 18 17.5 25.5t23.5 27.5q10 10 18.5 24.5t12.5 19.5q6 6 17.5 19t11.5 19q0 10 -7 12.5t-18 12.5q-4 4 -7 6t-13 6q-4 2 -4 4q0 4 -13 11q-8 4 -18 7 t-16 1q-8 -2 -14.5 -18.5t-10.5 -20.5q-6 -10 -11 -24.5t-9 -18.5q-6 -8 -7 -23q0 -12 -10 -12q-2 -12 -12 -25.5t-14 -29.5q-2 -4 -6.5 -11.5t-8.5 -15.5q-4 -6 -4 -10t-6 -10q0 -4 -6 -18.5t-8 -20.5q-6 -16 -15.5 -28.5t-19.5 -29.5q-2 -16 -10.5 -26t-12.5 -18.5 t4.5 -14.5t12.5 -10t13 -5t9 1zM401 887q2 8 10.5 15t14.5 16q2 2 12.5 14t21.5 25.5t21.5 24.5t12.5 15q12 16 21 26.5t11 14.5q4 2 12.5 9.5t12.5 17.5q14 23 22.5 29t24.5 26q10 10 21.5 25.5t15.5 19.5q6 4 15 19.5t12 21.5q2 10 -5.5 15.5t-17.5 15.5q-4 4 -7 1t-22 11 q-6 4 -2 5t-10 8q-18 12 -35 8q-8 -2 -15 -17.5t-11 -19.5q-4 -10 -8.5 -23.5t-8.5 -17.5q-6 -8 -12 -19.5t-10 -21.5q-6 -16 -14.5 -26.5t-14.5 -28.5q-2 -4 -7 -15.5t-9 -17.5q-4 -4 -4 -8q0 -2 -9 -8q0 -4 -9 -18.5t-11 -20.5q-8 -20 -15.5 -29.5t-17.5 -26.5 q-8 -16 -15 -25t-12 -20q-4 -8 3.5 -13t15.5 -7q10 -4 16 -3t6 3z" />
<glyph horiz-adv-x="409" d="M322 4q-4 8 -13.5 6t-15.5 0q-2 2 -11.5 4t-21.5 -2q-8 -4 -13 -9t-14 -11q-16 -10 -21 -11t-22 -12q-12 -8 -30.5 -31.5t-30.5 -27.5q4 -10 -8 -13t-21 -20q-6 -12 -6 -24t-10 -19q-4 -12 -4 -22q-2 -10 -3 -18.5t-1 -14.5q0 -10 4 -16.5t6 -16.5t5 -12l6 -4t5 -3t0 -8 q0 -8 14.5 -17t18.5 -15q14 -16 19.5 -14.5t15.5 -2.5q8 -4 25.5 -8t27.5 -4q18 0 28.5 5t22.5 5q10 0 14.5 2t8.5 6q23 16 30 14.5t11 8.5q4 8 11 10t11 8q6 6 2 15l-8 6q-4 2 -10 16q-8 4 -11 -3t-9 -11q-12 -12 -21 -8q-10 -10 -20 -11q-10 0 -20.5 -6t-13.5 -3t-11 5 q-16 4 -19.5 12.5t-15.5 8.5q-16 0 -12 6t-5 16q-12 18 -7 31.5t3 30.5q-4 16 0 28.5t19 36.5q-8 4 -4 10.5t10 6.5q10 6 21.5 21.5t17.5 21.5q18 18 26.5 22t14.5 10.5t22.5 10.5t12.5 14z" />
<glyph horiz-adv-x="509" d="M266 1034q-4 0 -5 6.5t-7 10.5q-10 10 -17.5 16t-11.5 16q-4 6 -16 17.5t-16 21.5q-6 12 -11.5 19.5t-21.5 27.5q-2 4 -14.5 16.5t-18.5 23t-7 14.5t-5 8q-10 6 -12.5 11t-10.5 15q-10 12 -16 18.5t-21 4.5q-10 0 -15 -7t-1 -11q2 -12 4 -17.5t8 -13.5q4 -4 3 -7t7 -14 q10 -10 19.5 -24.5t11.5 -22.5q14 -27 18.5 -38t8.5 -15q6 -6 8 -10t4 -7t4 -8.5t8 -15.5q2 -4 15.5 -32.5t25.5 -47.5q8 -12 9 -20q0 -6 4 -11q12 -6 11 -16t3 -10q10 0 11 -3t3 -7q2 -6 4 -10.5t6.5 -8.5t6.5 -7t12 -3q23 0 29 8q6 10 16 20.5t20 30.5q6 12 8.5 14.5 t6.5 16.5q2 6 7 12t9 13q8 16 12.5 27.5t14.5 27.5q14 20 13 24.5t13 18.5q10 10 14.5 23.5t10.5 29.5q2 6 6 12.5t8 14.5q10 18 17.5 29.5t13.5 19.5q4 8 10 17.5t6 13.5q0 8 -6 10l-12 4q-2 4 -12 4q-8 0 -12.5 -4t-6.5 -9t-10 -18q-8 -14 -11 -18t-13.5 -14.5 t-16.5 -20.5t-10 -16t-8 -11.5t-13 -15.5q-8 -12 -18 -29q-4 -10 -12.5 -17t-12.5 -15q-4 -4 -16 -21.5t-23 -25.5q-4 -4 -5 -9.5t-5 -5.5z" />
<glyph unicode="&#xd;" horiz-adv-x="397" d="M129 127q4 -43 -4 -54.5t-4 -23.5t-2 -23.5t-8 -21.5q4 -8 8 -5t12 -1q12 -4 19 -4h22t30.5 4t33.5 4q12 -6 17 -3t15 1q8 0 16.5 1t6.5 11q0 10 -6 19.5t-6 25.5l-4.5 22.5t-6.5 39.5q-4 18 2 25.5t6 37.5q0 8 -2 11.5t-4 7.5t-4 12t0 27q-4 12 -7 18t3 23q8 14 3 15 t-3 19v11q0 4 -1 9t-2 16t-1 34q0 29 2 47.5t2 38.5q0 10 3 16.5t1 16.5q-4 20 -3 29.5t4 15.5t5 12t2 17q0 10 3.5 12t1.5 22q0 6 -2.5 7.5t-3.5 2.5t-1 7t2 24q0 6 4.5 13.5t4.5 17.5q0 12 2 16.5t2 24.5v18t-4 11q-10 4 -18.5 5t-39.5 -5q-16 -4 -28 -4h-27q-10 0 -15 4 t-16 4q-6 0 -12 3t-16 -3q-6 -4 -3 -12.5t5 -28.5q0 -14 3 -19.5t5 -9.5t3 -13t-1 -32q-4 -23 4 -37t6 -22q-4 -18 4 -38t6 -34q-2 -10 0 -27.5t-2 -23.5q-10 -23 -3 -30t9 -17q4 -23 -1 -34t-5 -28q0 -23 2 -44t2 -32q2 -23 -4 -42t-2 -50q2 -16 0 -24t-4 -13.5t-4 -9.5 t-2 -10z" />
<glyph horiz-adv-x="804" d="M473 645q2 4 11.5 17.5t19.5 28t18 26.5t8 16q10 4 16.5 14.5t11.5 19.5t11 16.5t19 4.5q4 29 25.5 50.5t25.5 46.5q10 18 18.5 19t14.5 11q4 16 10 20.5t8 20.5q16 12 25.5 21.5t17.5 19.5q8 6 28.5 28t33.5 40q10 16 16 17t12 11.5t5 15.5t14 5q8 14 11 15t7 6 q12 16 12 24q0 10 -12 18.5t-20 12.5q-4 4 -14.5 13t-20.5 14q-4 4 -13.5 5t-15.5 -3.5t-8 -12.5t-10 -12q-10 -10 -4 -12t-6 -15q-4 0 -10.5 -11t-13.5 -25.5t-15.5 -29t-16.5 -20.5q-10 -6 -7 -15t-7 -13q-16 -8 -36.5 -51.5t-53.5 -81.5q-8 -8 -18.5 -25.5t-22.5 -37 t-27.5 -39t-30.5 -32.5q-12 -12 -13 -18t1 -11t2 -9t-14 -11q-29 -14 -32 -30.5t-17 -36.5q-18 -23 -42 -55.5t-34 -49t-20.5 -33t-28.5 -26.5q-12 -10 -28.5 -43t-51.5 -68q-10 -14 -20.5 -30.5t-32.5 -42.5q-14 -10 -16.5 -17.5t-2.5 -13.5q0 -4 -4 -10.5t-18 -16.5 q-8 -6 -22.5 -21.5t-32 -34t-35 -38.5t-33.5 -35q-23 -20 -29 -30.5t-6 -16.5q0 -10 15.5 -17.5t31.5 -21.5q6 -12 27.5 -18t32.5 -4q8 4 10 10t16 35q14 27 21.5 39t11.5 18t7 10t9 17q16 37 36 63.5t36 40.5q8 16 8 23q0 8 19 22q4 20 22.5 36.5t28.5 39.5q4 20 19.5 37.5 t29.5 36.5q16 23 34.5 56.5t47.5 51.5q16 37 30.5 52.5t20.5 29.5z" />
<glyph horiz-adv-x="1028" d="M776 240q0 -55 -12 -117q-4 -23 -1 -38t-1 -36q-4 -12 -4 -22q0 -8 -2 -19q4 -8 10 -6t14 -2q16 -4 18.5 -5t18.5 -1q6 0 18.5 4t30.5 4q12 -6 17.5 -3t15.5 1q8 0 16.5 1t6.5 11q0 10 -6.5 19.5t-6.5 25.5q-2 14 -5 31.5t1 46.5q2 18 0 24.5t-5 10.5t-4 14.5t3 36.5 q4 16 -2 29.5t2 30.5q2 6 0 15l-5 22.5t-5 33t0 47.5q0 14 6 34t4 44q-2 18 0 27.5t4 16.5t3 13.5t-1 16.5q-4 12 0 18t7 12.5t4.5 16.5t-7.5 29q-4 12 1 32.5t5 40.5q0 10 2.5 35t-2 27t-6.5 3t-6 1q-2 0 -10 -2t-23 -4q-4 0 -18 3t-41 -1t-52.5 -8t-47.5 2q-10 2 -32 1 t-43.5 -3t-37.5 -4t-18 -2q-12 8 -21 8q-6 0 -14 -3t-19.5 -6.5t-33.5 -3.5q-16 0 -23.5 1t-11.5 2.5t-11.5 2.5t-23.5 1q-16 -2 -22.5 -3.5t-18.5 -1.5q-10 0 -19.5 2.5t-13.5 12.5q-10 35 -2 72.5t4 78.5q-10 2 -10 4q0 4 2 9.5t4 13.5t-2 20.5t5 31t5 32.5q-6 25 -5 53.5 t7 59.5q4 16 10.5 19t6.5 32q8 8 8 16v19q0 10 4 18t18 16q6 4 13.5 18.5t17.5 26.5q10 14 25.5 23.5t38.5 22.5q14 8 35.5 16t48.5 8q37 0 59.5 -6t38.5 -23q6 -6 13 -9t13.5 -8t12.5 -13t12 -24.5t10 -21.5t9.5 -8.5t9.5 -10.5t8 -25q6 -27 6 -41q0 -12 -2 -19.5t-2 -13.5 t6 -19q6 -10 3 -28.5t-3 -22.5q0 -20 8 -26q4 -4 23 -4h33q10 0 16 2t16 2t28 -2t24 2q8 6 8 16v31v26q0 23 -10 62q-4 20 -18.5 45.5t-22.5 52.5q-4 10 -7.5 13t-7.5 3t-8 3.5t-6 13.5q-4 16 -6 22.5t-43 22.5q-14 4 -37 16.5t-45.5 20.5t-35.5 7t-23 3q-16 4 -39 3t-45 -1 q-27 0 -44.5 -4t-34 -8t-33.5 -11.5t-42 -17.5q-18 0 -26.5 -4t-10.5 -9t-2 -11q0 -4 -4 -7q-10 -6 -17.5 -7t-19.5 -13t-26.5 -19.5t-34.5 -39.5q-16 -27 -37 -59t-29 -81q-2 -10 0 -12t2 -6q0 -2 -2 -10.5t-10 -28.5q12 -6 13 -11t-2 -10.5t-8 -11.5t-5 -16q0 -8 3 -15.5 t6 -16.5t5 -22.5t0 -31.5q-4 -37 0 -63.5t6 -49.5q2 -25 6.5 -40t-10.5 -25q-4 -4 -28 4q-14 -2 -24.5 1t-14.5 -1q-8 -6 -12.5 2t-16.5 4t-16 -4h-15q-10 0 -16 5t-21 3q-10 -2 -12 3t-25 3q-16 0 -12 -22q2 -10 0 -15.5t-2 -17.5q0 -8 4 -9t0 -9.5t-3 -16.5t3 -14 q2 -8 11.5 -5t15.5 3q23 0 31 6q10 6 20 3t18.5 5t14.5 2t16 -4q14 2 31.5 7t28.5 5q27 0 30 -8q2 -2 3 -16.5t1 -30.5t-1 -30.5t-1 -18.5q-4 -20 6.5 -32.5t-4.5 -29.5v-104q0 -16 -1 -30.5t-5 -22.5q-6 -14 -5 -21.5t5 -11.5t7.5 -7t0.5 -8q-10 -25 -11 -38t2 -22 t7.5 -19.5t1.5 -28.5q-2 -14 -2 -29q0 -12 -4 -28q-6 -18 -7 -28.5t-1 -21.5v-20q0 -10 -4 -29q-4 -23 -7 -36t5 -17q12 -6 14 -5t17 1q8 0 16 1t29 -3h14q10 0 20.5 2t17.5 3t9 1q6 0 21.5 -3t19.5 3q10 10 2 18.5t-8 18.5q0 6 3 11t-1 32q-4 25 -11 37t-3 35q4 18 3 25 t-3 12.5t-5 14.5t-3 34q0 20 -3.5 42.5t-3.5 51.5q-2 12 -3 27.5t5 37.5q4 14 1 23.5t-7 17.5t-5 15.5t7 17.5q0 27 -1 39t-1 47q0 14 -2 20.5t-3 11.5t-2 12t3 24q-10 23 -7 36t9 19t33 6q31 0 45 -1t20.5 -2t10.5 -1t18.5 6t20.5 7t11 -1t9 -4t15 -2q20 -2 21 4t15 2 q41 -12 69 -10t62 -6q23 -4 39.5 -5t24.5 -14q10 -16 10 -51t-4 -67q-4 -37 4 -60.5t4 -27.5q-12 -12 -7 -19.5t7 -17.5q2 -12 2 -15q0 -2 -4 -18q-6 -20 -2 -42t4 -30q2 -23 -1 -35.5t-3 -35.5z" />
<glyph horiz-adv-x="1058" d="M10 678q0 -10 8.5 -12t14.5 -2q10 0 19 4t20 0q6 -2 7 -1l3 3t7 3t17 1q10 0 7.5 5t17.5 3q12 -2 20.5 2t26.5 4q14 -2 20.5 0t16.5 2q8 0 12 -6t4 -12v-47v-23v-37v-41v-28q-2 -41 1.5 -75t-7.5 -56q-8 -16 2.5 -26.5t5.5 -41.5q-4 -18 -2 -36.5t-2 -33.5q-4 -10 -3 -18 t2 -16.5t1 -18.5t-6 -24q-4 -10 -3 -16.5t4 -11.5t5 -10.5t0 -13.5q-4 -14 -6 -22t-2 -21q14 -12 6 -15t-8 -9q0 -10 -3 -19.5t1 -11.5q8 -4 23.5 -2t23.5 0q10 -2 24.5 2t30.5 -4q14 -2 24.5 1t21.5 3q6 0 15 -1t13 5t2 11t-5 11.5t-5 15.5t2 26q2 8 -5 16t-3 41 q-2 25 -4 43t-6 53q-2 20 -7.5 61.5t3.5 86.5q2 10 -2.5 15t-8.5 10t-5 12.5t9 21.5q0 14 -2 23.5t-3 21.5t-2 30.5t3 49.5q2 14 0 22.5t-4 15.5t-4 16t2 28q0 16 1 29.5t7 19.5t35 6h19q10 0 20 -4q12 -4 20.5 -1t18.5 -1q14 -6 27 -6h36q33 0 70 -12q10 -4 19.5 2 t15.5 -11q25 -8 51 -8q6 0 11.5 10.5t2.5 20.5q-4 16 0.5 29.5t4.5 31.5q6 29 -7 33q-6 4 -12 0t-18 -2q-14 2 -24.5 -2t-33.5 -6q-8 0 -20 -1t-23 3q-8 2 -14 -4t-18 0q-12 -6 -25.5 -10t-28.5 0q-12 4 -14 -2.5t-20 -1.5q-12 2 -25.5 -0.5t-24.5 -2.5q-16 0 -30.5 1.5 t-16.5 21.5q-4 31 1 45t1 33q-8 10 -9 19t2 19.5t6 23t5 28.5q0 10 -1 17.5t-3 19.5t-2 33q0 23 4 61q4 47 10.5 68.5t8.5 44.5q2 39 14 61.5t39 56.5q8 10 22.5 25.5t53.5 19.5q8 2 30.5 16.5t63.5 10.5q16 -2 37.5 -4t32.5 -4q16 -2 22 -6t9 -8.5t4.5 -9.5t9.5 -7 q31 -12 31.5 -20t5 -20.5t17.5 -30t9 -37.5q-2 -10 2 -26.5t8.5 -21t18.5 -4.5t24.5 4.5t19.5 2.5t17 -2q23 0 37.5 -1t28.5 5q4 2 5 10t1 20t-2 24.5t-4 20.5q-6 23 -14.5 38.5t-22.5 37.5q-4 6 -6 5t-6 -1q-2 0 -8.5 4t-16.5 21q-6 8 -16.5 13t-21.5 8t-21.5 6.5 t-14.5 7.5q-14 14 -49 13t-57 3q-12 4 -44 5t-52 1q-51 0 -73 -11t-52 -20q-14 -4 -24.5 -11t-16.5 -7q-12 0 -18.5 -4t-22.5 -12q-10 -4 -17.5 -11.5t-9.5 -11.5q-6 -12 -29.5 -29.5t-40 -40t-31 -51t-22.5 -55.5q-2 -6 -4 -20.5t-2 -24.5q6 -14 5 -20.5t-5 -9.5t-9 -8 t-7 -17q-6 -27 4 -44.5t10 -52.5q0 -4 1 -15t2 -23.5t0 -23.5t-3 -13q-4 -29 -1 -45.5t7 -34.5q6 -45 0 -51q-4 -4 -9 -2t-15 2q-12 0 -13.5 2t-13.5 0q-20 -4 -26.5 1t-16.5 1q-23 -6 -24 -2t-9 4h-16q-4 0 -19 4q-16 4 -22 4t-16 -2q-16 -2 -13.5 -7t-3.5 -28q-2 -4 0 -8 t4 -14v-27zM813 311q-4 -23 -1 -40t-1 -70q-2 -23 -4 -38.5t0 -19.5q6 -10 2 -14t-4 -8q4 -23 0 -34t-4 -32q0 -6 -5 -28.5t1 -26.5q8 -6 20 -5t31 1q8 0 19.5 2t27.5 2q12 0 16 -1t7 -1h10t20 2q12 0 13.5 9t-2 21.5t-7.5 27t-2 26.5q4 16 1 35.5t-7 42.5q-4 35 -7 68.5 t3 74.5q2 12 0 16.5t-4 9.5t-2 13t6 29q-10 23 -10 43t2 51t-3 51.5t-1 56.5q2 20 4 45t0 33q-4 14 -4 33q0 20 6 51q2 12 1 19.5t-2 13.5t0 13.5t5 19.5t3 18t-4 11.5t-5 10.5t-2 13q2 14 9 16t-3 31q-8 20 -1 25.5t7 25.5q0 4 -3 10.5t-3 10.5q0 2 4 5t4 7q-4 23 0 28 t4 25q0 6 6.5 29t-2.5 29q0 4 -24.5 2t-46.5 -4q-18 0 -44 4t-42 0q-20 -4 -11 -37q8 -10 4 -19.5t7 -35.5q6 -18 6 -33v-29q2 -29 5 -43t3 -39q0 -16 4 -27.5t0 -27.5q-4 -14 -3 -29.5t5 -26t5 -21.5t-3 -23q-6 -14 -5 -21.5t3 -13.5t5 -11.5t1 -13.5q-4 -20 -3 -33.5 t2 -22.5t1 -20q0 -8 -4 -18q-6 -16 -6 -29q0 -10 1 -19t3 -21.5t2 -30.5q0 -27 1 -56t-5 -88z" />
<glyph horiz-adv-x="1095" d="M465 -2q18 2 32.5 4t20.5 -2q8 -4 23.5 -3t33.5 3l142 -2q12 0 14 2t10 6q6 -4 12.5 -3t10.5 -5h16h31h29q14 0 18 2q16 6 18.5 2t12.5 -6q14 -2 20 -2h15q6 0 15 1t26 1h30q23 0 33 -2q10 0 18.5 -2t22.5 -2q10 4 17.5 2t19.5 2q10 -4 13 6t1 20q-4 18 2 54 q-4 16 -3 30.5t-5 22.5t-7 2t-11 -2q-10 6 -18.5 0t-22.5 -6q-12 0 -16.5 -2t-7.5 -4t-9 -4t-18 -5q-18 6 -33 0t-35 -10q-4 -10 -9 -7t-16 1q-8 -2 -20 -2q-10 0 -17 -6q-18 -6 -28 -6t-18.5 1t-18.5 1t-29 -2q-10 0 -17 -2t-15.5 -5t-20.5 -5.5t-33 -2.5q-14 0 -20 1 t-12 1q-4 0 -14.5 -1t-35.5 -3q-35 -4 -46 2.5t-27 1.5l-27 15q-10 6 -18.5 4t-22.5 -6q-12 0 -22.5 3t-16.5 17q-4 8 -5 24.5t-5 45.5q-6 35 -5 55.5t3 34.5t2 27q0 12 -8 30.5t-6 31.5t5 23.5t4 24t-9 31.5q-6 10 1 17.5t3 35.5q-4 16 -3 44t-1 61q8 10 13 16t19 16 q4 4 6 4h7q4 0 7 3.5t7 13.5q20 18 37.5 30.5t28 22.5t17.5 8t17 4q4 2 15.5 18.5t21.5 20.5q14 10 23.5 13.5t17.5 11.5q10 10 25.5 19.5t29.5 15.5q6 2 7.5 6t3.5 7t7 7t19 8q16 4 22.5 11.5t18.5 17.5q10 6 20.5 14.5t14.5 14.5q0 2 -3 14t-15 23q-8 6 -6 13t-9 13 q-6 4 -9 2t-7 6q-6 6 -6 9q0 4 -10 8q-4 2 -10.5 -9.5t-16.5 -15.5q-27 -8 -26 -19t-5 -16q-8 -6 -13 -7t-11.5 -3t-11.5 -7t-13 -19q-8 -8 -16.5 -17.5t-20.5 -19.5q-10 -10 -20.5 -17.5t-22.5 -13.5q-10 -4 -17 -21.5t-48 -37.5q-10 -4 -11.5 -13.5t-9.5 -13.5 q-16 -6 -19 -14.5t-14 -18.5l-36 -26q2 6 4 27.5t3 46t1 46.5v35q0 29 1 56.5t5 39.5q4 23 -1 34.5t-1 33.5q4 31 8 48.5t4 29.5q0 10 -2 16t0 23q2 12 10 16t4 17q-10 27 -8 36t2 35q0 25 5 38t-1 18q-4 2 -18 5t-35 -1q-16 -4 -32.5 0t-31 -4.5t-37 -3t-32.5 -1.5 q-6 -4 -5 -11t4 -16t5 -18.5t-4 -17.5q0 -8 3 -23.5l6 -31t5 -29.5t2 -21q-2 -14 2 -15t4 -11q0 -6 3.5 -11.5t-7.5 -11.5q-6 -4 -4 -29.5t5 -58t7.5 -62.5t2.5 -40q-4 -23 3 -55.5t1 -63.5t3 -51.5t9 -26.5v-20q0 -6 -12 -17l4 -41l-21 -14q-16 -10 -28.5 -19.5 t-36.5 -25.5q-8 -4 -16.5 -9t-16.5 -11q-4 -4 -5 -7.5t-1 -5.5t-4 -4t-15 -4q-10 -4 -21 -17.5t-28 -17.5q-23 -6 -30 -10t-9 -6t-2 -6q0 -2 -4 -4q-10 -6 -21.5 -13.5t-9 -13.5t9.5 -10t3 -17q-2 -8 6 -8t18 -12q12 -12 15.5 -20.5t13.5 -12.5q12 -4 16.5 3t20.5 18 q4 4 3 10t9 16q4 2 10 2t15 17q10 16 26.5 34.5t26.5 22.5q23 10 27 20.5t16 22.5l39 41q0 -35 -1 -61.5t-7 -44.5q-4 -10 -2 -41t6 -52q-4 -12 -6 -34.5t-5 -46t-4.5 -41t-1.5 -21.5q2 -16 -7 -42t-3 -54q4 -23 -4 -29t-8 -20q0 -20 5 -26.5t22 -4.5q29 4 41 4h28h115z" />
<glyph horiz-adv-x="583" d="M360 0h17q6 0 6 14q0 16 -6 52q-2 10 0 28.5t0 28.5q-4 23 -6 31t8 18q-10 14 -11 20.5t1 12.5l4 12t-2 21q-4 10 -5 33.5t-1 33.5q0 18 -2.5 29.5t-2.5 21.5t2.5 13.5t4.5 6.5t1 11t-7.5 28.5t3 40t1.5 29.5q-10 12 -9.5 37t-1.5 56q0 12 2 56t-2 79q2 16 5 27.5 t20 15.5q8 8 14 16t18.5 12t22.5 19q8 10 20.5 15t41.5 22q4 16 14 15t16 5t8.5 11.5t14.5 5.5q6 4 8 3t12.5 5t19.5 12t7 12q-4 14 -14 31q-4 6 -9.5 17.5t-13.5 15.5q-10 4 -11 9t-9 5q-10 0 -11 -8q0 -6 -10 -6q-4 0 -9 -11.5t-11 -17.5q-16 -12 -24.5 -23.5t-29.5 -23.5 q-10 -4 -11 -16.5t-21 -18.5q-6 -2 -6 -12q0 -8 -11 -12q-12 -12 -19 -20.5t-16 -6.5l-2 35q0 14 1 48t1 56v31q0 12 5 18q2 14 2 19q0 6 -2.5 8t-4.5 3t-2 7q2 25 8.5 44.5t2.5 41.5q-4 25 0 48.5t8 33.5q2 8 1 12.5t-3 7.5t-2 7t8 10q-6 8 -8 17.5t-2 15.5q4 16 9 22.5 t1 24.5q-4 23 2 31t0 20q-8 12 -27 12q-10 2 -21 0t-24 -4q-18 0 -45.5 6.5t-36.5 -6.5q-6 -10 -8 -8t-8 -8q-6 -12 -2 -19.5t4 -15.5q0 -27 8 -47t4 -34.5t4.5 -38t1.5 -64.5q-4 -23 5.5 -37t3.5 -27q-10 -23 -4 -41t8 -47q2 -10 0 -28.5t-6 -28.5q-6 -12 -5 -18.5t3 -9.5 t5 -6t3 -9q0 -27 2 -62.5t-2 -64.5l2 -27q-16 -10 -32.5 -21t-27.5 -16q-6 -2 -11 -10t-21 -16q-12 -6 -15.5 -11.5t-17.5 -2.5q-4 -16 -11.5 -11.5t-13.5 -1.5q-6 -4 -16 -15t-19 -11q-14 -10 -24 -14.5t-6 -12.5q4 -14 5 -16t3 -5q10 -10 17.5 -19t11.5 -13q12 -16 18 -19 q12 -4 14 4q2 4 6.5 5.5t8.5 11.5q0 2 12 12q8 6 7 9t3 5q10 4 14.5 18.5t20.5 22.5q10 4 18.5 17.5t26.5 19.5q10 14 19.5 22.5t9.5 2.5v-99v-47q0 -23 -10 -49q8 -12 9 -18t-2 -12.5t-6 -12.5t1 -18q6 -16 2 -36t2 -38q4 -10 -4.5 -14t-8.5 -21q0 -8 2.5 -12t4.5 -10 t2 -17q0 -10 -2 -28q-4 -18 -7.5 -36t0.5 -28q10 -31 4 -38t-8 -15q-2 -33 -9 -69t-7 -48q0 -10 25.5 -11t44.5 -1q8 0 10 2t18 2h51z" />
<glyph horiz-adv-x="1173" d="M45 68q-16 -18 -18 -27.5t-2 -24.5q0 -16 15 -19t21 -3q8 0 10.5 3t26.5 1q23 -2 47.5 -4t47.5 -2q12 4 29.5 10t45.5 -4q4 2 23.5 3t46.5 1q29 0 59.5 -1t57.5 -1q41 12 55 5t20 -7q16 0 74 1t123 1q68 0 129.5 -2t85.5 -4q31 -4 52.5 -3t39.5 -3q23 -4 39.5 -5t26.5 5 q8 4 16 -3.5t12 1.5q10 23 6 41t-4 24q2 23 6.5 51.5t0.5 32.5q-10 10 -20.5 6t-43.5 -6q-10 0 -25.5 -5t-32 -11t-31.5 -9.5t-28 -0.5q-23 4 -37 0.5t-26 -8.5t-26.5 -8t-39.5 1q-10 2 -25.5 -3t-33.5 -10t-39.5 -9t-40.5 0q-12 2 -16 1t-7 -2t-10 -1q-4 0 -16 4 q-14 4 -34.5 -4.5t-53.5 -3.5q-25 4 -41 -0.5t-39 -2.5q-27 2 -48.5 5.5t-43.5 7.5q-6 0 -23.5 1t-36 2t-34 4t-15.5 9q-6 16 13 47q16 27 25 42.5t32 39.5q10 12 15 15.5t9.5 6.5t7.5 9t9 24q4 12 9 14.5t16 18.5q12 20 31.5 33.5t21.5 50.5q8 12 24.5 31.5t34 41t34.5 44 t32 41.5q25 33 63.5 73t57.5 68q20 33 45.5 58.5t37.5 44.5q6 16 11.5 21t9.5 5t7 -1t7 3q12 16 14.5 28.5t14.5 29.5q10 12 22.5 18t32.5 31q4 6 4 10t2 9t6.5 11.5t18.5 18.5q23 41 41 58.5t31 45.5q6 16 12 24.5t11 13.5l10.5 10.5t11.5 15.5t19 25.5t18 19.5 q4 16 11 23.5t3 23.5q-2 8 -9 12t-26 4q-16 -4 -29 -4h-24t-27.5 1t-42.5 1q-10 0 -18 -2t-43 -2q-4 0 -23.5 -1t-45 -3t-56.5 -2q-29 0 -53 2q-16 2 -21.5 1t-8.5 -3t-8 -3t-20 -1q-8 0 -20.5 2t-20.5 4q-14 2 -23 -3t-36 -5q-23 0 -41 3t-36.5 6t-38 4t-44.5 -1 q-20 -2 -54 2t-56 4q-16 0 -23.5 2.5t-12.5 3.5t-12.5 3t-23.5 2q-12 0 -27.5 -4.5t-44.5 6.5q-18 6 -20 -5.5t-8.5 -27.5t-3 -24.5t-1.5 -36.5q-6 -6 -3 -21.5t3 -28.5q0 -12 13.5 -10t17.5 2q10 0 30.5 10.5t53.5 6.5q23 -4 36 4t36 12q35 4 53 6t37 6q10 2 39 3t33 3 q35 8 67 9h68q16 0 32.5 4t41.5 -6q20 -10 35.5 -4t29.5 8q23 -4 39 -6.5t45 -2.5q18 0 34.5 -2t22.5 -10q4 -4 4 -10q0 -4 -6 -19q-10 -23 -29.5 -46t-41.5 -50q-16 -20 -25.5 -35.5t-14.5 -28t-9.5 -22.5t-12.5 -22.5t-27.5 -39t-41 -57t-41 -58.5t-27.5 -38 q-16 -20 -30.5 -27.5t-28.5 -23.5q-16 -18 -22.5 -33.5t-16.5 -28.5q-16 -25 -41 -57.5t-58 -73.5q-16 -23 -54 -67.5t-73 -81.5q-20 -23 -39.5 -48.5t-37.5 -41.5q-12 -10 -20.5 -15.5t-12.5 -9.5q-10 -10 -18.5 -29.5t-27 -40t-38 -45t-33.5 -40.5zM633 1354q14 0 26.5 12 t16.5 16q10 6 11 9.5t13 13.5q14 12 15 18q0 6 16 13q10 4 15.5 18t15.5 18.5t12 8.5t14.5 14t17.5 19.5t15 13.5q16 12 31 26q10 10 17.5 16.5t15.5 12.5q10 10 4 29q-6 16 -23 16q-8 0 -30 -16q-8 -4 -18.5 -17.5t-26.5 -21.5q-10 -4 -12.5 -7t-14.5 -1 q-16 -16 -26.5 -20.5t-20.5 -10.5q-16 -10 -22.5 -16.5t-22.5 -14.5q-12 -6 -21.5 -15t-17.5 -9q-18 0 -39 24q-10 12 -21.5 16.5t-27.5 14.5q-10 6 -19.5 11t-25.5 22q-14 -2 -16.5 1t-12.5 7q-16 8 -27.5 20.5t-19.5 16.5q-23 16 -31 16q-20 0 -26 -16q-4 -8 0 -15.5 t8 -11.5l10 -10q2 0 14 -10q16 -16 30.5 -29.5t25.5 -24.5q14 -16 20 -20t17 -14q4 -4 8 -4t6 -15q10 -10 15 -13t24 -20q6 -8 8 -10t4 -3t5 -3t11 -10q10 -8 11 -15q0 -4 10 -8q4 -4 13.5 -13t25.5 -9z" />
<glyph horiz-adv-x="917" d="M236 666q16 4 27 11t28 -1q6 -4 13 0t36 6q14 2 30.5 6t35.5 0q10 -4 17 0t23 6q35 4 50 4q14 0 30.5 -4t23.5 -2t23 2t36 -2t20 -12q0 -14 -11.5 -28.5t-23.5 -24.5q-23 -20 -33 -33.5t-33 -30.5q4 -20 -1 -22t-19 -9q-10 -4 -14.5 -8t-14.5 -26q-4 -8 -24.5 -30 t-42.5 -50q-29 -31 -61 -62.5t-38 -48.5q-29 -8 -41 -18t-17 -19.5t-7 -17.5t-10 -12q-16 -6 -21.5 -10.5t-6.5 -7.5t-3 -6t-10 -11q-27 -23 -40.5 -44.5t-47.5 -49.5q-10 -8 -23.5 -22.5t-24 -29t-18.5 -27t-8 -18.5q-2 -12 12 -19t33 -3q20 4 34.5 2t30.5 -6q14 10 27.5 9 t32.5 -1q12 0 24.5 1t22.5 1q12 0 35.5 1t62.5 1q39 2 62.5 -4t33.5 4q10 4 20.5 -1t20.5 -3q18 2 42 3t44 1h39h23q23 -4 35 -3t19 2t12.5 0t11.5 -7q23 -4 37 -3t30 1q41 0 62.5 -2t29.5 -2q10 6 5 19t0 24q4 16 4 20v21q0 16 4 24t-4 19q-6 8 -14.5 2t-20.5 -6 q-10 2 -13.5 1t-7.5 -4.5t-10 -6.5t-18 -3q-10 0 -18.5 -3t-30.5 -1q-16 0 -20.5 -8t-14.5 -6q-14 2 -21 2q-6 0 -10 -1t-8 -1h-12q-4 0 -20.5 -7.5t-31.5 -2.5q-20 4 -40.5 -3.5t-47.5 -5.5q-41 4 -55 -2t-29 -4q-10 2 -26 2h-33q-18 0 -35.5 1t-30.5 5q-29 8 -48 9.5 t-19 11.5t8 20.5t22 26.5q18 20 23.5 24.5t22.5 20.5q12 14 32.5 38t30.5 34q14 14 25.5 23.5t18.5 15.5t12 13t10 19q-2 6 17 28t45 45.5t48.5 44t28.5 26.5q23 25 41 43t32.5 22t31 26.5t26.5 39.5q16 23 35.5 36t42.5 44q14 20 32.5 41.5t10.5 36.5q-4 8 -14.5 9t-24.5 1 t-21.5 -1t-12.5 -2t-13 -1t-23 4q-4 -10 -15 -5t-28 5q-12 0 -45 -5t-55 1q-16 4 -24.5 -1t-30.5 -3q-8 -6 -18.5 -4t-27.5 2q-8 0 -22 1t-33 1h-22q-4 0 -15 4q-25 2 -28.5 -2t-20.5 4q-4 2 -6 2t-4 -2t-6 -3t-17 -1q-27 0 -55.5 6t-38.5 6h-10h-4h-4h-13q-14 2 -27 3 t-24 3q-18 2 -20 -1t-4 -5q-6 -6 -4 -15.5t2 -23.5v-16q0 -6 -4 -17q-4 -12 -2 -25.5t2 -17.5q2 -10 10 -8t14 4q10 4 29.5 6t23.5 2t9.5 2t19.5 5h4v2h2q5 0 15 2zM471 1034q-4 0 -5 6.5t-7 10.5q-10 10 -17.5 16t-11.5 16q-4 6 -16.5 17.5t-16.5 21.5q-6 12 -11 19.5 t-21 27.5q-2 4 -14.5 16.5t-18.5 23t-7 14.5t-6 8q-10 6 -12 11t-10 15q-10 12 -16.5 18.5t-20.5 4.5q-10 0 -15 -7t-1 -11q2 -12 4 -17.5t8 -13.5q4 -4 3 -7t7 -14q10 -10 19.5 -24.5t11.5 -22.5q14 -27 18 -38t9 -15q6 -6 8 -10t4 -7t4 -8.5t8 -15.5q2 -4 15.5 -32.5 t25.5 -47.5q8 -12 8 -20q0 -6 4 -11q12 -6 11.5 -16t3.5 -10q10 0 11 -3t3 -7q2 -6 4 -10.5t6 -8.5t6.5 -7t12.5 -3q23 0 28 8q6 10 16.5 20.5t20.5 30.5q6 12 8.5 14.5t6.5 16.5q2 6 7 12t9 13q8 16 12 27.5t15 27.5q14 20 13 24.5t13 18.5q10 10 14.5 23.5t10.5 29.5 q2 6 6 12.5t8 14.5q10 18 17.5 29.5t13.5 19.5q4 8 10 17.5t6 13.5q0 8 -6 10l-12 4q-2 4 -12 4q-8 0 -12.5 -4t-6.5 -9t-10 -18q-8 -14 -11 -18t-13.5 -14.5t-16.5 -20.5t-10 -16t-8.5 -11.5t-12.5 -15.5q-8 -12 -18 -29q-4 -10 -12.5 -17t-12.5 -15q-4 -4 -16 -21.5 t-23 -25.5q-4 -4 -5 -9.5t-5 -5.5z" />
<glyph unicode=" "  horiz-adv-x="378" />
<glyph unicode="&#x09;" horiz-adv-x="378" />
<glyph unicode="&#xa0;" horiz-adv-x="378" />
<glyph unicode="!" horiz-adv-x="430" d="M160 723q-16 -14 -6 -34.5t10 -55.5q4 -61 7 -117.5t1 -69.5q0 -6 -1 -23t-3 -35.5t-3 -36t-1 -23.5q-2 -10 12 -13.5t37 0.5q16 2 30.5 -1t18.5 7.5t3 25.5t-3 26q0 8 1 23.5t2 31.5t1 29q0 14 -2 20q-6 12 -6 21q0 8 3 15t5 16.5t0 25.5q-2 12 -1 47t3 76t5 79t3 56 t3.5 35.5t5.5 37t2 42.5q0 25 -2 57q14 39 14 70t-4 45q-4 12 -2 19t5 14.5t7 15.5t2 20q-4 25 2 44.5t4 33.5q-2 8 -15 4t-24 -2q-16 -2 -18 1t-18 3t-39 1t-31 1q-16 0 -30.5 -2t-12.5 -14q2 -10 8 -30.5t4 -45.5q-4 -41 0 -56t6 -32q2 -10 5.5 -49t-1.5 -76 q-2 -18 -1 -25t2.5 -10.5t3.5 -5.5t2 -10q0 -45 4 -74.5t0 -38.5q-6 -10 -6 -18q0 -6 3 -12t5 -13.5t0 -19.5zM125 137q-8 -8 -4 -16q8 -20 6 -44t-2 -46q-10 -8 -4 -16.5t8 -16.5l57 -6q8 -2 13.5 -3t13.5 3q6 -4 14.5 -2t20.5 0q4 0 7 1t7 1q6 2 14 6q6 2 9 0l8 -4v59 q10 16 8 33.5t-4 36.5q-4 6 -7 13t-14 3q-20 -4 -32.5 -2t-24.5 -2q-10 4 -18 4q-6 0 -15 6q-14 4 -27.5 0t-17.5 2q-6 -2 -7 -7t-9 -3z" />
<glyph unicode="&#x22;" horiz-adv-x="501" d="M369 1386q-18 -4 -23.5 0.5t-21.5 4.5q-8 0 -15.5 -10.5t-9.5 -16.5q-2 -10 7 -14t5 -15q-4 -8 0 -15t8 -20q6 -16 8.5 -30.5t8.5 -26.5q10 -4 9 -7t-1 -9q0 -10 -6 -19.5t-2 -24t10 -29.5t6 -36q0 -12 2 -23.5t6 -17.5q8 -16 -2 -28.5t-8 -28.5q4 -29 2 -48.5t0 -27.5 q4 -4 8.5 -9t14.5 -5q6 0 22.5 1t18.5 15q2 10 2 35v41q0 10 -2 15t2 16q4 4 3 17t1 20q4 33 10 45q0 18 7 40.5t7 26.5q0 12 -6 12q-4 0 0 23q4 10 10.5 21.5t10.5 33.5q2 20 5 31.5t5 19t2 11.5v14q-6 6 -9 12t-20 4q-12 -2 -35.5 2t-39.5 0zM109 1384q-25 0 -25 2 q0 4 -16 5q-6 0 -13.5 -10.5t-9.5 -16.5q-2 -10 7 -14t5 -15q-4 -8 -1 -15t7 -20q6 -16 9.5 -30.5t9.5 -26.5q10 -4 9 -7t-1 -9q0 -10 -6 -19.5t-2 -24t9 -29.5t5 -36q0 -12 2 -23.5t6 -17.5q10 -16 -1 -28.5t-9 -28.5q4 -29 2 -48.5t0 -27.5q10 -4 20.5 -9t20.5 -5 q4 0 12.5 1t10.5 15q2 10 2 35v41q0 10 -2 15t4 14q4 4 3 17t1 19q4 35 10 48q0 18 6 40.5t6 26.5q0 12 -4 12t-2 23q4 10 11.5 21.5t11.5 33.5q2 20 5 31.5t4 18t2 11.5t-1 15q0 14 -35 18q-8 0 -32.5 -1t-40.5 -1z" />
<glyph unicode="#" horiz-adv-x="1200" d="M776 500q-4 4 -3 27.5t1 29.5q0 10 -4 29.5t2 42.5q4 10 -2 17t-4 20q2 6 0 16t0 16q4 10 20 11q6 0 13.5 -1t17.5 -1q8 0 19.5 -1t27.5 -1q8 0 23.5 -5.5t38.5 -7.5q16 -2 20 -5t17 1q10 4 19 -3t17 -7q4 0 9.5 6t3.5 16.5t-1 26.5t1 29q0 10 2 15t-4 11q-4 6 -6.5 5 t-8.5 1q-12 2 -20 0t-24.5 -6t-34 -6t-35.5 -2q-8 0 -10.5 -6t-24.5 -2q-12 2 -18.5 -1t-22.5 -1q-10 2 -14 2h-13q-8 0 -8 18t1 26.5t1 25.5q0 14 9.5 24t-1.5 29q-4 6 -3 15t1 22q0 23 1 45t1 33q0 16 6.5 32.5t1.5 32.5q-4 18 2.5 35.5t6.5 44.5q0 14 1 22.5t-3 14.5 q-4 4 -13 4h-16q-23 0 -22 -3t-9 -1q-4 2 -20 2t-27 2q-16 2 -16 -25q0 -8 6 -20t4 -29q-2 -14 4 -26.5t-2 -16.5q-8 -6 0 -23.5t8 -25.5q0 -16 4 -33.5t4 -36.5q0 -23 -3 -34t-3 -21q0 -16 5.5 -17t-1.5 -14q4 -8 5.5 -25.5t3.5 -33.5q2 -29 -2 -39q-10 -6 -29 -4 q-16 4 -30.5 -1t-39.5 -3q-20 2 -39.5 6t-23.5 0q-6 -6 -8.5 -3t-12.5 3q-29 0 -24 4q-6 18 -2 35.5t4 28.5v45q0 35 6 48t4 25q-2 16 3 18.5t5 18.5q0 4 2 13.5t-2 15.5q-6 10 -13 9t-18 1q-23 2 -32 2h-25q-8 0 -16 -1t-13 -9q-4 -10 3.5 -33.5t3.5 -44.5q-4 -16 5 -31.5 t7 -31.5q-2 -23 2 -31t2 -19q0 -10 5 -32.5t-3 -28.5q-4 -2 -8 -2h-8t-9.5 -2t-11.5 -2q-16 2 -28.5 3t-20.5 3q-16 4 -22.5 6t-10.5 2q-8 0 -20 6q-10 4 -20.5 -1t-24.5 3q-8 4 -15.5 0t-11.5 7q-4 0 -14.5 2t-14.5 -4q-2 -4 -3 -6.5t-3 -8.5q-2 -10 -2 -24t-2 -43 q-8 -27 14 -27q10 0 19.5 5t15.5 1q4 -4 10.5 -1t16.5 5q4 2 10 2q8 0 17 2q10 4 16 4h10q4 8 24.5 3t28.5 -1q10 4 31 5q12 0 15.5 1t7.5 1q12 0 16 -7q4 -8 -1 -17t-1 -19.5t-1 -15.5t-1 -21q4 -18 3 -26.5t-3 -23t2 -15.5t2 -17q-2 -14 -3 -26.5t-5 -14.5q-8 -4 -26.5 1 t-45.5 -5q-6 0 -21.5 1t-25.5 1q-16 0 -17 -1t-23.5 1t-35 4t-19.5 5t-14.5 4t-19.5 1q-6 -6 -15.5 1t-17.5 7q-10 0 -13 1t-4 3t-5 4.5t-17 2.5q-33 0 -32 -13q0 -10 -2.5 -15t-2.5 -17t2.5 -29t0 -31t10 -18t17.5 1t20 3q4 0 16 2t23 8q16 2 17 -1t11 1q14 6 24.5 2 t24.5 -2q-2 4 21.5 7t44.5 1q16 0 20 2t5.5 4t7.5 2t28 -2q27 -4 40.5 4.5t23.5 -2.5q4 -10 -3 -24t7 -25q0 -10 -2 -19t-4 -20v-26q0 -10 -2 -20.5t-2 -20.5q-6 -4 -7 -18.5t5 -24.5q-4 -23 -4 -29t-5 -12q-8 -14 -2 -23q4 -10 0 -13t11 -9q6 -4 10 -2t20 2q31 2 50.5 3 t21.5 9q2 10 2 23q0 12 -4 20q-6 18 -5 29.5t1 21.5q-6 4 -7 22.5t-3 35.5q-2 18 0 30.5t-2 18.5q-4 10 0 13t2 13q-4 16 -4 27q0 14 2 16q4 6 14 7h22t14.5 3t10.5 -1q4 -2 17.5 -1t33.5 1h25h31q16 0 27 -2.5t14 -4.5q2 -4 -0.5 -12t-2.5 -18q0 -18 -3 -39t3 -37 q14 -10 5 -17.5t-5 -23.5q-4 -23 -2 -43.5t-2 -58.5q-4 -20 -7 -55.5t-3 -45.5q0 -8 4 -9t-2 -13q-4 -8 0 -13.5t-6 -13.5q-6 -6 -4 -18.5t0 -18.5q0 -12 22 -12q16 0 42 2t42 -2q14 -2 15 20q0 10 -2 16.5t-3 11.5t-2 12t1 20q2 14 -3.5 32.5t-0.5 41.5q-4 25 -11.5 49 t0.5 51q4 16 -2 34.5t0 51.5q4 25 -2 33q-6 12 -2 27.5t0 27.5q-4 16 -2 18q6 4 13.5 2t30 2.5t33.5 1t21 -3.5q14 0 25.5 2.5t17.5 2.5q12 0 17.5 -5.5t21.5 -3.5q10 2 29.5 -3t24.5 -1q18 6 37.5 -3t27.5 -7q10 2 17.5 -4t15.5 -2q10 4 18 -1t19 1q8 4 8 8v12q0 20 1 26.5 t1 31.5q0 16 1 25t-5 14l-4 2h-15q-16 0 -18 -2t-16 -7q-16 -4 -30.5 -8t-31.5 -2q-4 0 -4 -2t-2 -4t-6 -2t-19 4q-4 2 -15 0t-23.5 -5t-23.5 -5t-17 -2q-16 0 -35 -1t-35 1t-19.5 -2t-11.5 0t-12 1t-14 -3q-4 0 -9.5 -2t-9.5 2zM705 504q-8 -4 -10.5 -3t-26.5 1h-66h-20 q-8 0 -19 4q-8 4 -18 0t-15 -2q-10 4 -20 0t-14 0t0 18.5t-2 20.5q-2 10 -2 16v16v23q-2 29 4 43t0 25q-4 4 -3 19t5 22q4 4 9 2t15 -2q8 0 17.5 1t25.5 1q10 0 22.5 1t20.5 1h31q23 0 33 -2t18 -1t15 -3q6 -6 1.5 -20.5t-4.5 -25.5q2 -25 0 -35t-2 -26q0 -10 3.5 -13 t-1.5 -7q-6 -4 -0.5 -18.5t5.5 -24.5q0 -8 1 -16.5t-3 -14.5z" />
<glyph unicode="$" horiz-adv-x="935" d="M131 446q-8 0 -11 -2t-9 -2q-14 0 -35 4q-14 0 -17 -4q-4 -20 0 -36q4 -25 7.5 -36.5t5.5 -17.5l4 -12t4 -18q2 -14 10 -27.5t19 -30.5q16 -23 31.5 -45t31.5 -26q20 -6 30.5 -21.5t26.5 -26.5q12 -10 31 -23t41 -18q16 -4 22.5 -6t10.5 -4t8 -3t14 -1t34 -4t32 -4 q14 0 20.5 -11.5t6.5 -23.5q0 -10 -7.5 -28.5t-3.5 -30.5q4 -10 -2 -19.5t-4 -17.5q4 -25 -5 -52.5t-9 -37.5q0 -4 1 -5t1 -12q0 -6 10 -3t21 3q14 0 26 -3t19 -3q14 0 30 4q12 4 8 18.5t-4 33.5q0 16 -4 26q-2 4 -7 20.5t-1 32.5q4 12 -2 29.5t-6 38.5v16q0 10 2 15 q4 10 11 7t12 1q14 8 17 6t15 0q10 2 20.5 8t22.5 4q12 4 18.5 7.5t18.5 3.5q12 8 16.5 10t10.5 6q4 0 18.5 11t32.5 22q16 8 31.5 22.5t19.5 18.5q10 16 17.5 23t11.5 10.5t6 6.5t6 11q10 29 21.5 50.5t9.5 37.5q-2 18 1 32.5t3 51.5q0 35 -14.5 51t-10.5 29q4 10 -9 14 t-17 25q-6 25 -24.5 38t-51.5 25q-35 14 -47 22.5t-23 22.5q-16 10 -21 1t-16 1q-16 16 -26 17.5t-23 3.5q-8 2 -30.5 4t-26.5 12q-16 -4 -39.5 3t-42.5 14q-16 -2 -47 10t-45 22q-6 4 -21 4q-12 0 -12 19q-16 6 -21 16t-16 27q-10 23 -10 33t-2 26q-2 18 5 35.5t3 28.5 q-4 20 3 28.5t12 18.5q10 23 15 24.5t13 16.5q6 6 14.5 10t16.5 14.5t11 11.5t11 5q10 4 20.5 8t18.5 4q6 0 21.5 2t35 3t40 0t34.5 -7q8 0 14.5 -2t16.5 -2q23 0 20 -5t3 -7q14 -4 19 -7.5t8 -7.5t5 -9t11 -11q10 -8 14 -16.5t10 -18.5q4 -6 8.5 -21.5t6.5 -27.5 q2 -16 -1 -32.5t1 -27.5q2 -6 29.5 -5t43.5 1q16 2 27.5 0t15.5 -2q23 -2 23 8t-2 25q-2 23 -6 34t-11 30q-8 23 -15 35t-17 22q-12 12 -20.5 14t-18.5 19q-27 4 -37 17t-33 19q-12 4 -39.5 11.5t-44.5 9.5q-8 2 -11 6t-9 4q-10 0 -18.5 -3t-16.5 5q-4 4 1 34t5 46 q0 18 5 34.5t5 27.5q0 14 3 24t3 21q0 16 3.5 19t0.5 11q-6 12 -16 13q-6 0 -10 -2t-21 0q-4 0 -20 -2.5t-31 0.5h-10t-8 -4.5t-1 -10.5t5 -14q2 -10 6 -29.5t0 -25.5q4 -10 6 -15.5t0 -13.5q-4 -10 5 -13t-1 -16q-2 -4 3 -10t3 -23q2 -27 2 -36q0 -8 -4 -15q-8 -2 -15 1 t-17 -1q-8 -2 -22.5 -4t-18.5 -2q-4 -2 -11.5 -5t-29.5 -3q-23 -16 -31 -18.5t-25 -12.5q-6 -10 -11 -13t-12 -6l-17.5 -7.5t-22.5 -14.5q-10 -14 -16.5 -27.5t-18.5 -25.5q-6 -4 -13 -14.5t-12 -20.5q-8 -14 -9 -22.5t-5 -32.5q-4 -18 -4 -29q0 -10 4 -26q4 -25 3 -39.5 t11 -24.5q16 -10 17 -18q0 -8 6 -29q2 -12 14.5 -24.5t26.5 -23.5t26.5 -19.5t16.5 -10.5q18 -10 50 -28.5t48 -18.5t30.5 -8t25.5 -8q18 -2 32.5 0t22.5 -4.5t11 -7.5t13 -1t17.5 -2t21.5 -4q31 -4 37 -12q16 -18 24.5 -16t26.5 -7q47 -23 79 -61.5t34 -103.5q0 -29 -5 -61 t-22 -44q-8 -6 -9 -13t-1 -16q0 -6 -5 -13t-23 -15q-10 -6 -9.5 -12.5t-7.5 -10.5q-16 -10 -33.5 -15t-21.5 -13q-6 -10 -7 -6t-10 4q-16 -4 -23 -9.5t-18 -5.5q-20 -2 -34 -2h-23q-10 0 -25.5 5t-31.5 -3q-16 0 -38 6t-40 13q-14 4 -18.5 8t-6.5 7t-6 7t-16 8 q-10 4 -18.5 14.5t-18.5 22.5q-16 18 -18 30.5t-7 20.5q-14 23 -12 38.5t0 33.5q0 6 -8 7t-10 14q-2 23 8 61q0 8 -6 11t-10 7z" />
<glyph unicode="%" horiz-adv-x="1105" d="M401 1165q-10 2 -24.5 4t-27.5 3.5t-23 1.5h-13q-39 0 -57 -5.5t-27 -9.5q-14 -4 -35.5 -10t-33.5 -14q-16 -10 -25.5 -16.5t-21.5 -16.5q-12 0 -15.5 -12.5t-13.5 -22.5q-14 -14 -29 -45q-8 -14 -13 -36.5t-3 -39.5q0 -10 3 -27.5t6 -36t8 -33.5t12 -24q23 -23 29.5 -35 t23.5 -28q14 -12 38.5 -22.5t55.5 -20.5q18 -8 42 -10t34 -2q29 0 47 2t29 6h4t6 6q2 2 16.5 3t18.5 3q12 2 26.5 10t27.5 17.5t22.5 18.5t11.5 13q2 8 13 23.5t21.5 36t19.5 47.5t9 57q0 27 -6 50.5t-14 41t-17.5 28.5t-13.5 11q-16 4 -14 8.5t-2 12.5q-6 18 -35 35.5 t-60 27.5zM408 784q-20 -18 -45 -24t-54 -6t-48 16t-32 14q-14 -2 -22 17.5t-14 32.5q-16 20 -29.5 44.5t-9.5 77.5q2 20 2 35q0 16 10 41q2 4 11 25.5t28 34.5q16 10 25.5 18t48.5 12q23 2 36 2q16 0 33 -6q20 -8 33.5 -20.5t26.5 -28.5q14 -20 24 -53t10 -53 q2 -23 7.5 -30t1.5 -15q-6 -14 2 -29t-11 -47q-6 -12 -8 -18.5t-4 -11.5t-6 -11.5t-16 -16.5zM899 453q-18 6 -47 7t-33 1q-39 0 -61.5 -5t-30.5 -10q-14 -4 -35.5 -10t-34.5 -14q-16 -10 -25 -16.5t-22 -16.5q-12 0 -15 -12t-13 -23q-14 -14 -29 -45q-8 -14 -13 -36.5 t-3 -39.5q0 -10 3 -27.5t6 -35.5t8 -33.5t11 -23.5q23 -23 30 -35t23 -29q14 -12 39 -22.5t56 -20.5q18 -8 41.5 -10t33.5 -2q29 0 47.5 2t28.5 6h4t6 6q2 2 16.5 3t18.5 3q12 2 26.5 10.5t28 17.5t22.5 18.5t11 13.5q2 8 13.5 23.5t21.5 36t19.5 47t9.5 57.5q0 27 -6 50 t-14.5 40.5t-17.5 29t-13 11.5q-23 4 -22 8t5 12q-6 18 -34.5 36t-59.5 28zM905 72q-20 -18 -44.5 -24.5t-53.5 -6.5t-48.5 16.5t-31.5 14.5q-14 -2 -22.5 17.5t-14.5 31.5q-16 20 -29.5 44.5t-9.5 78.5q2 20 2 35q0 16 11 40q2 4 11 26t27 34q16 10 25.5 18.5t48.5 12.5 q23 2 37 2q16 0 33 -6q20 -8 33.5 -20.5t25.5 -29.5q14 -20 24.5 -53t10.5 -53q2 -23 7 -30t1 -15q-4 -6 -2 -12.5t4 -14.5t0 -18t-10 -27q-6 -12 -8 -18t-4 -12.5t-6.5 -13.5t-16.5 -17zM598 602q2 4 11 17.5t19.5 28t18.5 26.5t8 16q10 4 16.5 14.5t11.5 19.5t11 16.5 t19 4.5q4 29 25.5 50.5t25.5 46.5q10 18 18.5 19t14.5 11q4 16 10 20.5t8 20.5q16 12 25.5 21.5t17.5 19.5q8 6 28.5 28t33.5 40q10 16 16 17t12 11.5t5 15.5t14 5q8 14 11 15t7 6q12 16 12 24q0 10 -12 18.5t-20 12.5q-2 4 -14.5 13t-22.5 14q-4 4 -13.5 5t-15.5 -3.5 t-8 -12.5t-10 -12q-10 -10 -4 -12t-7 -15q-4 0 -10 -11t-13 -25.5t-15.5 -29t-16.5 -20.5q-10 -6 -7 -15t-7 -13q-16 -8 -37 -51.5t-53 -81.5q-8 -8 -18.5 -25.5t-23 -37t-27.5 -39t-30 -32.5q-12 -12 -13 -18t1 -11t2 -9t-14 -11q-29 -14 -32 -30.5t-17 -36.5 q-18 -23 -42 -55.5t-34 -49t-20.5 -33t-28.5 -26.5q-12 -10 -28.5 -43t-51.5 -68q-10 -14 -20.5 -30.5t-32.5 -42.5q-14 -10 -16.5 -17.5t-2.5 -13.5q0 -4 -4 -10.5t-18 -16.5q-8 -6 -22.5 -21.5t-32 -34t-35 -39t-33.5 -34.5q-23 -20 -29 -30.5t-6 -16.5q0 -10 15.5 -17.5 t31.5 -21.5q8 -12 29.5 -18t31.5 -4q8 4 10.5 10t16.5 35q14 27 21.5 39t11.5 18t7 10t9 17q16 37 36 63.5t36 40.5q8 16 8 23q0 8 19 22q4 20 22.5 36.5t28.5 39.5q4 20 19.5 37.5t29.5 36.5q16 23 34.5 56.5t47.5 51.5q16 37 30.5 52.5t20.5 29.5z" />
<glyph unicode="&#x26;" horiz-adv-x="1474" d="M827 729q2 16 3 29.5t-3 25.5q-10 2 -14 1t-20.5 -5t-34 -8t-35.5 -4q-10 0 -23.5 -5t-52.5 3q-20 4 -26.5 -6t-26.5 -4q-23 6 -35 0t-35 0q-12 4 -26.5 8t-34.5 16q-10 6 -41 32t-47 54q-4 8 -12.5 27.5t-12.5 36.5q-4 10 -4 22t-2 35q-2 33 10.5 49.5t16.5 36.5 q4 31 11 46.5t13 25.5q12 20 21.5 24.5t23.5 20.5q23 29 32 31t22 6q29 10 56.5 14t37.5 4q49 0 66.5 -9t21.5 -19.5t7 -12.5t7 -4t9.5 -5t15.5 -13q20 -14 24 -35q4 -16 11.5 -33.5t7.5 -34.5q0 -12 3 -23.5t7 -15.5q8 -8 18.5 -6t22.5 2q10 0 15 4t30 -4q10 -4 18.5 -2 t16.5 2q14 0 18 6q2 4 -1 34t-7 46.5t-12 26.5t-17 27q-6 12 -18 25t-23 28q-10 16 -30 16t-27 10q-16 23 -47 26t-47 7t-37 4h-43q-39 0 -70.5 -9t-42.5 5q-16 0 -23 -3t-11.5 -8t-9.5 -9t-17 -8q-8 -4 -25.5 -9.5t-29.5 -9.5q-4 -2 -8.5 -16.5t-26.5 -5.5 q-10 -4 -16.5 -7.5t-22.5 -25.5q-8 -12 -19.5 -20.5t-23.5 -23t-24.5 -38t-24.5 -66.5q-8 -27 -1 -46t1 -42q-4 -18 5 -33.5t15 -35.5q6 -18 20.5 -34t28.5 -32q8 -10 25.5 -19.5t24.5 -9.5q20 0 17 -8t13 -16q31 -14 62 -21q16 -4 30.5 -10t12.5 -12q0 -2 -12.5 -5 t-33 -7.5t-44 -11.5t-45.5 -17q-31 -14 -58.5 -30.5t-40.5 -33.5q-12 -18 -20 -26t-14.5 -13.5t-12.5 -11.5t-16 -20q-20 -27 -45 -62q-23 -35 -27 -90t2 -98q4 -25 8 -34t8.5 -15t6.5 -14.5t2 -28.5q0 -23 9 -29t19 -22q6 -12 18.5 -25.5t26 -26t26.5 -24t19 -17.5 q31 -29 63 -43t61.5 -21t56 -10t47.5 -10q14 -4 22 -4h15q6 0 13 -1t21 -7q29 -12 59 -6t46 6q23 0 28 -1t33 5q47 10 91.5 19.5t54.5 13.5q14 6 33.5 15.5t40 18.5t38 19t27.5 21q12 14 23.5 23t33.5 44q4 6 12.5 13.5t17.5 16.5t15.5 18.5t6.5 21.5q-2 16 -1 20t3 5.5 l6 4.5t8 15q8 23 10 44t6 44q4 14 6.5 35.5t12.5 40.5q8 14 18 16t21.5 1t23 -3t23.5 2q16 8 33.5 2t33.5 -8q39 -4 51.5 -7t30.5 -5q23 -4 39.5 -7t32.5 1q6 2 5 10l-3 24q-2 10 1 21.5t3 21.5q2 10 3 19.5t-5 13.5q-6 2 -22.5 0t-37 -4t-42 -4t-35.5 2t-29.5 -5t-32.5 -9 q-18 0 -40.5 -3t-45.5 -3q-18 0 -26 -4.5t-27 -0.5q-16 4 -37.5 5.5t-40.5 1.5q-12 0 -18 -4.5t-33 0.5q-14 2 -22.5 4t-32.5 2q-37 0 -59.5 8t-43.5 2q-16 0 -23 4t-32 6q-18 2 -27.5 4t-19.5 0q-6 -2 -11 -5t-5 -13q0 -8 1 -19.5t1 -21.5q0 -8 -3 -17.5t-3 -15.5 q0 -25 16 -24q14 0 37.5 6t62.5 6q16 0 26.5 8t35.5 6q16 -2 30.5 5t49.5 5q18 -2 24 -7t12 -13q4 -4 5 -19q0 -12 2 -24q6 -37 5 -61.5t-24 -65.5q-8 -16 -6 -27.5t-8 -29.5q-6 -14 -12.5 -19.5t-10.5 -8.5t-10 -6t-12 -14q-4 -6 -5 -10t-3 -9t-10.5 -13.5t-27 -22.5 t-43 -28.5t-40.5 -18.5q-8 -2 -12.5 -5t-9.5 -5t-14 -4t-28 -4q-12 0 -20 -3.5t-20.5 -6.5t-31 -5t-53.5 -2q-55 0 -84.5 4t-46 9.5t-28 12.5t-31.5 17q-23 10 -27 14.5t-24 20.5q-33 23 -43.5 41t-28.5 41q-10 10 -18.5 19.5t-14.5 28t-6 32.5q0 16 -2 20q-4 8 -10 16.5 t-6 57.5q0 16 4 48t10 59q8 29 25.5 56.5t37.5 47.5q59 59 82 61q12 2 14.5 5.5t1.5 8.5t1 11t18 12q10 4 20.5 11.5t22.5 13.5q23 10 41.5 11t44.5 3q23 2 37 1t31 1q14 2 26.5 -3t22.5 -1q18 6 27.5 -3t31.5 -5q14 4 19.5 -2t15.5 -6q18 0 26.5 -3t18.5 1q6 14 5 26.5 t1 30.5z" />
<glyph unicode="'" horiz-adv-x="253" d="M109 1384q-25 0 -25 2q0 4 -16 5q-6 0 -13.5 -10.5t-9.5 -16.5q-2 -10 7 -14t5 -15q-4 -8 -1 -15t7 -20q6 -16 9.5 -30.5t9.5 -26.5q10 -4 9 -7t-1 -9q0 -10 -6 -19.5t-2 -24t9 -29.5t5 -36q0 -12 2 -23.5t6 -17.5q10 -16 -1 -28.5t-9 -28.5q4 -29 2 -48.5t0 -27.5 q10 -4 20.5 -9t20.5 -5q4 0 12.5 1t10.5 15q2 10 2 35v41q0 10 -2 15t4 14q4 4 3 17t1 19q4 35 10 48q0 18 6 40.5t6 26.5q0 12 -4 12t-2 23q4 10 11.5 21.5t11.5 33.5q2 20 5 31.5t4 18t2 11.5t-1 15q0 14 -35 18q-8 0 -32.5 -1t-40.5 -1z" />
<glyph unicode="(" horiz-adv-x="628" d="M92 582q0 -53 8.5 -107.5t10.5 -89.5q0 -31 5 -44t9 -22.5t8 -22.5t2 -42q0 -12 4 -20.5t9.5 -15.5t9.5 -15t2 -23q12 -10 17 -17t6 -13.5t2 -15.5t8 -23q14 -33 20 -46.5t20 -37.5q16 -29 36 -46.5t28 -43.5q4 -12 8 -15.5t10.5 -4.5t15.5 -7t23 -25q4 -23 10.5 -30 t15.5 -11t22.5 -8t29.5 -16q94 -72 162 -74q10 0 21.5 2t11.5 21q0 12 -12.5 16t-30.5 12q-12 4 -17.5 11.5t-21.5 7.5q-10 4 -26.5 15t-24.5 24q-8 14 -14.5 19t-11.5 7l-10 4t-12 11q-18 20 -28 37.5t-27 39.5q-10 12 -24.5 37t-28.5 52.5t-26.5 54t-20.5 43.5 q-10 20 -27.5 76.5t-23.5 115.5q-4 29 0 51.5t-13 34.5q-14 10 -8 15.5t6 21.5q0 29 -4 74t-2 98q0 20 3 30.5t5 20t2 19.5t-4 31q-4 18 1 26t10.5 17.5t9.5 23.5t0 41q0 6 3 20.5t7 32t10 36t10 32.5q16 47 35 85t29 60q12 25 35.5 55.5t40 55t26 31t9.5 16.5q2 20 12 17 t14 6q8 16 16.5 18t20.5 12q18 14 28.5 18.5t32.5 16.5q51 14 52 31q0 14 -9.5 18t-19.5 4q-31 -4 -72 -20q-10 -4 -20 -10.5t-25 -10.5q-18 -4 -19 -13t-18 -11q-14 -8 -23 -17.5t-22 -17.5q-18 -10 -23 -26.5t-16 -8.5q-16 -16 -22 -25.5t-25 -19.5q-23 -14 -24.5 -26.5 t-16.5 -32.5q-16 -23 -32.5 -34t-22.5 -34q-4 -12 -6 -16t-5 -6t-6 -5.5t-10 -13.5q-8 -12 -13 -37.5t-23 -50.5q-10 -12 -6 -18t-1 -23q-16 -29 -16 -45t-8 -49q-6 -27 -9 -42t-5.5 -25.5t-2.5 -20.5t-2 -25q-4 -35 -8 -67.5t-4 -87.5z" />
<glyph unicode=")" horiz-adv-x="628" d="M537 584q0 53 -4.5 85.5t-8.5 67.5q-4 31 -10 64t-12 92q-2 23 -7.5 32t-10.5 14t-7 9t0 19q-12 10 -17 17t-7 13.5t-2 14.5q0 10 -7 24q-16 45 -24 62.5t-29 40.5q-14 16 -23.5 31.5t-25.5 37.5q-12 0 -15 3t-4 10.5t-7.5 19.5t-26.5 31q-31 43 -59.5 63.5t-49.5 32.5 q-47 29 -79.5 39t-67.5 12q-10 0 -21.5 -1t-11.5 -21q0 -10 12.5 -14.5t30.5 -12.5q23 -8 36 -14t44 -29q16 -10 24.5 -19.5t30.5 -37.5q16 -23 31.5 -39.5t32.5 -38.5q16 -27 27.5 -47.5t27.5 -52.5q10 -20 28.5 -58.5t34.5 -89.5q6 -18 10.5 -47t8.5 -58.5t9 -55t13.5 -38 t9.5 -20.5t-2 -21.5t-5.5 -36t-0.5 -61.5q4 -74 5.5 -122t-5.5 -89q-4 -35 -11 -55.5t-15 -37.5t-14.5 -35.5t-10.5 -45.5q-6 -47 -21.5 -76.5t-25.5 -54.5q-16 -45 -31.5 -67.5t-31.5 -49.5q-20 -23 -37 -41t-33 -41q-23 -29 -30 -36t-19 -15q-31 -23 -44 -28t-36 -15 q-18 -8 -30.5 -12t-12.5 -16q0 -18 11.5 -20.5t21.5 -2.5q35 2 89 24.5t101 61.5q16 14 23.5 25.5t12.5 18.5t8 8t9 -5q16 16 27.5 33.5t38.5 52.5q16 23 25.5 34t23.5 28q10 12 16.5 17t11.5 11t10 17.5t11 33.5q4 18 11.5 27.5t12.5 19t9 23.5t2 39q16 14 22.5 26.5 t6.5 22.5t-1 22.5t3 28.5q6 27 9 42.5t5 25.5t2 18q0 10 2 27q4 35 8.5 68t4.5 88z" />
<glyph unicode="*" horiz-adv-x="802" d="M352 768q2 -16 -3 -41l-9 -45l-5 -15t1 -14q4 -20 22 -18q10 0 15.5 3t38.5 1q16 -2 23 -4t14 0q18 0 18 8q2 4 2 12q0 10 -8 17q-4 4 1 5t-3 13q2 6 -2 14.5t-4 18.5q0 8 -1 11t-3.5 6t-3.5 8.5t1 19.5q0 6 -8 11t-8 16q0 8 -5 25.5t-3 27.5q0 2 -4 22q-2 10 -5 17.5 t-1 9.5q4 4 10 -1t12 -11q10 -8 19.5 -15.5t13.5 -11.5l29 -24q4 -6 13 -18.5t15 -18.5q12 -4 16.5 -7.5t6.5 -6.5l4 -6t10 -7q10 -4 13.5 -9t7.5 -7q6 -10 11 -11.5t9 -3.5q14 -4 16.5 -11t6.5 -7q23 8 26 31q8 8 10.5 20t6.5 21q4 4 10 3t8 7q4 4 4 16t-2 14.5t-6 11.5 t-14 5q-4 0 -8.5 1t-18.5 1q-4 4 -13.5 5t-17.5 5q-6 6 -10 6t-7 -1t-8 1t-18 11q-8 2 -14 -1.5t-16 1.5q-6 6 -23.5 11t-24.5 11q-4 2 -14 4t-22 6q-10 6 -19.5 7.5t-9.5 5.5q0 2 18 8q12 4 26.5 5t20.5 5q6 6 23.5 11t24.5 12q10 4 19 0t15 0q14 10 24.5 15t18 7t14.5 3 t17 1q16 2 24.5 5t12.5 14q6 18 0 26q-2 8 -5 14.5t-7 10.5q-4 8 -7.5 17t-11.5 18q-4 27 -24 24q-8 0 -11 -1l-2 -1l-1 -1t-7 -3q-10 -4 -20 -20q-6 -2 -8.5 -7.5t-12.5 -9.5q-8 -4 -10 -7l-4 -6t-6 -6t-17 -7q-6 -6 -15 -19.5t-13 -17.5l-29 -25q-4 -4 -12 -10t-19 -14 q-6 -4 -13 -7.5t-11 -3.5t0 25q4 10 5 19.5t1 13.5q-2 10 4 18t6 17q0 10 7 24t7 21q-2 14 -1 18t3.5 5t3.5 3t1 12q-2 12 -5.5 16.5t3.5 12.5q14 16 11 20.5t-1 8.5q6 16 5 20t-3 9q-4 10 -12.5 11t-18.5 -1q-10 0 -19.5 3t-25.5 -1q-8 -2 -20.5 1t-18.5 1q-8 0 -13 -5 t-5 -9q-2 -4 -1 -13.5t9 -15.5q4 -4 -1 -5t3 -14q-2 -6 2 -14t4 -18t1 -12.5t3 -5.5t3 -8t-1 -19q0 -6 6.5 -11.5t6.5 -15.5q0 -8 7 -25.5t5 -27.5q-2 -4 0 -14.5t6 -22.5q4 -20 0 -21q-4 0 -11 4.5t-16 8.5l-16 12t-12 10l-29 25q-4 4 -13.5 17t-15.5 20q-12 4 -17 7t-6 6 t-3 6t-11 7q-10 4 -12 9.5t-8 7.5q-6 10 -11 11t-9 3q-12 8 -15.5 13t-7.5 5q-20 -14 -23 -34q-8 -8 -5 -14.5t-1 -14.5q-4 -4 -13 -11.5t-11 -15.5q-4 -4 -5 -15t1 -13q2 -4 10 -8.5t18 -0.5q4 0 3 -4t14 -4q4 -4 13 -5t17 -5q6 -6 11 -6q4 0 7 1t8 -1t17 -10q8 -2 14.5 1 t16.5 -1q6 -6 23.5 -11.5t23.5 -11.5q6 -4 19 -4q12 0 26 -4q8 -4 13 -4q6 0 6 -4t-21 -11q-12 -6 -25.5 -8t-17.5 -6q-6 -6 -23.5 -11t-23.5 -11q-10 -4 -16 -2t-15 2q-16 -2 -21 -7.5t-22 -9.5q-10 -4 -14 -1t-8 -1q-14 0 -13 -5t-16 -1q-10 4 -12 -2t-8 -16 q-4 -6 -1 -16.5t7 -14.5q2 -8 2 -14q0 -4 4 -9q8 -8 9 -12t1 -8q0 -2 -1 -5t3 -7q4 -23 29 -33q8 2 9 4t1 4t2 4t8 4q4 2 10.5 4t12.5 13q6 4 8 8t12 8q8 4 10.5 7t3.5 6t6 6t17 8q6 6 15.5 18t13.5 18l29 25q4 4 16 12t23 17q14 14 16 14q4 0 -2 -25q-2 -8 -5 -14t-3 -10 q2 -10 -2 -18.5t-4 -16.5q0 -10 -7.5 -24.5t-7.5 -20.5z" />
<glyph unicode="+" d="M780 469q0 10 1 24.5t-1 28.5q0 27 -6 27q-20 -2 -27.5 -7t-23.5 -1q-10 4 -23.5 1t-33.5 -5q-10 0 -22.5 -5.5t-23 -1t-19.5 0t-17 -4.5h-31h-12h-11h-18q-8 0 -22.5 -6t-20.5 4q-4 12 -2 16.5t2 12.5q0 16 3 28.5t3 34.5q0 16 3 28.5t1 23.5q-4 12 1 31.5t12 41.5 q-2 6 -7.5 5t2.5 14q2 4 4.5 23.5t2.5 37.5q-2 8 2 14.5t0 10.5t-11 4h-14q-6 0 -13 -3t-24 1q-10 0 -12 -2t-19 2q-10 2 -16 4t-14 -6q-6 -6 -3 -14.5t5 -22.5q0 -10 1 -13l1 -3h2t0 -7q-2 -8 5 -21t5 -24q-2 -6 0 -9t0 -13q0 -2 1 -12.5t4 -22.5t4 -23.5t1 -17.5 q-2 -10 5.5 -27.5t5.5 -29.5q0 -10 3 -27.5t-1 -32.5q-6 -8 -17 -8h-16q-39 2 -54.5 5t-25.5 3q-16 0 -25.5 2t-19.5 2t-19.5 2.5t-19.5 2.5q-12 -6 -19.5 0t-17.5 4q-12 -2 -21.5 -1t-19.5 3q-12 2 -20 2t-15 2q-4 2 -8 0t-6 -13q-2 -6 0 -13t2 -17t-3 -14.5t1 -26.5 q4 -12 0 -21.5t2 -13.5q4 -4 13.5 -2t13.5 2t16 4t16.5 0t8.5 2t20 2q6 -2 22.5 5t37.5 5q4 -2 17 -1t28.5 4.5t30 4.5t18.5 -1q10 -4 18 2t21 2q10 -4 20 2t19 0q6 -4 5 -15.5t-3 -21.5t-3 -16.5t1 -16.5q2 -12 -1 -17t-6 -20q0 -10 -5 -20.5t-1 -20.5q10 -25 3 -30t-5 -25 q2 -29 -6 -47.5t0 -30.5q4 -6 -2 -13t-4 -11q4 -6 0 -14.5t-4 -18.5q10 -6 16 -7t17 -1q12 2 28.5 3t24.5 -3q10 -6 18.5 -2t18.5 6q4 0 2 6t0 22q0 6 -3 16.5t-3 26.5t-4.5 46t0.5 47q-4 8 -11 8q-6 0 -2 18q4 10 0 17.5t-8 23.5t-2 28.5t-2 43.5q2 14 -3 22.5t3 14.5 q6 6 16.5 5t20.5 -3t20.5 -4t14.5 0q6 2 24.5 -2.5t28.5 -1.5q16 4 24.5 0.5t14.5 -3.5q25 2 22.5 -3t10.5 -3q10 4 22 2t25 -6q14 -4 23 -3t19.5 -1t12.5 -2t8 2q8 4 6 17.5t-2 19.5z" />
<glyph unicode="," horiz-adv-x="378" d="M92 -219q-12 -8 -19 -12.5t-20 0.5q-8 4 -14 -1.5t-10 -5.5q-20 0 -21 -12q0 -8 3 -16t5 -13q4 -8 9.5 -6t15.5 2t26.5 6.5t30.5 12.5q8 4 22.5 13t31.5 24q14 12 28.5 26.5l18.5 18.5q8 10 3 13t7 13.5t20.5 24.5t12.5 31q6 27 12 32t8 15t4 21.5t2 27.5q0 18 3 27.5 t4 14.5t1 9t-6 14q-14 20 -6 26.5t6 10.5q-12 23 -7 27t5 8q0 12 -3 18.5t-7 10.5q-4 6 -23.5 3t-29.5 -3h-21q-10 0 -18 -2q-16 -4 -38 1t-32 1q-4 -2 -5 -9.5t-1 -11.5q-2 -10 3 -13t-1 -24q0 -16 3 -39.5t1 -46.5q0 -10 4 -13t13 -5q6 -2 15 -1t22 -3q8 -2 19 0t15 -2 q8 -6 3 -17.5t-1 -28t-4 -19.5t-10 -17q0 -8 -1 -14.5t-5 -18.5q-8 -20 -21.5 -46.5t-52.5 -51.5z" />
<glyph unicode="-" d="M584 524q-6 -2 -48 -4t-90 -2q-41 0 -69.5 3t-36.5 3t-23.5 1t-25.5 3q-16 2 -32.5 4.5t-29.5 -2.5q-10 -2 -12 -1l-12 6q-12 -6 -11 -1t-16 5q-18 -4 -26.5 2t-22.5 6q-16 0 -21.5 1t-9.5 1q-6 -4 -8 -5t-2 -16v-22t-2 -27q-2 -12 -1 -17t3 -6t3 -3t1 -9 q-4 -23 7.5 -20.5t17.5 2.5q4 0 12 4t12 0t13.5 2t25.5 2q6 -2 17.5 4t31.5 4h23q12 0 28.5 2t42 5.5t29.5 3.5t7 3t10 -1q16 0 39.5 1t46.5 1q31 0 55.5 -2t30.5 -2q6 2 24.5 -4.5t28.5 -4.5q16 4 24.5 0t14.5 -4q25 2 22.5 -3t10.5 -3q10 4 24 4q16 0 27 -4q14 -6 16 -4 t12 0q16 -2 29 0q8 4 6 21.5t0 33.5v19q0 12 -2 22.5t-5 17.5t-7 5q-12 -4 -13 -2t-8 0q-10 -4 -34.5 -8t-44.5 -2q-10 4 -22.5 -3.5t-23 -3t-19.5 -1t-17 -5.5z" />
<glyph unicode="." horiz-adv-x="378" d="M109 -2q8 0 19 -1t22 -1q18 0 28 -2t17 -6q8 -4 17 -3t15 3l17.5 7t23.5 -5q0 16 -2 31.5t-2 35.5q0 16 4 25.5t4 23.5q0 10 2 21.5t-2 15.5q-4 6 -5 13.5t-17 7.5q-14 0 -26.5 -3t-22.5 -3q-18 0 -21 12q-14 4 -27.5 0t-17.5 2q-6 -2 -8 -7t-18 -3q-8 -8 -5 -17 q6 -18 7 -49q0 -16 -1 -34.5t-1 -30.5q-10 -8 -4 -16.5t4 -16.5z" />
<glyph unicode="/" horiz-adv-x="655" d="M281 387q14 33 20 57.5t25 63.5q12 27 20 56.5t12 43.5q10 31 20.5 44.5t20.5 49.5q20 72 46 123.5t32 83.5q-2 14 4 22.5t14.5 17.5t13.5 20.5t1 31.5q14 6 13 20.5t5 25.5q4 6 12.5 16t10.5 18q8 25 13 28t16 21q0 8 4 10.5t9 6.5t10 13t5 32q-2 4 6.5 12t10.5 13 q10 14 13 22t-3 18.5t-18.5 11.5t-18.5 7q-18 14 -48 22.5t-46 4.5q-8 -2 -5 -8.5t-7 -16.5q-8 -10 -5.5 -20.5t-7.5 -24.5q-4 -18 -2 -31.5t-2 -19.5q-4 -20 -15 -33.5t-9 -26.5q4 -18 -7.5 -53t-21.5 -63q-6 -16 -19.5 -55.5t-28 -82.5t-26.5 -80.5t-14 -48.5 q-4 -10 -12.5 -21t-16.5 -22.5t-11 -22.5t3 -22q-10 -29 -17.5 -56.5t-17.5 -49.5q-14 -47 -24.5 -57.5t-6.5 -14.5q-12 -16 -11 -34.5t-9 -32.5q-8 -12 -23.5 -31t-21.5 -29q10 -20 -2 -36.5t-10 -33.5q-8 -20 -19.5 -44.5t-21.5 -43.5q-10 -23 -20.5 -46t-20.5 -46 q-8 -16 -19.5 -44.5t-34.5 -59.5q-14 -23 -18 -37t10 -18q23 -6 34 -12.5t32 -10.5q23 -4 36 -11t17 3q4 6 6 6t4 14q2 16 5 19.5t6 11.5q6 23 9 41t7 35q0 6 9 31.5t19.5 56.5t20.5 60.5t14 41.5z" />
<glyph unicode="0" horiz-adv-x="1040" d="M711 2q18 8 52 39t62 70q4 6 9.5 16t9.5 16.5t12 9.5t8 11q2 23 15.5 41t21.5 37q4 6 6 11t4 9q6 18 15.5 43t15.5 48.5t7 41t-7 23.5q0 14 13.5 17t5.5 16q-6 10 -7 18q0 8 3.5 18.5t6.5 24.5t3 39v67l2 68q0 6 -4 14.5t-4 14.5q0 8 2 14t2 14q2 16 -3.5 26.5t-12.5 24 t-13 35t-6 60.5q0 25 -4 36t-8.5 17t-9.5 11t-9 20q-10 35 -29.5 54.5t-38.5 47.5q-10 14 -19 27.5t-34 34.5q-6 4 -14 16t-21 21q-4 4 -8 0.5t-10 1.5q-27 16 -69 31.5t-107 15.5q-23 0 -56.5 -2t-62.5 -9q-33 -8 -67.5 -24.5t-81.5 -59.5q-4 -4 -9.5 -11t-9.5 -11t-12 -4 q-6 0 -10 -6q-6 -10 -8.5 -16.5t-10.5 -16.5q-10 -14 -20.5 -29.5t-20.5 -34.5q-2 -4 -8 -10t-2 -22q-4 -4 -8 -7.5t-6 -7.5q-16 -29 -25.5 -58.5t-26.5 -51.5q-4 -4 1.5 -12.5t3.5 -14.5q-2 -4 -6.5 -11t-6.5 -11q-6 -20 -7 -32.5t-1 -23.5q0 -10 -1 -18t-5 -21 q-4 -10 -2 -14t4 -6t3 -4t-3 -8q-10 -16 -11 -40t1 -45.5t6 -40t4 -24.5q0 -53 11 -108.5t18 -92.5q4 -18 14 -24t10 -33q0 -16 3 -22.5t7.5 -10.5t7.5 -7t3 -11q-2 -14 9 -29.5t25.5 -31t29 -29t20.5 -25.5q10 -23 28.5 -35t38.5 -30q29 -25 72 -41.5t82 -24.5q25 -6 47 -6 q45 0 80 4t45 8q12 4 24.5 11.5t20.5 11.5q6 14 10.5 9t20.5 3zM702 117q10 -23 -36 -56q-23 -16 -51.5 -35.5t-88.5 -19.5q-6 0 -15 1t-17 -3q-10 -4 -14.5 4t-14.5 12q-45 16 -84 60q-4 4 -3 11t-3 11t-11.5 6.5t-11.5 6.5q-16 14 -22 30.5t-15 36.5q-14 35 -27.5 60.5 t-13.5 60.5q0 18 -6 23.5t-12 9.5t-9 11t1 30q-10 23 -13.5 77t-5.5 140q0 6 -2 13t-2 16q0 10 -2 20t-6 21q-4 8 3 14t7 14q2 25 5.5 51.5t9.5 67.5q6 31 13 51.5t13 32.5q0 25 3 38t8.5 22.5t11.5 18.5t12 25.5t15.5 37t21.5 37t25.5 26.5t27.5 6q10 41 56.5 53t93.5 12 q35 0 65.5 -16t44.5 -27q12 -10 15.5 -15t3.5 -9t2 -7t12 -5q18 -4 16 -17.5t3 -23.5q6 -12 11 -16.5t9 -9.5t9 -12t11 -26q14 -43 26.5 -86t12.5 -78q0 -27 7.5 -35t13.5 -11t10 -8t0 -24q-4 -16 -4 -26q0 -8 2 -20.5t4 -31t4 -51.5q0 -53 -2 -87.5t-6 -75.5 q-2 -10 -8 -16.5t-4 -16.5q4 -31 1 -54.5t-7 -41.5q-6 -31 -17.5 -44.5t-11.5 -29.5q0 -43 -7 -62.5t-17.5 -30t-21 -17.5t-18.5 -23z" />
<glyph unicode="1" horiz-adv-x="585" d="M268 936q-6 -16 0 -27.5t4 -28t-7 -25.5t-5 -24q2 -10 6 -26.5t4 -32.5q0 -23 1 -46.5t1 -43.5t-2 -33.5t-6 -15.5t-2 -7l5 -12.5t5 -15.5t-4 -16q-10 -16 -3 -42t1 -38q-4 -10 -4 -15q0 -4 1 -6t4 -5t3 -9q4 -33 -4 -50.5t-8 -33.5q0 -14 5 -27.5t1 -31.5q-6 -10 -8 -34 t0 -48q2 -23 -1 -42.5t-3 -29.5q0 -14 -6 -16t-2 -25q8 -6 6 -13t-10 -12q-4 -4 -1 -16t-1 -31q-4 -8 -7.5 -29.5t5.5 -27.5q4 -2 19 -4t21 -4q10 -2 14.5 -1t8.5 5q12 8 23 8q16 2 42.5 -2t30.5 2q6 10 6 16t-2 29q0 4 3.5 11.5t-1 21.5t-6.5 32.5t-8 37.5q-4 18 0 21t4 15 q2 14 -3 21.5t-7 23.5q-2 31 6 36t6 16q-4 14 -9 36.5t-5 26.5q0 14 -1 23.5t-1 19.5v31q0 20 2 55q0 16 -1 28.5t-3 22.5q0 10 3 12.5t6 4.5t4 7t-5 21q-2 4 -6 10.5t10 10.5q-8 49 -4 108.5t2 104.5q0 25 4 37t8 22.5t5 22.5t-7 37q-4 16 -4 41q0 27 4 53q4 31 0 53 q-6 14 1 17.5t7 27.5q0 16 -2 30.5t-2 31.5q0 10 -4 23.5t-28 13.5q-10 0 -25.5 -10.5t-32.5 -26.5q-6 -6 -8 -10.5t-4 -7.5t-5 -4t-16 -1q-10 0 -16 -13.5t-16 -15.5q-8 0 -10.5 -2t-2.5 -6q0 -2 -1 -5t-7 -7q-10 -6 -19 -14.5t-22 -16.5q-10 -6 -20 -13t-19 -13 q-10 -6 -17 -12.5t-15 -6.5q-10 0 -19.5 -11t-20 -17.5t-17.5 -11.5t-15 -11q-6 -6 -11 -9t-10 -9q-2 -4 4.5 -14.5t10.5 -14.5l7 -7t7 -3q4 -2 10 0t11 4q10 4 15 13t11 9q16 -2 15.5 4.5t15.5 10.5q6 2 13 7t30 13q10 4 31.5 14.5t36.5 8.5q25 -2 28 -17q4 -10 4 -22v-33z " />
<glyph unicode="2" horiz-adv-x="923" d="M479 1225q-29 0 -62.5 -4t-45.5 -7q-16 -2 -25.5 -12t-32.5 -6q-16 2 -21 -11.5t-28 -23.5q-18 -8 -30.5 -21.5t-20.5 -19.5q-14 -10 -29.5 -17t-15.5 -24q0 -8 -9 -19t-20 -28q-12 -20 -14 -38.5t-25 -39.5q-12 -12 -8 -30.5t0 -32.5t-9 -23.5t-1 -13.5q10 -10 16 -10 h17q12 -2 23.5 -4t27.5 2q27 4 41 1t24 3q4 4 6.5 26.5t0.5 36.5q-4 25 3 37t3 28.5t4 27t2 22.5q-4 4 -2 17.5t8 25.5q10 23 31.5 41t38.5 29q8 4 24.5 10t34.5 12t32.5 9t18.5 1q18 -6 24.5 -8t9.5 0t7 4t17 2q29 0 46 -6t29.5 -14t19.5 -17.5t17 -15.5q29 -20 37 -37.5 t14 -42.5q0 -18 4.5 -24t8.5 -9.5t8 -6.5t6 -11q2 -10 4 -20.5t-2 -26.5q-4 -14 0 -21.5t2 -25.5q-4 -51 -9 -83t-13 -48q-4 -6 -10.5 -21.5t-14.5 -32t-15.5 -29.5t-13.5 -16q-10 -4 -11 -7t1 -8t2 -11q0 -4 -8 -12q-4 -4 -12.5 -3.5t-26.5 -19.5q-4 -2 -25.5 -21.5 t-48 -44t-49 -45t-26.5 -24.5q-10 -10 -15.5 -18.5t-23.5 -4.5q-20 -10 -25.5 -25.5t-28.5 -25.5q-20 -16 -35.5 -33.5t-31.5 -31.5q-12 -12 -27.5 -24.5t-29 -24t-20.5 -21.5t-3 -16q0 -12 -8 -17.5t-25 -25.5q-10 -12 -5 -19.5t-3 -11.5q-18 -8 -21.5 -13.5t-1.5 -11.5 t4.5 -15t-6.5 -24q-10 -16 -12 -37.5t-2 -33.5q0 -14 1 -22.5t11 -12.5q23 0 44.5 -3t48.5 5q12 4 37.5 5t52.5 1q29 0 53 -1t37 -1q57 0 78.5 6t35.5 2q25 -4 48.5 -6t46.5 -2h75q33 0 68 -8q16 -4 41 4q14 4 17 -3t20 -5q23 4 29 0t18 -4t16 2q6 2 7 13t1 21 q-4 23 -0.5 34.5t0.5 27.5q-2 10 4.5 19.5t-4.5 15.5q-4 4 -6 8t-16 2q-12 -2 -17.5 -6t-15.5 -2t-14 0t-9 -5t-16 -3q-10 0 -28 4q-10 -8 -22.5 -14.5t-22.5 -2.5q-12 4 -21.5 -1t-34 -9t-48 -3t-34.5 -3q-16 4 -22 -2t-29 -6h-22q-8 0 -20.5 2t-29 -5.5t-34.5 -4.5 q-12 2 -17 2h-20q-12 0 -13.5 3t-17.5 3q-8 0 -13 -1t-26 3q-14 2 -29.5 1t-23.5 13q-6 10 -3 26.5t3 28.5q0 18 9 37t32 51q4 16 16.5 25.5t9.5 32.5q0 8 3.5 10t7.5 2q6 0 12 3t10 13q10 31 62 68q29 23 63.5 49.5t44.5 36.5q18 16 27.5 15t21.5 8q8 4 15.5 16t19.5 25 q12 14 20.5 16t15.5 3t14.5 6t15.5 24q6 14 13 19t15.5 8t15.5 8.5t15 21.5q4 8 14.5 17.5t21.5 23.5t23.5 34.5t20.5 51.5q6 20 12 32.5t11.5 28t8.5 38t3 63.5q0 20 -2 25.5t-5 8.5t-4 9t1 29q0 20 -14.5 29t-22.5 44q-6 18 -10.5 27.5t-34.5 25.5q-23 25 -59 46.5 t-81 31.5q-10 2 -26.5 5.5t-37 5.5t-40 4t-31.5 2z" />
<glyph unicode="3" horiz-adv-x="915" d="M698 242q-10 -16 -9 -39t-9 -47q-16 -35 -44 -66t-63 -49q-57 -29 -94 -31t-71 0q-29 2 -57.5 12.5t-45.5 20.5q-29 23 -51.5 30t-28.5 31q-8 29 -21.5 38.5t-17.5 33.5q-4 18 -2 39t-6 31q-8 8 -35 8t-43 -4q-29 -4 -46 1t-27 -1q-14 -10 -11 -41q2 -18 10.5 -29.5 t12.5 -27.5q4 -14 13 -25.5t18 -32.5q10 2 12 0t2 -6t-1 -9t5 -9q23 -23 48.5 -35t41.5 -29q12 -12 29.5 -13t44.5 -18q10 -6 24.5 -7t36.5 -7q8 -2 18.5 1t20.5 -1q14 -6 31.5 -5t48.5 -1q23 0 53.5 3t53.5 11q29 10 50 12.5t32 12.5q6 8 12 8h12t13.5 2t17.5 14 q12 16 34.5 29.5t51.5 48.5q14 18 30.5 39t31 46.5t23.5 61.5t13 87q2 16 -2 46t-14 50q-10 23 -15.5 37t-9.5 24q-6 14 -15 28.5t-32 35.5q-18 16 -36.5 33.5t-47.5 33.5q-12 6 -20.5 7.5t-14.5 1.5t-10 1t-10 9q-6 10 -28.5 15t-47.5 12q-10 -2 -21.5 0t-43.5 6 q-6 2 -20.5 1t-25.5 3q10 4 24.5 8t18.5 8q10 12 19.5 8t28.5 9q29 18 49 25t49 30q12 10 27.5 26.5t35.5 32.5q23 18 31 29.5t10 40.5q0 8 3 9t7.5 4t7.5 13.5t3 38.5q0 14 -1 22.5t-3 14.5t-4 13.5t-2 17.5q0 27 -8.5 46.5t-18.5 33.5t-23.5 26.5t-25.5 26.5 q-18 23 -37 31t-37 10q-10 0 -15 3t-8.5 6t-8.5 5t-17 5q-10 2 -18.5 3t-20.5 3t-31 2h-51h-37t-39 -4q-12 -4 -18 -10.5t-21 1.5q-12 2 -20 -9t-39 -21q-27 -8 -38 -23.5t-34 -30.5q-12 -6 -21 -21t-16.5 -32.5t-13.5 -33t-10 -23.5q-6 -12 -9 -28.5t1 -24.5 q4 -10 19.5 -8.5t25.5 1.5t14 -1t19 4q23 6 33 0.5t20 -0.5q4 2 14 6t6 14q-2 6 1 30.5t3 32.5q2 25 8.5 34t10.5 20q10 20 11 27.5t22 17.5q16 10 33.5 21.5t62.5 11.5q23 0 37 -4.5t20 -4.5q35 0 55 -12q16 -10 18.5 -16t8.5 -19q8 -16 24.5 -26.5t14.5 -32.5 q0 -12 11 -26.5t11 -63.5q0 -35 -11 -70t-27 -67q-4 -10 -5.5 -8.5t-13.5 -14.5q-6 -8 -7 -14t-15 -17q-29 -23 -39.5 -27.5t-28.5 -13.5q-10 -4 -25.5 -13t-37.5 -9q-14 0 -26.5 -4t-37.5 -8q-18 -4 -26.5 5t-24.5 5q-10 -2 -21.5 0t-23.5 6q-10 2 -17.5 6t-21.5 -2 q-6 -4 -4 -17.5t2 -41.5q0 -16 -3 -34t11 -22q10 -2 53 13q23 8 37 3t27 -3q10 4 17 8t26 4q37 0 54 -7t40 -12q12 -4 23.5 -10t23.5 -10q18 -4 28.5 -7t16.5 -7t13.5 -10.5t19.5 -16.5t23.5 -14t15.5 -27q2 -14 7 -19.5t11 -7.5t11.5 -4t9.5 -10q8 -18 21.5 -38.5 t13.5 -76.5q0 -31 2 -46t3 -26.5t-2.5 -20.5t-11.5 -23z" />
<glyph unicode="4" horiz-adv-x="1077" d="M434 1020q-25 -25 -76 -82q-29 -29 -40 -47.5t-21 -26.5q-20 -16 -29.5 -21t-11.5 -14q-8 -12 -4 -17t-6 -19q-12 -16 -28.5 -43t-34 -54.5t-31 -52.5t-19.5 -37q-8 -18 -14 -21t-6 -18q0 -16 -4.5 -21t-9.5 -6t-10 0t-7 -3q-10 -20 -10 -35q0 -14 -9 -35 q-12 -31 -16 -50.5t-8 -29.5q-4 -16 5 -23.5t15.5 -13.5t51.5 -6q12 0 44.5 2t73.5 -2q23 10 30 4t30 -6q8 0 35.5 3t58.5 5t57.5 3t36.5 -3t15.5 -3t10.5 3t10 3t15 -3q20 -10 43 -1t45 3q14 -4 25.5 -2t22.5 -8q6 -8 8 -19.5t4 -35.5q2 -16 0 -21.5t-5 -7.5t-5 -5t2 -15 q6 -25 0 -35t-11 -17q4 -14 3 -29.5t-5 -52.5q-2 -18 -6 -37.5t-4 -27.5q0 -16 -4 -31.5t2 -17.5q20 -4 25.5 -2t15.5 2q16 0 49 1t60 -3q23 0 24.5 16t-6.5 35q-12 0 -2 47q0 14 -3 20.5t-8 9.5t-7.5 8t2.5 17q6 23 2 40.5t-4 58.5q0 20 -4.5 23t-0.5 22q4 16 2 31.5 t3 25.5q4 6 11 9t13 3q16 0 22.5 1t22.5 -3q4 -2 12.5 3t24.5 -5q10 -4 18.5 -5t20.5 -1q27 2 45 -4t35 -6q16 0 23.5 -3t15.5 1q12 4 8 11t4 19q4 8 -1 22.5t-1 43.5q4 33 -4 35q-6 2 -11.5 1t-13.5 -1q-4 0 -15 -5t-34 -1q-10 0 -12 -8.5t-19 0.5q-10 4 -20 -2.5 t-22.5 -4.5t-24.5 -1t-29 -1q-12 2 -24.5 -2t-24.5 -4q-4 0 -14.5 1t-12.5 9q-4 18 -2 34t0 38q-2 41 0 59.5t5.5 27.5t4.5 16.5t-5.5 28t10.5 44.5q-8 25 -9.5 56.5t0.5 68.5q2 23 5.5 48.5t-0.5 43.5q-6 23 -7 35q0 14 2.5 21.5t4.5 12.5t2 13q-2 23 -1 36t3 24.5t4 21.5 t2 27q0 8 -3 16t3 31q4 14 1 20.5t-7 16.5q-4 12 -2 30.5t-9 16.5q-2 0 -8 5t-10 5q-23 0 -45.5 -8t-34.5 -14q-10 -4 -20.5 -14.5t-26.5 -8.5q-18 2 -19 -9t-18 -24q-29 -23 -47 -36t-41 -29q-10 -6 -20.5 -8.5t-22.5 -14.5t-23.5 -31.5t-15.5 -23.5zM674 655 q-6 -25 -6 -32q0 -8 2 -11.5t5 -5.5t3 -14q0 -16 -2 -45t0 -74q0 -18 -3 -28.5t-15.5 -14.5t-28.5 -4q-14 0 -37 4q-10 2 -23.5 -2t-36.5 -4q-25 0 -58.5 2t-76.5 0q-23 0 -33 7t-20 1q-16 -10 -22.5 -3t-18.5 7q-8 0 -25.5 -2t-35.5 -2q-53 0 -54 15q0 8 -2 17t2 17 q-2 10 3.5 13.5t7.5 19.5q4 20 8 23.5t4 23.5q0 23 33 88q6 12 12 16.5t11 9.5t7 13t-2 27q0 6 2 7t7.5 3t10.5 7t9 18q2 8 13.5 23.5t23.5 32.5t24.5 32.5t16.5 21.5q10 16 23.5 21.5t23.5 17.5q10 10 7 15.5t5 15.5q29 35 51 47q2 8 11.5 18.5t22 20.5t23.5 19.5t17 13.5 q10 10 24.5 16t22.5 12q16 12 25.5 14.5t19.5 0.5q4 -2 7.5 -15.5t4.5 -30t2 -32t1 -21.5q0 -16 5 -31.5t-5 -31.5q-6 -8 -3 -19.5t7 -23.5t6 -22.5t-4 -12.5q-6 4 -1 -14.5t3 -46.5q-2 -33 0 -71t-4 -67z" />
<glyph unicode="5" horiz-adv-x="948" d="M801 1157q0 10 4 21.5t-6 21.5q-6 6 -20.5 5t-33.5 -5q-10 -2 -14 -2h-8q-2 0 -6 1t-15 1q-6 0 -10 -3t-10 -5t-18.5 -3t-34.5 3q-29 4 -63 -6t-70 -6q-23 2 -61 -2t-60 -2h-21q-14 0 -29.5 1t-28.5 2t-20 1q-35 -6 -46 -8.5t-15 0t-8 5.5t-23 3q-29 -8 -43 -2t-20 -9 q-4 -10 -3 -19t5 -30q2 -16 2 -33v-43q0 -16 3 -29.5t-1 -29.5t-2 -26.5t6 -19.5t7 -18.5t-3 -23.5q-4 -12 -3 -28.5t4 -35t4 -38t-3 -33.5q-4 -29 -5 -47.5t-3 -28.5q-2 -12 -2 -24t8 -23q12 -14 49 -4l40 8t55 8q14 2 22 5t17.5 6.5t25.5 5.5t51 2q31 0 49.5 1t30.5 -7 q20 2 30.5 0t17.5 -6.5t16.5 -10.5t29.5 -12q45 -16 54.5 -28.5t13.5 -33.5q39 -4 45 -20t12 -27q16 -25 22.5 -44t14.5 -42q4 -14 6 -39.5t0 -48t-2 -39.5q0 -16 -1 -28.5t-5 -25.5t-12 -30q-6 -12 -4 -22t4 -19.5t-1 -17.5t-22 -14q-8 -20 -16 -35t-19.5 -26t-28 -22.5 t-40.5 -23.5q-14 -8 -34.5 -15t-42 -12.5t-41 -8.5t-34.5 -3q-25 0 -49 5t-33 12q-10 8 -17 9t-13.5 -1t-13.5 -3t-17 5q-20 10 -37 26q-10 10 -16 18.5t-10.5 14.5t-5.5 17.5t-3 25.5q0 8 -2 11.5t-5 5.5t-6 5t-7 15q-4 10 -2 24.5t-2 18.5q-2 2 -10.5 3t-18.5 1 q-16 2 -37.5 0t-42.5 -4q-16 -2 -27.5 1t-21.5 -1q-12 -4 -8 -18q0 -14 12 -36t12 -32q2 -23 15.5 -28t17.5 -11q16 -16 23.5 -27.5t13.5 -19.5q10 -12 18.5 -13t18.5 -14q10 -14 31.5 -20t33.5 -10q23 -8 43.5 -12.5t38.5 -8.5q23 -4 54.5 -8t48.5 -4q20 0 40.5 1t41.5 7 q33 8 47 7t41 12q20 8 43 8t45 24q20 20 39.5 31.5t48.5 40.5q14 14 32.5 34.5t33 39t22.5 33t6 20.5q-2 12 3 26.5t20 47.5q8 20 8 28t-3 14.5t-4 14.5t7 29q2 8 2 28t-4 44t-10.5 45.5t-12.5 33.5q-10 16 -22.5 37t-20.5 31q-12 16 -28.5 38.5t-45.5 39.5q-27 14 -49 22 t-45 19q-29 12 -41 12t-28 4q-20 4 -24.5 6t-20.5 4q-27 4 -44.5 1t-37.5 -3t-40 -4t-42 -10q-16 -4 -25.5 -1t-19.5 -1q-23 -10 -39.5 -13t-22.5 7q-10 18 -10 53v31q0 14 8 30q6 10 4 17.5t-7 13.5t-9 14.5t-2 20.5q2 16 0 31.5t4 29.5q8 16 12 35t0 35q-4 25 1 50.5 t9 29.5q8 10 23 10h45q41 0 55.5 4t30.5 -4q20 -10 47 -5t62 1q12 -2 30.5 -7t39 -9t41 -8.5t34.5 -2.5q12 2 34.5 -8t37.5 -10q16 -2 20 -2q6 0 16.5 2t8.5 10t2 25v55z" />
<glyph unicode="6" horiz-adv-x="962" d="M346 90q-16 16 -12 21.5t-6.5 13.5t-20.5 12t-20 25q-6 8 -9.5 22.5t-6.5 26.5t-6 22.5t-9 12.5q-10 4 -10 12q0 10 -2 21q-4 14 -4 28v33q0 16 3 41t7 47.5t19.5 37.5t19.5 30q8 20 22.5 33.5t24.5 25.5q14 16 39.5 37.5t58.5 34.5q31 12 49.5 13t42.5 1q18 0 26.5 -2 t15.5 -5t15.5 -7t26.5 -6q29 -4 37 -9.5t21 -13.5q23 -14 24.5 -19.5t12.5 -21.5q16 -23 33.5 -53.5t17.5 -54.5q-6 -4 -5 -12.5t5 -18.5l9 -22.5t5 -24.5q4 -41 1 -89.5t-19 -72.5q-10 -16 -12.5 -25.5t-3.5 -18.5t-5 -19.5t-16 -26.5q-23 -29 -38 -48.5t-46 -33.5 q-59 -27 -105 -27q-47 0 -93 19.5t-87 60.5zM920 330q2 31 -1.5 56.5t-13.5 68.5q-6 25 -12 45t-14 30q-10 14 -19.5 17.5t-7.5 13.5q2 12 -10.5 16.5t-22.5 20.5q-14 25 -40.5 40t-55.5 32q-12 6 -31.5 12t-41 11t-43 8.5t-36.5 3.5q-27 0 -43 -1.5t-26 -3.5t-19.5 -4 t-19.5 -4q-20 -4 -48 -11t-53 -24q-20 -12 -27 -26.5t-28 -12.5q-18 -8 -21 -22t-28 -33q-14 -10 -25.5 -31.5t-17.5 -19.5q-10 4 -9 19.5t3 31.5q2 12 3 38t7 38q6 10 4 17.5t-4 13.5t-3 12t5 16q8 12 8 21q0 10 -2 20.5t-2 20.5q0 12 6 28q10 23 12.5 40.5t14.5 48.5 q2 8 9 23t14.5 30.5t14.5 29t11 19.5t3 16.5t20 34.5q6 8 11 25.5t24 15.5q14 29 31.5 43t46 30.5t59 24t53.5 7.5q25 0 46.5 -9.5t41.5 -23.5q10 -6 19.5 -4t25.5 -17q12 -16 18.5 -27.5t16.5 -23.5q12 -18 14 -32.5t4 -30.5q2 -10 0 -32t4 -26q8 -4 28 1t38 1t43 -4t35 4 q8 4 3 28t-7 32q-6 16 -12.5 33.5t-8.5 27.5q0 4 -5 6l-10 4t-9 7.5t0 15.5q-12 14 -20.5 23.5t-22.5 19.5q-6 4 -25.5 18.5t-42.5 24.5q-10 6 -22 6q-10 0 -21 8q-12 10 -49 13.5t-72 5.5q-23 2 -39 0t-28.5 -6.5t-13.5 -7.5t-25 3q-18 -16 -49 -24t-60 -27 q-6 -4 -21.5 -15t-30.5 -25.5t-29.5 -28t-20.5 -21.5q-14 -20 -34.5 -40.5t-33.5 -43.5q-6 -12 -20.5 -41.5t-27.5 -61.5t-24.5 -60.5t-13.5 -39.5q-4 -8 -2 -13t4 -11t1 -12.5t-9 -14.5q-6 -18 -8 -47t-6 -61q-4 -41 -3 -90.5t1 -73.5q0 -47 5 -71.5t9 -38t7 -24t1 -28.5 q-4 -23 1 -34t11.5 -17t10.5 -12.5t2 -20.5q8 -25 20.5 -45t26.5 -39q16 -25 39.5 -45t48.5 -41q55 -45 129 -68.5t131 -23.5q43 0 83 6t71 19q16 6 38.5 17t36.5 21q18 14 34 20.5t24 31.5q4 12 9 14t10 3t10.5 3t9.5 12q10 25 18 36.5t14.5 17.5t9.5 12t5 18q6 43 18.5 69 t14.5 75z" />
<glyph unicode="7" horiz-adv-x="839" d="M315 -4q14 2 26.5 3t18.5 1q16 -2 12.5 5t0.5 18q8 20 0 28t-8 37q0 12 3 22.5t3 20.5t-3 25.5t-1 29.5q0 8 2 21.5t8 9.5q0 12 -3 20.5t1 22.5q4 10 10 62q4 23 13.5 36t15.5 31q4 10 11 20.5t11 20.5q-2 4 1 8t5 16.5t9.5 19.5t15.5 13q-2 10 8 24.5t21 27.5 q14 20 37.5 51t33.5 41q10 14 19.5 19t17.5 16q6 4 7 13t12 23q8 10 21 25.5t26 32.5q6 14 22.5 35.5t20.5 33.5q-6 18 3 19.5t13 11.5q0 16 8 28.5t6 18.5q4 14 15.5 30.5t17.5 41.5q2 8 2 14q0 8 4 21q-6 20 3.5 42.5t7.5 33.5q-4 16 0 23t4 22q2 14 4 21t-8.5 17.5 t-27.5 11.5t-42 1q-16 0 -32.5 -1t-24.5 -1q-29 0 -36 4t-22 -4q-8 -4 -45 -4q-20 2 -44.5 1t-43.5 -1q-12 0 -18 3t-23 3q-18 0 -19 -5t-26 -3q-4 0 -15.5 5t-21.5 1q-14 -4 -45 -4t-45 8q-20 -10 -38.5 -2t-30.5 0q-4 -4 -15.5 1t-44.5 5q-10 -10 -32.5 -4t-39.5 6 q-10 -8 -14 -5t-14 7q-4 2 -11.5 -3t-9.5 -9q-4 -10 0 -14.5t2 -14.5q-2 -14 -1 -23.5t1 -23.5t-2 -22.5t0 -12.5q4 -10 5 -16t6 -8q6 -4 26.5 4t34.5 6q16 -2 20.5 4t24.5 10q4 2 23.5 5t25.5 -3q12 8 22.5 12.5t24.5 -0.5q16 4 25.5 8.5t15.5 2.5t10.5 0t22.5 2 q6 0 16.5 -1t32.5 -1q12 0 23.5 5t25.5 5q14 6 62 6q10 0 18 1t19 1q6 0 14 -1t18 -5q6 -4 11.5 0t19.5 4q59 0 76 -10q10 -6 13 -18.5t3 -22.5q2 -29 1 -39t-5 -33q-16 -10 -14 -31.5t0 -39.5q-2 -14 -4 -18.5t-5 -5.5t-6.5 -2t-3.5 -9q-4 -14 -9 -32.5t-15 -35.5 q-20 -37 -32.5 -64.5t-29.5 -50.5q-4 -4 -9 -14t-11 -20.5t-13.5 -19.5t-13.5 -11q0 -12 -7 -18.5t-17 -20.5q-10 -4 -12.5 -18.5t-20.5 -24.5q-4 -6 -11 -20.5t-18 -30.5q-4 -4 -21.5 -22.5t-23.5 -24.5q-8 -8 -9 -18.5t-7 -20.5q-12 -14 -22.5 -38t-18.5 -40t-17 -16 q-6 0 -8 -17q-2 -8 -4 -15t-6 -22q-4 -10 -6 -28.5t-6 -28.5q-6 -18 -11.5 -26.5t-9.5 -26.5q-8 -18 -5 -30.5t-11 -23.5q10 -18 9 -25t-5 -24q-2 -10 -5 -22t-1 -23q2 -12 6 -12h16q4 0 9.5 3t15.5 5q4 0 8 -6t21 -2q6 2 14 -1t18 -3z" />
<glyph unicode="8" horiz-adv-x="1042" d="M106 168q10 -10 22.5 -31.5t31.5 -44.5q31 -37 57.5 -54.5t40.5 -25.5q10 -6 17.5 -3t15.5 -17q23 -8 49.5 -12.5t46.5 -8.5q41 -10 80 -13t61 -1q39 0 82 5t86 18.5t85 36t79 59.5q8 20 16.5 28.5t15.5 12.5t14 10t14 23q6 14 15 30.5t17.5 37t14.5 48t6 66.5 q0 25 -6 47t-17 45q-14 35 -21 58.5t-38 45.5q-14 10 -19.5 15.5t-6.5 8.5l-2 6t-7 9t-14 6t-16.5 2.5t-15.5 6.5t-9 18q-43 25 -68.5 40t-46.5 19q-43 10 -43 19q0 2 23.5 7t46.5 17q18 10 32.5 19.5t36.5 26.5q31 27 61.5 64.5t26.5 64.5q-4 18 10.5 35.5t10.5 50.5 q-2 31 -6 45t-9.5 25t-12.5 22.5t-15 36.5q-4 8 -25.5 18t-34.5 33q-8 14 -14 19t-12 6t-13.5 4.5t-19.5 13.5q-20 18 -46 22t-58 11q-8 2 -32 4t-71 2t-80.5 -5.5t-56.5 -5.5q-16 -27 -39.5 -25.5t-40.5 -10.5q-33 -23 -58.5 -39.5t-47.5 -42.5q-12 -16 -19.5 -27.5 t-12.5 -22t-9 -22.5t-10.5 -28.5t-11.5 -36t-3 -31.5q0 -12 4 -25.5t10 -32.5q8 -25 20.5 -44t35.5 -42q20 -20 30.5 -22t20.5 -14q23 -29 30 -31t13 -6q8 -6 24.5 -11.5t32 -8.5t26.5 -7t11 -6q0 -10 -35 -19q-16 -4 -22 -10t-29 -10q-25 -4 -33 -8t-11 -9.5t-6 -11.5 t-17 -14q-41 -20 -67 -52t-54 -73q-6 -10 -16.5 -28.5t-14.5 -32.5q-4 -16 -10 -22.5t-2 -29.5q4 -27 1 -43t-1 -34q2 -35 7 -46.5t9 -19.5q10 -16 8 -26.5t8 -20.5zM526 1174h41t45 -11q16 -18 23.5 -14t19.5 -4q4 -4 11.5 -12.5t13.5 -14.5q25 -25 41 -65.5t14 -91.5 q0 -14 1 -28.5t-3 -29t-5 -23t-2 -15.5t-5 -15t-10 -23q-8 -18 -14.5 -26t-10.5 -11.5t-8 -6.5t-10 -11q-16 -25 -30.5 -33t-29.5 -12q-31 -10 -44 -11t-36 -3q-37 -4 -54 4t-38 16q-33 12 -50 17.5t-34 23.5q-14 18 -16 29q-12 0 -15.5 4t-4.5 10t-1 12t-4 11 q-16 16 -16 49q0 35 -2 61q0 16 5 31.5t1 34.5q-4 29 14.5 45t28.5 26q4 4 7 10.5t5 10.5q33 43 73 54.5t99 11.5zM522 639q23 0 44.5 -5t35.5 -9q29 -4 36 -16.5t24 -14.5q31 -4 61.5 -34t42.5 -60q2 -8 8 -12.5t11.5 -10.5t10.5 -16t5 -31q0 -20 3 -27.5t5 -15.5t4 -22.5 t2 -47.5t-2 -64.5t-8 -53.5q-16 -63 -42 -92t-50 -37q-14 -4 -21.5 -9.5t-13.5 -10.5t-13.5 -10t-21.5 -11q-18 -8 -40.5 -14.5t-76.5 -6.5q-41 0 -90 7.5t-84 45.5q-10 10 -14 13.5t-9 5.5t-11.5 6t-20.5 16q-10 10 -9 25.5t-22 38.5q-18 18 -26.5 64t-8.5 96q0 41 9 80 q8 35 17 52t15 29q-2 6 -2 7q2 0 5.5 1t8.5 5t9 16q8 25 33.5 47.5t59.5 40t69.5 26.5t66.5 9z" />
<glyph unicode="9" horiz-adv-x="978" d="M575 -20q35 14 63 22t46 39q8 14 18.5 21.5t19.5 11.5t15 9t8 19q25 37 64 107t57 156q6 31 17.5 59.5t7.5 54.5q-2 14 0 24.5t5 21t7 22.5t4 33q2 12 -4 17t-4 24q2 16 4 47.5t2 50.5q-2 33 -7 54.5t-5 37.5q0 14 -3 16t-6 5.5t-5 10.5t0 31q2 23 -5.5 35.5t-9.5 32.5 q-4 37 -7 47t-7 11t-9 2.5t-14 21.5q-14 35 -40.5 63.5t-34.5 38.5q-6 8 -13.5 9.5t-13.5 1.5q-4 0 -8 3t-6 15q-23 16 -53.5 30.5t-59.5 22.5q-23 6 -47.5 11.5t-67.5 5.5q-63 0 -112 -12.5t-84 -26.5q-49 -20 -81 -48t-63 -55q-20 -16 -38.5 -43.5t-22.5 -52.5 q-2 -14 -5 -19t-6 -9.5t-7.5 -10.5t-8.5 -20q-4 -23 -4 -35t-6 -45q-2 -10 -1 -13.5t4 -4.5t5 -3t0 -8q-4 -23 0 -46t13 -40q6 -12 16 -12t8 -21q-2 -16 6 -30.5t18.5 -26.5t23 -21.5t20.5 -17.5q8 -10 13 -17t11 -14.5t15.5 -13.5t25.5 -12q20 -6 29.5 -7t26.5 -22 q41 0 87 -11t80 -9h31q12 0 26.5 2t32 7t44.5 17q41 18 77.5 44t55.5 40q23 23 25.5 36t13.5 11q8 -2 9 -13t3 -19q2 -4 0 -33t-2 -58q0 -18 -3 -35.5t-1 -23.5q4 -12 3 -20.5t-5 -14.5t-7.5 -13t-3.5 -15q2 -29 7.5 -40.5t-11.5 -27.5q-10 -8 -10 -14q0 -4 2 -9.5t2 -15.5 q0 -8 -8 -24q-12 -25 -17 -47.5t-16 -34.5q-12 -6 -18 -15.5t-9 -20.5t-5.5 -22.5t-8.5 -17.5q-16 -16 -37.5 -35.5t-64.5 -44.5q-20 -10 -44 -20.5t-77 -10.5q-55 0 -102 33q-29 18 -38 27.5t-5 25.5q-12 2 -16.5 5t-4.5 5v9q0 4 -6 8t-7 30.5t-5 45.5q0 4 -6.5 7t-12.5 1 q-10 -2 -25.5 -3t-29.5 -3q-18 -4 -27.5 1t-21.5 1q-10 -4 -18.5 -2t-18.5 0t-11 -8.5t-1 -10.5q0 -14 7 -29.5t13 -25.5q10 -18 23.5 -37.5t29.5 -32.5q14 -12 22.5 -15t18.5 -13q23 -23 30 -21t15 -8q12 -16 24.5 -9t14.5 -3q2 -6 19.5 -9.5t27.5 -7.5q23 -10 57 -13 t70 -3q8 0 24.5 2t35 5t38 7.5t31.5 10.5zM338 1141q39 23 70.5 28t58.5 5q59 0 72 -11q6 -6 10 -7t9 -3t14.5 -6t27.5 -18.5t22.5 -21.5t5.5 -11t1 -9q0 -2 10 -4q33 -10 37 -31.5t18 -50.5q25 -49 24 -73.5t5 -53.5q8 -35 7 -60.5t-3 -45.5q-2 -18 -16.5 -47t-26.5 -43 q-8 -10 -10 -15.5t-4 -10.5t-7.5 -10t-21.5 -13q-6 -4 -10 -8.5t-10.5 -10.5t-19.5 -14t-38 -21q-23 -10 -42 -17t-54 -9q-31 0 -55.5 7t-43 17.5t-31.5 19.5t-22 13q-14 6 -18 11.5t-5 10.5t-4 10t-16 11q-16 8 -30.5 33t-10.5 51q2 12 -1 17.5t-7 10.5t-8 13t-6 25 q-4 18 -5 33.5t-1 41.5q0 82 26 123q8 14 10.5 25.5t2.5 17.5q0 8 1 13.5t9 5.5q12 16 20.5 27.5t16.5 19.5t19.5 16.5t29.5 18.5z" />
<glyph unicode=":" horiz-adv-x="378" d="M109 -2q8 0 19 -1t22 -1q18 0 28 -2t17 -6q8 -4 17 -3t15 3l17.5 7t23.5 -5q0 16 -2 31.5t-2 35.5q0 16 4 25.5t4 23.5q0 10 2 21.5t-2 15.5q-4 6 -5 13.5t-17 7.5q-14 0 -26.5 -3t-22.5 -3q-18 0 -21 12q-14 4 -27.5 0t-17.5 2q-6 -2 -8 -7t-18 -3q-8 -8 -5 -17 q6 -18 7 -49q0 -16 -1 -34.5t-1 -30.5q-10 -8 -4 -16.5t4 -16.5zM109 561q8 0 19 -1t22 -1q18 0 28 -2t17 -6q8 -4 17 -3t15 3l17.5 7t23.5 -5q0 16 -2 31.5t-2 36.5q0 16 4 25t4 24q0 10 2 21t-2 16q-4 6 -5 13t-17 7q-14 0 -26.5 -3t-22.5 -3q-18 0 -21 12q-14 4 -27.5 0 t-17.5 2q-6 -2 -8 -7t-18 -3q-8 -8 -5 -16q6 -18 7 -50q0 -16 -1 -34.5t-1 -30.5q-10 -8 -4 -16.5t4 -16.5z" />
<glyph unicode=";" horiz-adv-x="378" d="M106 561q8 0 19.5 -1t21.5 -1q18 0 29.5 -2t18.5 -6q8 -4 16 -3t14 3q10 4 18.5 7t24.5 -5q0 16 -2 31.5t-2 36.5q0 16 4 25t4 24q0 10 2 21t-2 16q-4 6 -5 13t-17 7q-14 0 -26.5 -3t-22.5 -3q-18 0 -21 12q-14 4 -27.5 0t-19.5 2q-6 -2 -8 -7t-19 -3q-8 -8 -4 -16 q6 -18 7 -50q0 -16 -1.5 -34.5t-1.5 -30.5q-10 -8 -4 -16.5t4 -16.5zM92 -219q-12 -8 -19 -12.5t-20 0.5q-8 4 -14 -1.5t-10 -5.5q-20 0 -21 -12q0 -8 3 -16t5 -13q4 -8 9.5 -6t15.5 2t26.5 6.5t30.5 12.5q8 4 21.5 13t30.5 24q14 12 28.5 26.5l18.5 18.5q8 10 3 13t7 13.5 t20.5 24.5t12.5 31q6 27 12 32t8 15t4 21.5t2 27.5q0 18 3 27.5t4 14.5t1 9t-6 14q-14 20 -6 26.5t6 10.5q-12 23 -7 27t5 8q0 12 -3 18.5t-7 10.5q-4 6 -23.5 3t-29.5 -3h-21q-10 0 -18 -2q-16 -4 -35.5 1t-30.5 1q-4 -2 -5 -9.5t-1 -11.5q-2 -10 3 -13t-1 -24 q0 -16 3 -39.5t1 -46.5q0 -10 4 -13t13 -5q6 -2 13 -1t19 -3q8 -2 19.5 0t15.5 -2q8 -6 3 -17.5t-1 -28t-4 -19.5t-10 -17q0 -8 -1 -14.5t-5 -18.5q-8 -20 -20.5 -46.5t-51.5 -51.5z" />
<glyph unicode="&#x3c;" d="M623 918q-8 8 -25 -15q-12 -18 -27 -26q-4 -4 -4 -9q0 -2 -8 -10q-8 -4 -16 -10t-25 -23q-6 -4 -32.5 -26.5t-39.5 -40.5q-4 -8 -20 -17.5t-35 -23.5q-4 -2 -9 -7t-7 -9.5t-7.5 -6.5t-9.5 -8q-18 -20 -61 -55t-78 -62q-4 -2 -6 -6t-6 -6q-4 -4 -8 -5t-9 -5q-8 -4 -12 -8 t-8 -8.5t-3 -14.5t-1 -14q-6 -27 4 -33q8 -4 12 -9t8 -9q2 -2 3 -7q0 -4 6 -4q10 0 18 -8q14 -10 31.5 -24.5t36.5 -30.5q4 -4 10 -9.5t8 -9.5q4 -10 12.5 -11t10.5 -3q6 -6 21 -17.5t32.5 -24.5t34 -26.5t22.5 -19.5q23 -23 42.5 -41t25.5 -22q16 -16 25.5 -23.5 t13.5 -17.5q6 -16 22.5 -24.5t22.5 -19t13 -16.5t11 -2t11.5 7t11.5 7.5t9 8.5t5 12q0 6 7.5 9t11.5 7q4 6 7 17.5t7 15.5q8 10 -8.5 14.5t-20.5 12.5l-4 6h-2l-3 1t-9 7q-4 8 -18.5 14.5t-24.5 16.5q-8 14 -17 14q-8 0 -14 6q-2 2 -23.5 13.5t-33.5 27.5q-6 8 -20.5 17.5 t-30 18.5t-28.5 19.5t-19 20.5q-4 4 -16.5 14.5t-28 22.5t-30 23.5t-20.5 17.5q-18 16 -27.5 24.5t-15.5 16.5q14 12 28.5 28.5t25.5 22.5q16 14 40.5 30.5t34.5 39.5q23 18 55.5 40.5t43.5 32.5q18 23 37.5 33t23.5 10q6 4 14.5 6.5t16.5 18.5q4 10 27.5 15t27.5 14 q6 6 9 8t5 2h2l5 6q4 8 17 12t5 15q-4 4 -8 13t-8 15q-4 4 -11.5 9.5t-7.5 11.5q0 8 -5 9t-9 5t-7 9.5t-7 9.5z" />
<glyph unicode="=" d="M449 643q-41 0 -70 4t-37 4t-23.5 1t-25.5 -1q-16 2 -27.5 8.5t-23.5 2.5q-10 -2 -12.5 -1l-12.5 5q-12 -6 -15 -1t-20 3q-18 2 -25 5t-22 3q-16 0 -21 2t-10 0q-6 -2 -8 -4t-2 -19q0 -6 -2 -13t-2 -17q0 -8 5 -27.5t3 -24.5q-4 -12 4 -20q4 -2 10.5 3t10.5 5t7 1t7 -3 t16.5 3t28.5 3q6 -2 21.5 5.5t36.5 4.5q6 -6 43 -2q16 2 41.5 4.5t29.5 2.5t7.5 2t9.5 -2q16 4 39 4h47q31 0 55.5 -2t30.5 -7q6 4 24.5 -1t28.5 -3q16 4 24.5 0t14.5 -4q12 0 22.5 1t22.5 -3q16 -4 18 -4h7q16 0 22 -4t16 -2q6 2 12.5 -1t12.5 -1q8 4 7 25.5t-1 29.5 q0 16 2 39t-6 29q-4 4 -11 1t-18 -3q-10 0 -27.5 -6t-37.5 -4q-10 2 -26.5 -4.5t-27 -2t-19.5 0t-17 -4.5q-6 -4 -48 -7t-89 -3zM457 338q31 0 55.5 -2t30.5 -6q6 2 24.5 -2t28.5 -2q16 4 24.5 -1.5t14.5 -5.5q12 0 16 -1t7.5 -2t5.5 -2t12 1q10 4 14 5.5t15 -7.5 q12 -6 21 -5t19.5 -1t14.5 -2q6 0 12 -2q6 16 2 30.5t0 31.5q4 18 2 40.5t-16 18.5q-12 -4 -14.5 -2t-22.5 -2q-10 -2 -18.5 -4t-28.5 0q-10 4 -26.5 -2t-26.5 -4q-10 4 -19.5 0t-17.5 -4q-6 -2 -48 -4.5t-89 -2.5q-41 0 -70 4.5t-37 4.5t-23.5 -2.5t-25.5 0.5 q-16 0 -27.5 5t-23.5 1q-10 -2 -12.5 0t-12.5 6q-12 -8 -15 -2t-20 4q-18 -2 -25 2t-22 4q-16 0 -20 3t-9 1l-9 -3t-3 -15q0 -6 -2 -16.5t-2 -20.5t5 -26.5t3 -20.5q-6 -23 11 -23q4 0 19 6t19 0q4 -2 11.5 3t23.5 1q6 -2 21.5 6.5t36.5 6.5q6 -4 43 0q16 2 41.5 3t29.5 1 t7.5 5t9.5 1h86z" />
<glyph unicode="&#x3e;" d="M279 901q-6 10 -13.5 16.5t-11.5 2t-10 -8.5t-10.5 -8t-9.5 -8t-5 -12q0 -6 -7 -9.5t-11 -7.5q-4 -6 -7.5 -17t-7.5 -15q-8 -10 8.5 -14.5t20.5 -12.5l2 -6h2t5 -1t9 -7q4 -8 18.5 -14.5t24.5 -16.5q8 -14 17 -14q8 0 14 -7q2 -2 23.5 -13t34.5 -28q6 -8 20 -17 t29.5 -18.5t29 -19.5t19.5 -20q4 -4 16.5 -14.5t27.5 -23t29.5 -23.5t20.5 -17q18 -16 27.5 -24.5t15.5 -16.5q-14 -12 -28.5 -28.5t-24.5 -22.5q-16 -14 -41 -30.5t-35 -39.5q-23 -18 -55.5 -40.5t-42.5 -33.5q-18 -23 -38 -33t-24 -10q-6 -4 -14 -6t-16 -18 q-4 -10 -28 -15.5t-28 -13.5q-6 -6 -9 -8t-5 -2h-4l-2 -6q-4 -8 -17.5 -12.5t-5.5 -14.5q4 -4 8.5 -13t8.5 -16q4 -4 11 -9t7 -11q0 -8 5 -9t9.5 -5.5t7.5 -9.5t7 -9t11 0t13 14q12 18 27 27q4 4 4 6q0 4 8 13q8 4 16.5 10t24.5 22q6 4 33 26.5t39 41.5q4 8 20.5 17t34.5 24 q4 2 9.5 7t7.5 9t7 6t9 9q18 20 61 55t78 61q4 2 6 6.5t7 6.5q4 4 8 5t8 5q8 4 12 8l8 8t3 14.5t1 14.5q6 27 -4 33q-8 4 -12 9t-8 9q-2 2 -2 6t-6 4q-10 0 -19 8q-14 10 -31.5 24.5t-35.5 31.5q-4 4 -10.5 9t-8.5 9q-4 10 -12 11.5t-10 3.5q-6 6 -21.5 17t-33 24.5 t-34 26.5t-22.5 20q-23 23 -42 41t-25 22q-16 16 -26.5 24.5t-14.5 18.5q-6 16 -22.5 24.5t-22.5 18.5z" />
<glyph unicode="?" horiz-adv-x="819" d="M653 1243q-8 4 -25.5 10.5t-27.5 10.5q-20 6 -35.5 10t-34.5 8q-10 2 -14 5t-8 5t-11.5 1t-21.5 -7q-16 4 -28.5 3t-28.5 1q-10 0 -33 -1t-51 -5q-33 -6 -63.5 -14t-49.5 -15q-20 -6 -18 -15t-8 -15q-16 -10 -33 -24.5t-33 -37.5q-10 -12 -12 -16t-15 -8q-8 -6 -9 -17.5 t-11 -27.5q-6 -10 -10 -19.5t-8.5 -15.5t-2.5 -13.5t-6 -23.5q-6 -10 -8 -27.5t-2 -27.5q0 -16 1 -25.5t11 -9.5q4 0 28 2t40 0q14 -2 20.5 3t16.5 1q23 -6 30 -1t9 9q2 12 -1 24.5t-5 33.5q-2 16 6 28t0 29q-6 14 -1 39.5t15 50.5q6 14 11 15t16 18q14 25 34.5 33t36.5 12 q6 2 17.5 5t24 5t21.5 1t11 -7q16 -2 27.5 2t21.5 4q18 0 38 -3t26 -13q12 -10 26.5 -16.5t28.5 -10.5q18 -6 18 -18t9 -23q10 -16 18 -26.5t16 -26.5q10 -25 13.5 -45.5t5.5 -43t1 -50t-11 -43.5q-8 -10 -7.5 -34t-9.5 -40q-18 -6 -18 -27q0 -18 -19 -35q-10 -10 -6 -17 t-8 -11q0 -4 -10 -15.5t-23.5 -25t-28 -27.5t-24.5 -26q-12 -14 -27.5 -18.5t-19.5 -21t-17.5 -26.5t-25.5 -23q-10 -10 -20.5 -22t-20.5 -29q-6 -10 -11 -16t-7 -17q-4 -12 -10.5 -15t-8.5 -11q-4 -10 -8 -24.5t-8 -26.5q-6 -16 0 -17.5t-6 -17.5q-8 -10 -5 -23.5t3 -31.5 q0 -12 7 -15.5t11 -3.5q6 -2 15.5 0t13.5 4q14 4 20 0t16 -2q8 2 18.5 0t16.5 -2t14.5 3t6.5 13q-2 16 0 39t-2 39q2 16 6 25.5t0 18t1 12.5t7 18q4 25 16.5 46.5t22.5 35.5q12 18 22.5 30.5t18.5 22.5q16 18 38.5 40t35.5 36q10 10 16 7t21 22q8 14 12 18t18 16 q16 14 37 38t23 34q4 18 18 22.5t16 24.5q2 16 12.5 31.5t14.5 46.5q2 12 9 39t3 53q-4 23 2.5 38t-10.5 22q-6 8 -8 14t-2 10q0 6 -1 11.5t-7 13.5q-8 0 -14.5 15.5t-32.5 37.5q-14 12 -28 24.5t-30 22.5zM414 139q-16 2 -39 -3t-37 9q-8 8 -21.5 5t-42.5 -7 q-10 -2 -10 -14t2 -16q8 -20 3 -41t-5 -43q-10 -8 -4 -16.5t8 -16.5l31 -4q2 0 23.5 -2t25.5 -2q6 0 20.5 2t24.5 0q8 0 22.5 2t12.5 8q-4 20 -3 32.5t3 23t4 21.5t0 27q0 6 2.5 18.5t-20.5 16.5z" />
<glyph unicode="@" horiz-adv-x="1349" d="M956 758q-2 14 5.5 21t-0.5 18q6 8 6 16q0 10 -2 21q-6 2 -24.5 9t-25.5 7q-14 -4 -18 -6t-16 -2q-14 0 -17 -4q-8 -4 -6 -25.5t4 -32.5q4 -12 -2 -14t-10 0q-10 4 -21.5 22.5t-27.5 26.5q-27 14 -42.5 21.5t-47.5 11.5q-20 2 -44 -2t-40 -8q-25 -10 -42.5 -23.5 t-47.5 -17.5q-6 -2 -10.5 -7.5t-9.5 -12.5t-13 -17t-27 -25q-6 -6 -14 -23.5t-15.5 -39t-12.5 -43t-3 -35.5q0 -14 1 -32.5t4 -35t8.5 -30t15.5 -17.5t11 -17t11 -24q16 -20 29.5 -23t22.5 -9q27 -25 50 -27t27 -6t28 -7.5t34 -3.5q25 -2 49.5 4.5t34.5 12.5q10 4 29.5 16.5 t31.5 28.5q23 29 31 27q6 -2 9 -20.5t3 -41.5q0 -31 27 -27q16 4 22 5q8 0 31 -13q10 -4 38 3.5t50 4.5q10 0 26.5 4.5t34 11.5t33 15t23.5 17q16 16 44 36.5t44 57.5q16 41 29.5 69.5t19.5 69.5q-6 16 -4 32.5t4 34t2 35.5t-10 41q-16 2 -10 11.5t2 38.5q-4 16 -17.5 54 t-42.5 83q-12 18 -18 24.5t-10 7.5t-8.5 2t-10.5 9q-2 16 -10 18t-21 17q-12 16 -33.5 37.5t-49.5 27.5q-47 12 -68 31.5t-45 23.5q-39 4 -97.5 14.5t-97.5 14.5q-23 4 -55.5 -1t-65.5 -5q-27 0 -63.5 -12.5t-62.5 -20.5q-25 -8 -50.5 -9t-31.5 -17q0 -4 -13.5 -14.5 t-31 -23t-38 -25.5t-36.5 -23q-29 -18 -45.5 -36t-27.5 -34t-19.5 -29.5t-18.5 -23.5q-23 -20 -28 -36t-15 -34q-4 -8 0 -11t-2 -17.5t-11 -17.5t-9 -5t-6.5 -7t-2.5 -20q0 -14 -4 -26.5t-9 -26.5t-10 -30.5t-5 -39.5q-2 -39 2 -69.5t0 -65.5q-2 -14 1 -20t8 -10.5t8 -8.5 t3 -10q-4 -23 -6 -40t21 -48q6 -10 6 -14t-1 -7.5t0 -8.5t9 -15q16 -23 28.5 -43.5t22.5 -36.5q14 -23 23.5 -28t19.5 -21q6 -10 14.5 -7t16.5 -16q8 -20 18.5 -21t30.5 -18q31 -25 59.5 -36t55.5 -27q29 -20 99.5 -37.5t156.5 -21.5h28q23 0 48.5 2t50 4t37.5 8q10 4 16 4 t9 -2t7 -2t13 4q41 23 58 25t40 8q20 6 23.5 15t27.5 18q18 6 31.5 15t23.5 17q12 10 -2 33q-4 8 -12 13.5t-18 11.5q-8 4 -13.5 13t-15.5 9t-17.5 -11t-17.5 -22q-16 -18 -24.5 -26t-32.5 -23q-10 -4 -25.5 -13t-38.5 -13q-4 0 -14 -6.5t-27.5 -12.5t-45 -11t-66.5 -5 q-20 2 -26.5 1t-28.5 1q-6 0 -10.5 4t-9.5 7t-13 5t-27 0q-14 -10 -21.5 -11t-11.5 2t-8 8t-12 7q-66 16 -97.5 38t-60.5 42q-61 41 -95 96.5t-48 90.5q-4 4 -3 7t1 5q0 4 -3 11t-16 22q-8 16 -9 38.5t-5 47.5q-2 10 0 18t-2 27q-4 12 -6 21t-4 18.5t-1 23t5 33.5q2 8 5 12 t5 9.5t4 15.5t0 31q-2 27 11.5 46t17.5 54t17.5 66.5t23.5 42.5q16 23 25.5 36t27.5 25q14 10 19.5 15t9.5 12.5t15 17.5t40 29q33 20 53.5 33.5t34.5 20.5t24.5 9t20.5 2q14 -2 34.5 10.5t51.5 16.5q27 4 41 3t51 -3q51 -2 77 -9.5t38 -14.5t17 -12t18 -5q12 0 31.5 -8.5 t40 -18.5t38 -21.5t25.5 -15.5t19.5 -17t22.5 -28.5t22.5 -32t19.5 -24.5q23 -23 30 -46.5t21 -62.5q6 -16 12.5 -27t11.5 -23.5t6 -32t-3 -52.5q-2 -10 6 -18t-2 -31q-4 -12 -5 -41t-18 -72q-23 -31 -36 -49t-29 -28q-14 -20 -45 -27.5t-56 -9.5q-8 0 -17 1t-18.5 8 t-15.5 21.5t-6 43.5q0 47 -2 72.5t0 58.5q2 53 6 82.5t10 52.5zM563 518q-4 10 -8 40t-4 52q0 37 8 68t25 49q6 6 7 11t2 11.5t5 12.5t14 12q23 14 37.5 17.5t40.5 3.5q29 0 41 -6.5t27 -14.5q16 -10 32.5 -24.5t22.5 -26.5q4 -10 20.5 -29.5t12.5 -36.5q-8 -29 -3 -49 t1 -34.5t-8.5 -34t-20.5 -41.5q-8 -10 -7 -14.5t-9 -14.5q-16 -16 -46 -35.5t-57 -17.5q-29 2 -41 6t-17 8t-8 7t-14 3q-10 0 -11 3t0 6.5t2 6.5t-3 3q-23 6 -29 24.5t-12 34.5z" />
<glyph unicode="A" horiz-adv-x="1349" d="M485 307q0 -4 -1 -8t5.5 -10t16.5 -4t29 2q20 0 23 4t22 6q25 2 41 9t32 -3q14 8 27 8h22t34 1t34 -1q23 -4 31 3.5t22 0.5q16 -6 27.5 1.5t40.5 7.5t41 -3.5t29 1.5q14 4 30 4q18 0 31 -11q10 -8 13 -19t12 -32q6 -16 13 -26.5t5 -36.5q-2 -18 3 -27.5t13.5 -19 t16.5 -25.5t12 -49q4 -23 9 -34t7 -28q0 -8 -2 -15t11 -9q4 0 19 -2t20 0q12 4 27.5 3t19.5 1q12 6 23 1t22 -3q6 0 19 -2t24 -2q14 0 14 12q0 16 -10 29.5t-19 27.5q-4 10 -16 33t-18 33q-10 14 -11.5 22.5t-1.5 14.5t-2 11t-12 11q-14 8 -18.5 19.5t-6.5 24t-6 27.5 t-18 34q-16 16 -25.5 47t-32.5 65q-10 18 -19 38t-15.5 38.5t-12.5 32.5t-10 18q-6 6 -7 14.5t-7 16.5q-14 35 -27.5 67.5t-21.5 53.5q0 20 -6.5 35.5t-8.5 32.5q-10 10 -7 13t-9 7q-8 4 -17.5 30.5t-17.5 55.5q-6 16 -17.5 44t-19.5 48q-10 27 -17 46.5t-5 35.5 q-23 18 -20 33.5t5 25.5q-8 23 -18 27t-8 23q0 14 -1 17t-3 3t-5.5 2t-5.5 14.5t-7 20.5t-7 18q-6 49 -18 54q-4 2 -16.5 1t-22.5 -1q-29 0 -45.5 -5.5t-53.5 -5.5q-8 0 -41.5 -2t-54.5 9q-4 2 -18 2t-29.5 -2t-30 -3.5t-20.5 -1.5h-17q-4 0 -9 1.5t-12 2.5t-22 1 q-16 0 -31.5 8t-29.5 2q-29 -12 -52.5 -1t-66.5 7q-12 -2 -21.5 0t-15.5 4q-10 0 -20 2t-21 2q-14 4 -22 -6q-4 -4 0 -11t4 -22q0 -14 2 -18t-6 -27q-4 -12 0 -10t4 -14q0 -10 2 -17.5t8 -9.5q16 -4 29.5 2t34.5 10q16 4 25 7.5t34 5.5q16 2 37.5 6t66.5 4q23 0 28 5t16 5 q14 0 31.5 -3t33.5 1q14 4 28.5 6t35.5 0q4 0 18 1t29 1q16 0 28.5 -1t12.5 -5q-2 -8 -4.5 -18.5t-6.5 -18.5q-4 -12 -9 -21.5t-9 -19.5t-12.5 -26.5t-18.5 -26.5t-9 -20.5t-7 -32.5q-4 -10 -19.5 -42t-29.5 -57q-14 -31 -21.5 -48t-13.5 -34q-4 -6 -8 -17t-9 -21 q-6 -8 -13 -22.5t-11 -25.5q-14 -33 -40 -81t-42 -82q-43 -90 -64 -123q-4 -6 -11 -18.5t-17 -22.5t-12.5 -29.5t-14.5 -48.5q-10 -20 -26.5 -49t-24.5 -43q-18 -14 -18 -25q0 -8 -5 -20q-2 -4 -17 -25.5t-28 -44.5q2 -20 -5 -21t-19 -18q-10 -14 -28.5 -46t-18.5 -42 q0 -6 18 -6t29 -2q16 -2 19 2t28 0q14 -2 20.5 -4t11.5 -3t11 -1t18 4q10 2 17 2q6 0 20 2q10 2 10 16v35q0 31 12.5 39t6.5 27q-4 12 7 38.5t24 57.5q10 31 17 53.5t11 32.5t13.5 12t7.5 25q2 16 10 34.5t18 39.5q8 18 14.5 27t12.5 36q12 51 27 59q16 8 39.5 9.5 t33.5 -0.5q14 -2 24.5 0t22 5t25.5 4t39 -1q29 -4 43 1t25 5q18 0 27 -1t16.5 -3t15.5 -2h20q18 2 45 -1t50 -3q18 0 42.5 -2t43.5 -6q10 -2 15 -15.5t9 -21.5q2 -6 9.5 -20.5t14.5 -31t14 -32t11 -23.5q4 -10 -28 -10q-18 0 -27.5 -3t-30.5 -1q-14 2 -25 0t-30 -2 q-10 0 -20.5 4t-24.5 2q-6 0 -15.5 -3t-25.5 -3t-24.5 3t-20.5 1q-25 -2 -39 3t-35 3q-10 0 -15 1t-9 2t-11.5 3t-23.5 2q-18 0 -31.5 3t-24 5.5t-26.5 2.5q-14 0 -18 -5q-10 -10 -11 -34q0 -8 1 -18.5t1 -18.5v-23zM508 754q10 25 20.5 47t16.5 38.5t13 36t17 37.5 q8 14 20.5 25.5t12.5 28.5q0 20 5 24t12 21q4 12 15 30.5t15 30.5q10 29 15.5 40t17.5 11q8 0 16.5 -21.5t14.5 -35.5q10 -20 18 -38.5t8 -31.5q0 -20 4.5 -30.5t8.5 -15.5t9 -7t7 -4q6 -10 0 -10t0 -21q2 -8 11.5 -11t15.5 -13q16 -31 22 -49.5t11 -26.5q20 -29 21 -47.5 t1 -40.5q16 -10 20.5 -21.5t12.5 -35.5q4 -8 9 -21.5t-7 -17.5q-10 -4 -18.5 -7.5t-36.5 -5.5q-20 -2 -38 -3t-46 3q-14 2 -28.5 0t-61.5 -6q-16 -2 -46 2t-47 4q-10 0 -17 3t-15.5 5.5t-17.5 3.5t-25 -3q-14 -4 -25.5 1t-9.5 15q2 18 6 26.5t7 11.5l6 6t5 11q4 16 11.5 33 t13.5 29z" />
<glyph unicode="B" horiz-adv-x="1032" d="M199 422q0 -37 -4.5 -62.5t-14.5 -35.5q-4 -14 2 -31t6 -45v-17v-2q0 2 -1 0t-1 -16q0 -12 -3 -17.5t-5 -11.5t-3 -14t3 -27q4 -27 4 -39q0 -10 -3 -15t-6 -9t-3 -17q0 -23 -6 -37t-2 -22q4 -10 26.5 -6t47.5 4q10 0 23 -1t46 -1q20 0 31.5 -6t48.5 -2q23 4 57.5 -2 t51.5 -6q53 0 105 4t71 14q35 18 55 18t29 17q4 10 20.5 11t38.5 22q12 10 24.5 17t24.5 16.5t25.5 25.5t27.5 45q10 20 19.5 35.5t15.5 28.5q8 23 7 42t1.5 31.5t3.5 21.5t3 18t2 22v33q2 10 -7.5 23t-13.5 22q-12 29 -14 53t-17 28q-16 25 -23 36.5t-28 33.5 q-4 4 -16 13.5t-35 25.5q-10 8 -25.5 15.5t-25.5 11.5q-18 12 -27.5 16t-15.5 4h-10t-19 4q-4 2 -11 5t-13 5q-12 2 -33 -2q-12 12 -20.5 13.5t-16.5 -0.5t-18 -2q-8 0 -23 10q8 10 19.5 9t39.5 18q23 14 34 16t22 14q8 14 19 19.5t24 17.5q2 8 11 18.5t18.5 19.5t17.5 19.5 t10 22.5q4 23 9 38t20 34q4 10 4 20v21v34q0 12 -4 33t-8 37q-31 35 -53.5 67.5t-57.5 53.5q-20 4 -35.5 11t-31 13.5t-32 8.5t-34.5 -2q-12 4 -27.5 9t-30.5 -5q-18 2 -48.5 6t-57.5 4q-53 0 -115.5 -8t-105.5 -21q-8 -2 -11.5 -10t-3.5 -18q2 -14 6.5 -30.5t8.5 -29.5 q0 -29 9 -59.5t-5 -52.5q0 -16 8 -30.5t-2 -27t0 -27t12 -30.5q4 -45 4 -68v-49q0 -14 2.5 -37.5t4.5 -50.5t0 -51.5t-9 -38.5q-6 -12 -5 -19.5t5 -20.5t8.5 -38.5t4.5 -75.5v-63zM504 1217q12 -2 25.5 -11.5t27.5 -9.5q8 -10 20.5 -18.5t34.5 -32.5q35 -37 35 -92 q12 -12 17.5 -33t5.5 -43v-10q0 -16 -8.5 -42t-12.5 -40q-6 -20 -19.5 -34.5t-29.5 -31.5q-23 -23 -42 -37t-50 -18q-41 -25 -60.5 -30t-35.5 3q-23 8 -32 -1t-22 -3q-12 8 -20 4t-19 6q-14 16 -14 29v25q0 10 2 21t2 34t5 36t1 36q-2 12 -1 16t2 9t3.5 15.5t2.5 34.5 q0 16 -8.5 38t1.5 42q-4 33 0 41t4 27q-2 23 3.5 42t15.5 28q8 6 14 5t19 -1q10 0 19 4t30 4q25 0 38 -2t46 -10zM309 377q8 16 8 24q0 10 -2 15.5t-5 9.5t-3 12q2 23 7 28t3 21q-4 14 -4 19v8v12v29q-2 23 1 55.5t10 42.5q8 12 43.5 17.5t76.5 7.5q31 2 47.5 -1t24.5 -6 t13.5 -5t17.5 2q16 2 33.5 -5.5t27.5 -7.5q31 -2 67 -27.5t50 -37.5q8 -8 22.5 -24.5t27.5 -37t21.5 -43t8.5 -43.5q0 -25 4 -42t9 -32.5t6 -29.5t-7 -33q2 -10 -2 -17t-8 -13.5t-7 -11.5t1 -11q-4 -53 -22.5 -81t-47.5 -56q-45 -45 -93 -60.5t-116 -19.5q-29 0 -55 6 q-10 2 -14 5t-7.5 6t-7.5 5t-14 2h-14t-19 4q-10 4 -16 5.5t-15 9.5q-6 6 -16 13t-14 36q-2 10 -6.5 33.5t2.5 36.5q4 6 3 20t-7 25q-8 4 -10.5 22.5t-2.5 42.5v70z" />
<glyph unicode="C" horiz-adv-x="1460" d="M965 -39q12 2 31.5 6t39 8.5t34.5 7.5t22 5q12 4 14 11t10 5t12.5 1l10.5 7t13 7.5t22 0.5q10 12 21 15.5t29.5 15.5t33 15.5t18.5 15.5q4 10 10 12t23 21q10 12 24.5 18t20.5 23q4 14 12 19t12 13q2 6 17 17q2 14 11 27.5t3 21.5q-8 10 -21.5 11t-23.5 1q-16 -2 -16 2 t-11 4h-20t-25 2q-16 4 -26 -14q-6 -10 -10.5 -18.5t-10.5 -12.5t0 -14t-18 -22q-10 -10 -13.5 -28t-23.5 -34q-16 -14 -31.5 -23.5t-34.5 -13.5q-16 -4 -17 -12t-11 -12q-12 -6 -32 -18.5t-30 -2.5q-10 -2 -14 -3t-14 -5q-14 -4 -24.5 -11t-29.5 -12q-12 -4 -31.5 -5 t-29.5 -1q-16 0 -28.5 -4t-20.5 2q-12 10 -27.5 3t-34.5 -7q-10 0 -41.5 6t-52.5 11q-18 4 -39.5 18t-46.5 14q-6 -4 -11 0t-8 10.5t-7.5 13.5t-10.5 9q-20 8 -36.5 11t-32.5 30q-6 10 -13.5 7t-3.5 18q-12 6 -30.5 22.5t-36 35.5t-34 40.5t-24.5 40.5q-6 12 -8 17t-2 7 q0 4 -1 7.5t-7 13.5q-31 43 -30 81t-11 70q-6 16 -13.5 19.5t-9.5 23.5q6 14 6 37t-10 45q-4 12 -4 23v35q4 55 15.5 72.5t7.5 35.5q-2 8 -1 12.5t4 7.5t5 7t2 14q0 23 4 32t12 21q2 12 6.5 15.5t7.5 6.5t6 9t7 21q6 23 13 31t24 26q14 16 21 33.5t24 36.5q14 16 19 27.5 t26 27.5q12 10 20.5 15t22.5 20q16 16 45 31.5t55 27.5q18 8 25.5 10t11.5 2h8q6 0 23 5q20 8 33.5 10t23.5 2h23q10 0 22 6q18 8 28.5 3t20.5 -5q33 0 53.5 -2t34 -4t23.5 -5t23 -5q14 -4 37.5 -20.5t33.5 -18.5q20 -4 28.5 -7.5t27 -17.5t24.5 -19.5t27 -25.5 q12 -12 24.5 -31.5t22.5 -39t17 -37t11 -25.5q2 -6 8.5 -22.5t20.5 -16.5q4 0 21.5 2t48.5 2q14 0 21 -2t22 2q16 4 28.5 9t12.5 12q0 10 -7.5 14t-5.5 33q-8 16 -19 37.5t-22 37.5q-10 2 -15 10.5t-7 10.5q-29 10 -39 25.5t-45 42.5q-10 8 -17.5 6t-17.5 2q-23 8 -28 24.5 t-19 20.5q-4 2 -15.5 1t-21.5 3t-18 8t-19 8q-16 10 -33.5 18.5t-35.5 10.5q-14 2 -21.5 1t-29.5 7q-14 4 -37 3t-39 5q-16 2 -31 2h-31q-25 0 -34 -1t-37 -1q-18 -6 -34 -7t-30 -2t-31.5 -5t-38.5 -16q-23 -2 -36 -6.5t-23 -10.5q-6 -4 -19.5 -9t-27.5 -15 q-12 -2 -19.5 -7.5t-17.5 -11.5q-23 -4 -38 -13t-31 -20q-4 -23 -13.5 -21.5t-25.5 -6.5q-16 -10 -52 -44t-61 -61q0 -16 -5 -22t-11.5 -9.5t-12.5 -4.5t-8 -5q-4 -6 -10 -20t-14.5 -29.5t-17.5 -31t-17 -21.5q-23 -18 -21 -37.5t-8 -50.5q0 -4 -3 -20.5t-8 -37t-10.5 -40 t-9.5 -27.5l2 -64q2 -16 2 -32t-6 -35q-4 -14 1 -34.5t14.5 -42t16.5 -42t7 -35.5q0 -25 4 -27.5t8.5 -1.5t7.5 -2.5t-3 -23.5q-2 -10 8 -25.5t24.5 -34t28.5 -39t20 -40.5q4 -14 14.5 -23.5t22 -16.5t21.5 -13.5t16 -14.5q8 -10 26.5 -26.5t40 -33t42 -29.5t30.5 -15 q14 -4 21.5 -7.5t13.5 -7.5t14.5 -9t26.5 -9q39 -10 90.5 -21.5t98.5 -15.5q41 -4 65 -4h62h28t35 1t36.5 2t27.5 3z" />
<glyph unicode="D" horiz-adv-x="1449" d="M1368 625q12 16 2 32q-2 23 -3 50.5t-7 50.5q-16 27 -18.5 57.5t-16.5 58.5q-12 8 -20.5 32t-10.5 36q-10 4 -19 16.5t-17.5 26.5t-15.5 27.5t-11 17.5q-12 12 -24.5 28.5t-57.5 43.5q-20 10 -33.5 18t-30.5 31q-12 16 -26.5 20.5t-32.5 14.5q-14 8 -26.5 11t-28.5 13 q-10 6 -26.5 13.5t-20.5 9.5q-6 2 -11.5 -4t-21.5 14q-10 -4 -19.5 -2t-19.5 4q-23 4 -27 5l-20 5q-25 6 -66 12.5t-75.5 3.5t-85.5 7q-37 -10 -74 -11t-72 -5q-10 10 -22.5 5t-22.5 -10q-6 -12 -15.5 -4.5t-17.5 2.5q-4 -16 -18 -9t-25 5q-20 -8 -42.5 -10t-45.5 -12 q-8 0 -18 -1t-15 5q-6 -4 -14 -7t-12 -9q-8 -8 -10 -14.5t-1 -12.5t3 -14.5t4 -20.5q4 -12 12 -14t-2 -31q-4 -10 6 -26.5t8 -24.5q2 -25 0 -32t-4 -7v-2l4 -14q-6 -14 -6 -25q0 -8 2 -18.5t4 -25.5t2 -40q-4 -14 2.5 -26.5t-4.5 -26.5q0 -10 -5 -24.5t5 -22.5 q0 -29 7.5 -56.5t5.5 -56.5q-10 -4 -11 -8q0 -4 3.5 -9.5t6.5 -10.5t1 -11t-9.5 -17.5t2.5 -23.5v-217v-31q0 -18 -10 -32q-14 -10 -7 -20.5t9 -20.5q-2 -12 -2 -25q0 -10 -1 -23.5t-2 -32t-3 -44.5q-2 -16 7 -26.5t-5 -27.5q-4 -10 -1 -23t-1 -31.5t-5 -33t9 -14.5 q16 0 23.5 3t27.5 -3q10 -4 34 -2t46 2q16 0 34.5 2t39.5 -6q8 -4 23.5 -6t25.5 -2q20 0 38.5 -1t33.5 1q27 2 35 -4.5t18 -3.5q20 2 39.5 3t65.5 1q18 0 44.5 -1t45.5 7q10 -4 23 1t24 1q23 10 35 12t28 10q18 10 26.5 8t18.5 7q8 6 24.5 10t26.5 16q23 4 38.5 16.5 t33.5 16.5q12 2 16.5 7t7.5 9.5t8 8.5t17 6q23 18 37 22t31 27q12 16 24.5 26.5t20.5 32.5q29 18 46 42t34 53q2 2 2 6t6 8q4 6 7 14t9 15q2 10 10.5 18t15.5 17.5t12 18.5t5 23q6 4 4 9q12 10 8.5 25.5t0.5 29.5q16 33 16 63v56zM1190 489q0 -16 -3 -30.5t-13 -28.5 q-6 -4 -7 -12q0 -8 -2 -12q-14 -39 -31.5 -73t-46.5 -63q4 -10 0 -15t-10 -13q-4 -4 -10 -11.5t-8 -11.5q-6 -16 -13.5 -22.5t-19.5 -14.5t-22.5 -23.5t-28.5 -25.5q-16 -10 -24.5 -13t-24.5 -7q-23 -4 -27 -10.5t-25 -16.5q-6 -4 -30.5 -15.5t-38.5 -7.5q-12 -10 -36 -14 t-48.5 -7t-48.5 -3h-35q-33 0 -64.5 2t-78.5 4q-6 16 -20.5 12t-20.5 0q-47 14 -77 41t-44 86q-4 23 0 30t-13 17q0 6 5.5 19.5t5.5 21.5q-10 8 -11 27q0 20 5 37q-8 35 -11.5 76t0.5 65q6 35 1 68t-5 86q0 12 -2 23.5t2 23.5q2 16 1 26.5t12 18.5q0 4 -4.5 18.5t-4.5 18.5 q-8 43 0.5 63.5t5.5 46.5q4 14 1 16.5t-3 10.5q2 14 6.5 13t2.5 14q-4 20 -2 38.5t4 47.5q-10 14 -6 33.5t8 43.5q2 14 7 30t17 34q4 6 14.5 14.5t26.5 16.5q20 12 42 17t30 -1q14 10 31.5 14.5t33.5 4.5h136q10 0 23.5 -6.5t23.5 -4.5q4 -2 11 0t15.5 3t14.5 -1t10 -10 q10 -2 20.5 -1t22.5 -5q10 -4 25 -4q14 0 36 -10q10 -4 16.5 -15.5t16.5 -7.5q4 -4 10 -4q8 0 15 -4q20 -16 25 -25.5t28 -25.5q29 -23 36 -38.5t23.5 -19.5t27.5 -19t15 -20q6 -10 10.5 -25.5t22.5 -47.5q23 -23 27 -46.5t12 -50.5q14 2 10 -5t-4 -11q18 -14 14 -36.5 t5 -43.5q-2 -16 2 -32.5l8 -33t5 -33t-5 -32.5q6 -6 12 -8t-4 -25q-8 -12 -8 -26v-27v-27z" />
<glyph unicode="E" horiz-adv-x="1019" d="M854 1151q14 0 18.5 -2t6.5 -3l6 -3t18 -2q6 0 5 8t-1 16q0 4 4 13.5t2 13.5q-4 14 0.5 26.5t8.5 32.5q6 12 -0.5 17.5t-16.5 9.5q-18 6 -29.5 0t-37.5 0q-16 4 -19.5 -4t-11.5 -4q-4 2 -17.5 1t-29 -3t-30.5 -3t-21 -1q-10 2 -18.5 3t-14.5 -1q-25 -4 -39 -6.5 t-26.5 -4.5t-26 -3t-35.5 -1q-25 0 -43.5 -2t-42.5 4q-8 -2 -23.5 -5t-25.5 -1q-31 4 -47.5 5t-44.5 1q-23 2 -53.5 5.5t-55.5 1.5q-16 -2 -26.5 5t-22.5 -8q-10 -10 -4 -31.5t2 -58.5q-4 -20 9 -42.5t9 -43.5q-4 -16 -4 -28q0 -10 1 -21.5t2 -26t1 -36.5q0 -10 9.5 -14.5 t5.5 -16.5q-16 -20 -17.5 -42t3.5 -41t9.5 -34.5t-2.5 -21.5q6 -23 5.5 -36t-0.5 -26q0 -27 1 -43t1 -30q0 -20 2 -31.5t3 -19t0 -13.5t-7 -18q-4 -6 -2 -9.5t4 -6.5t4 -10t-2 -21q-4 -12 -5.5 -32t-1.5 -42v-41v-31q0 -33 -4 -48t-4 -42q0 -16 6.5 -23.5t-6.5 -31.5 q-4 -6 -1 -10.5t5 -9.5t1 -11t-9 -16q-10 -10 -10 -19q0 -8 3 -18t7 -21.5t2 -27.5q-4 -18 -9 -47t-1 -50q2 -10 8 -14t15 -4h16q10 0 18 -2q51 10 99.5 6t76.5 -4q20 0 30.5 5t39.5 -1q8 -8 19 0q45 -10 97 -3t93 3q12 0 33.5 -1t44 -2t41.5 -1h30q8 0 18.5 2t27 -2t29 -5 t28.5 1t18 2t6 8q4 4 5.5 13.5t1.5 15.5q0 10 -1 19t5 20q4 6 0 19t0 30q2 8 -5.5 14t-15.5 4q-8 0 -15 -6t-18 -2q-23 8 -29.5 -3t-19.5 -13q-14 -2 -31.5 -10.5t-31.5 -4.5q-16 6 -23.5 3t-13.5 -9t-14.5 -11t-26.5 -5q-6 0 -18.5 -2t-26.5 -3t-28.5 -2t-22.5 -1 q-23 2 -50.5 -3.5t-44 -3.5t-24.5 -5t-25 1q-8 2 -39.5 3t-50.5 6q-29 6 -37 4t-14 4q-10 10 -13 24.5t1 38.5q2 8 0 12.5t-5 8.5t-6.5 14t-3.5 33q0 16 4.5 43.5t-2 42t-5.5 19.5t4.5 8.5t6.5 7.5t-3 16q-4 12 -5.5 19.5t-0.5 15.5t0 20.5t-5 32.5q-4 18 -1 33.5t7.5 30 t5.5 31t-12 36.5q-10 18 -4 28.5t4 31.5q-2 16 -1 43.5t1 48.5q0 16 -2 28.5t6 22.5q8 12 37 12q8 0 17.5 3t25.5 3q4 0 15.5 -2t17.5 0q12 2 14 6.5t13 -0.5q20 -6 48.5 -5t41.5 3q18 4 31.5 0t23.5 -2q20 2 27.5 -2t40.5 -4q29 2 49 -7t24 -7q14 6 18.5 4t31.5 -4 q27 -4 32.5 -9t14.5 -5q10 0 19 6t7 22q0 6 1 15.5t1 15.5q-4 10 0 21.5t2 15.5q-4 10 -1 18t-5 8q-6 0 -12 2t-16 -2q-10 -2 -24.5 3.5t-21.5 0.5q-18 -12 -27 -11t-26 -1q-14 -2 -27.5 -6t-25.5 -6q-29 -4 -72 -3t-80 -3q-16 -2 -32.5 -3t-28.5 3q-6 6 -12 5t-12.5 -3 t-11.5 -4t-9 2q-10 -4 -23 -4q-12 0 -24 10q-23 6 -31 0t-18 4q-12 12 -13.5 27.5t-1.5 31.5q-2 27 -1 44.5t5 33.5q16 29 9 55.5t-4 47.5q6 18 6 41t4 32q6 16 22 17q18 0 43 2q35 2 51.5 0t38.5 4q27 10 43.5 2t40.5 -8q25 2 38.5 -4t45.5 -2q27 2 53.5 -3.5t34.5 -0.5 q14 4 23.5 -3.5t34.5 -11.5l8 2q2 0 4 -2l5 -5t16 -5z" />
<glyph unicode="F" horiz-adv-x="1003" d="M182 215q2 -20 1 -28.5t-5 -12.5t-7 -9t-3 -20q0 -16 9 -28.5t-5 -32.5q-8 -8 -4 -15.5t0 -21.5q-8 -25 -8 -33t8 -14q10 -8 17.5 -3t23.5 1q14 -4 25.5 -3t15.5 1q23 4 43 5t33 -1q10 -2 19 2t3 21q-4 12 0 20t-6 27q-6 10 -4 29.5t-6 41.5q-6 20 -7 37t-1 51 q0 12 -2.5 24.5t8.5 31.5q6 14 3 20t-9.5 13.5t-9.5 19.5t8 41q6 20 -1.5 33.5t-13.5 38.5q-6 20 -3 30.5t7 16.5t6 12t-4 20q-4 14 -3 24.5t3 19t2 16.5q0 10 -2 24q-6 29 -3 55.5t3 37.5q-2 59 23 65q10 2 22.5 4t22.5 2q16 0 35.5 2t25.5 2q18 0 27.5 -2t22.5 2 q16 4 24 -3t19 -3q10 6 29.5 -2t53.5 4q16 0 23.5 -2t20.5 -4q25 -2 45 2t30 -2q25 -14 41.5 -12t34.5 2q10 0 19.5 -3t15.5 -3q16 0 25.5 -3t15.5 -3t10 2t6 12q2 6 1 19.5t1 29.5q2 18 0 23.5t2 13.5q2 4 3 12t-11 17q-4 2 -9 -1.5t-15 -0.5q-12 2 -16.5 -4.5t-26.5 -2.5 q-12 4 -21.5 -5t-24.5 1q-12 10 -26 0t-49 -10q-10 0 -15.5 -2t-10.5 -3t-12 -2t-24 1q-18 4 -31.5 -3t-41.5 -1q-18 4 -30.5 -3t-23.5 -7q-29 0 -53.5 1t-46.5 1q-16 0 -22.5 6t-22.5 4q-14 -2 -26.5 -4t-28.5 4q-8 4 -9 14v29q0 10 2 16t-4 24.5t-2 29t11 20.5 q-8 23 -3 30t3 29q-2 12 -4.5 26.5t4.5 37.5q4 18 4 33q0 16 10 26.5t24.5 13.5t40.5 3q33 0 60.5 5t54.5 5q6 0 23.5 -5t42.5 -3q23 2 44 -2t42 -4q10 0 16 -3.5t14.5 -5.5t18.5 -4t28 2q18 2 28.5 1t18 -4t14.5 -6t21 -5q25 -4 41.5 -9t26.5 -7q12 6 16 6t6.5 -3t5.5 -7.5 t9 -6.5q2 0 8 -2t10 -2q8 0 8 8q6 12 1 21.5t6 38.5q8 23 2 33t2 26q4 6 4 13q0 8 -10 14q-12 8 -13.5 0t-21.5 -2q-10 2 -13.5 1t-11.5 -4t-27.5 -5t-58.5 2q-18 -8 -33.5 -10.5t-27.5 -2.5q-29 0 -45.5 4.5t-32.5 4.5q-10 0 -22.5 -7.5t-34.5 -7.5q-16 0 -35 4t-23 4 q-14 2 -41.5 -2t-81.5 -6q-23 0 -59.5 2t-71.5 6q-10 -10 -18 -5t-12 10q-16 6 -31 6q-10 -6 -21.5 -3t-21.5 6t-21 3q-10 0 -20 -10q-6 -6 -2 -18.5t6 -20.5q2 -16 4 -31.5t2 -36.5q-10 -8 -8 -19.5t2 -15.5q0 -8 8 -13t8 -26q0 -25 3 -44t-1 -27q-4 -12 -1 -17.5 t7.5 -10.5t5.5 -13t-5 -29q-8 -25 -9 -43q0 -16 3 -29.5t6.5 -26t1.5 -26.5q-4 -29 -1 -65.5t-1 -73.5q-4 -41 -1 -83t3 -71q0 -20 -3.5 -54t1.5 -56q4 -25 -7.5 -49.5t-3.5 -55.5q6 -2 7 -12t-1 -23.5t-4 -29t-2 -27.5z" />
<glyph unicode="G" horiz-adv-x="1523" d="M801 1237q20 0 37.5 5t33.5 -11q25 4 47.5 -3t45.5 -16q16 -4 22 -8t21 -12q20 -12 30.5 -15t16.5 -14q12 -16 19 -19t13 -7q8 -6 9.5 -10.5t1.5 -8.5q0 -2 3 -4t19 -8q27 -16 31 -28.5t14.5 -27t14.5 -21.5t6 -12t3 -8t5 -10l8 -16t8 -20q4 -16 15.5 -21.5t23.5 -3.5 q20 2 39 2h29q10 0 19.5 5t21.5 5q8 0 16 -1t17 5q-4 29 -22.5 67t-43.5 73q-10 14 -15 17t-9.5 4t-7.5 3t-5 12q-4 12 -14 18.5t-25.5 12.5t-34 16.5t-38.5 30.5q-4 4 -26 13.5t-44 15.5q-16 6 -32.5 9t-22.5 14q-45 -4 -74 12q-14 16 -35.5 12t-38.5 -2q-47 12 -94 10h-29 q-12 0 -28 -2q-47 -14 -93.5 -16t-85.5 -29q-14 -4 -31.5 -6t-32.5 -7t-26.5 -12.5t-13.5 -19.5q-27 4 -49.5 -11t-40.5 -26q-20 -10 -31.5 -24.5t-28.5 -30.5q-18 -14 -36.5 -29.5t-32.5 -34.5q-16 -4 -23.5 -13t-13.5 -21.5t-13 -23.5t-24 -15q0 -23 -13 -32t-20 -26 q-12 -37 -17 -77.5t-34 -71.5q0 -18 -2 -31.5t-6 -25.5v-37q6 -12 6 -27q0 -12 -3 -24.5t-5 -25.5t4 -28q-6 -27 -1 -51.5t13 -47t17.5 -44t9.5 -43.5q16 -16 17 -39t24 -39q4 -20 16.5 -32.5t3.5 -32.5q20 -23 38 -40.5t36 -29.5q29 -25 54.5 -43.5t43.5 -42.5 q20 -29 54 -39t53 -18q12 -6 29.5 -11.5t35 -11.5t30.5 -10t18 -6q8 2 12 0t8 -5.5t7 -4.5t7 3q16 -4 28.5 -7t33.5 -7q23 -4 65.5 -6t69.5 -2q41 0 65.5 5t53.5 5q23 -4 44 5.5t36 19.5q14 -8 24 4q10 -4 35 1t66 30q23 14 42 18t42 20q35 27 53 39.5t30 24.5q6 6 16.5 12 t8.5 15q25 10 44.5 32.5t37.5 34.5q10 6 10 25q0 20 -4 43q-2 12 0 19t3 13.5t1 12.5t-6 16q-4 4 -2 18.5t6 37.5q2 14 4 24t-2 21q-4 12 -2 18t4 11t4 9.5t2 12.5q-4 25 -1 36t-1 21q-8 16 -22.5 13t-26.5 6q-10 4 -14 -0.5t-10 -4.5q-10 -2 -16.5 3.5t-28.5 1.5 q-29 -4 -52.5 1t-52.5 5q-23 0 -49.5 -2t-46.5 0q-23 2 -30 5t-30 5q-20 -14 -38.5 -7t-61.5 5q-14 0 -31.5 6t-38.5 6q-8 0 -20 5t-16 1q-6 -2 -26.5 1t-31.5 1q-14 0 -14 -16q2 -16 -2 -29.5t2 -23.5q4 -8 0 -19.5t-4 -25.5q0 -6 -1 -11.5t3 -9.5q10 -10 30.5 -4t41.5 2 q10 -2 27.5 7t45.5 1q20 14 36 13.5t26 1.5q16 4 33 4h28q31 -2 74 3t59.5 7t37 4t32.5 0q10 -2 17.5 -5t13.5 -20q2 -4 2 -12t4 -24q2 -10 5 -15.5t-1 -15.5q-4 -12 0 -24.5t4 -22.5q2 -39 0 -65.5t-6 -43.5q-8 -35 -22.5 -60.5t-61.5 -53.5q-6 -4 -8 -7.5t-6.5 -8.5 t-13.5 -14t-27 -24q-12 -8 -37 -19t-52.5 -21.5t-52 -18.5t-37.5 -8q-25 -4 -55.5 -11.5t-87.5 -7.5q-20 0 -41.5 -2t-40.5 6q-10 4 -14 5.5t-10.5 2.5t-15.5 2t-25 5q-35 6 -56.5 16t-42.5 21q-47 18 -74.5 42.5t-43.5 47.5q-10 14 -16.5 18t-16.5 8q-6 4 -9.5 16.5 t-21.5 12.5q-4 12 -8 26.5t-10 20.5q-10 2 -27.5 23.5t-32.5 50.5q-12 27 -18 50.5t-8 33.5t-3.5 25.5t-4.5 28.5t-8 24.5t-11 13.5q-10 2 -2 7t0 13q-8 6 -8 23v98q-2 10 0 17.5t5 15.5t5 20.5t2 34.5q0 14 4 37t2 35q-2 20 4 29.5t8 21.5q-4 6 1.5 9t12.5 9.5t14 16.5 t7 29q4 12 13.5 25.5t19.5 19.5q18 35 36.5 64.5t55.5 66.5q20 20 41 32.5t33 16.5q6 12 16.5 16t20.5 11q16 12 31.5 8t29.5 4q10 10 16.5 17t14.5 -9q12 16 31.5 17.5t38.5 1.5q16 16 45 18t49 2z" />
<glyph unicode="H" horiz-adv-x="1351" d="M1165 653v58q0 35 4 75q-2 8 -2 21v24q0 14 2 24.5t5 12.5q6 6 0.5 31t-0.5 43q-4 8 3 12t7 33t-2 35t0 16q0 10 2 17.5t0 21.5q0 6 2 8t4 4.5t4 8.5t0 22.5t0 36t2 29.5q0 2 1 13t2 23.5t2 21.5t-1 11q-6 6 -24.5 3t-24.5 -3q-23 0 -41 -3t-53 10q-10 4 -20.5 -0.5 t-18.5 -10.5q-8 -2 -8 -10q2 -18 7 -22.5t1 -20.5q-4 -10 0 -21.5t6 -21.5q4 -20 2 -24.5t8 -18.5q0 -4 2 -25.5t2 -56.5q0 -18 2 -38.5t-6 -30.5q-10 -12 -2 -34t8 -38v-23q0 -12 -4 -18q-6 -10 -23.5 -11t-31.5 1q-8 -4 -30.5 -7.5t-49.5 0.5q-25 4 -35 -6t-18 2 q-20 0 -73.5 -6t-131.5 0q-8 4 -22.5 2t-24.5 2q-29 10 -40 2t-36 -6q-23 2 -50.5 8.5t-55.5 8.5q-25 -6 -36 -3t-28 7q-10 6 -14 4t-12 4q-10 10 -9.5 26.5t0.5 32.5q0 2 1 11.5t3.5 21.5t2.5 23q0 12 -3 18q-4 6 1.5 15.5t9.5 15.5t4 51q0 14 -4 18t-2 23q0 10 2 25.5 t4 21.5q6 23 7 49.5t3 38.5v10t-6 6q-10 4 -20.5 1t-26.5 2q-12 2 -33.5 -0.5t-34.5 -2.5q-23 0 -33 2.5t-14 2.5q-23 0 -20 -37q2 -16 6 -37t6 -31q6 -35 9 -57.5t-7 -46.5q14 -43 17 -75t3 -56q0 -23 -2 -37.5t5 -22.5q8 -10 -3.5 -21.5t-9.5 -19.5q4 -20 8.5 -40.5 t10.5 -47.5q4 -14 -5.5 -30.5t-5.5 -36.5q2 -12 4.5 -37t3.5 -54.5t1 -56.5v-41q0 -31 -2 -67.5t-7 -49.5q-8 -27 -8 -38q0 -10 3 -18.5t5 -15.5t-2 -24q-2 -29 0 -47t-4 -40.5t-1 -36t-9 -34.5q-6 -6 -5 -13t2 -16t0 -22.5t-7 -31.5q-6 -16 5 -19.5t17 -3.5q12 0 18.5 -1 t16.5 3q8 4 12.5 -1t8.5 -5q12 0 30.5 3t32.5 1q27 -4 31 0q8 6 8 31q0 16 -10 34.5t-2 47.5q4 16 1 29.5t-8.5 23.5t-7.5 20.5t7 20.5q-4 12 -6.5 28.5t-2.5 24.5q0 10 1 22.5t-1 22.5q-2 12 4.5 22.5t6.5 22.5q0 2 -3.5 6t-5.5 9.5t-2 13.5t9 18q-4 23 -9.5 42.5 t-3.5 41.5q2 16 -2 25.5t4 32.5q20 29 10 58.5t-8 51.5q2 18 3 48t8 40q4 10 28 11h47q10 0 27.5 6t34.5 6q14 0 21 -1t14 -1q8 0 15 -1t21 -1q41 0 78 3t84 5q57 2 92 -4t76 -4q29 2 60.5 -4.5t52.5 -1.5q14 2 27.5 -2.5t21.5 -8.5q4 -2 10 -9t6 -11q0 -12 2 -21.5t2 -23.5 q0 -33 2.5 -50.5t-2.5 -23.5q-4 -16 1.5 -20.5t5.5 -20.5q0 -20 -5.5 -31.5t-11.5 -29.5q0 -27 9.5 -38t3.5 -32q-4 -16 -5 -49q0 -33 2 -68q2 -37 -2 -52t-4 -42q2 -16 1 -28.5t-7 -32.5q-12 -25 -7 -45.5t3 -36.5q-2 -10 -4 -20.5t-2 -16.5t-4 -20.5t0 -16.5q6 -4 14 -3 t15 1q27 2 33.5 -1t17.5 -1q25 4 39 1t24 -1t17.5 1t13.5 3q8 4 0 37q-4 12 -1 20.5t-1 28.5q0 4 -3 11t5 22q-6 20 -12 35.5t-4 48.5q-6 31 -3 39t7 20q6 29 1 44.5t-7 37.5q0 18 -1.5 31.5t-2.5 27t-2 30t-1 38.5q0 8 4.5 14.5t4.5 10.5t-2 4t-3.5 4t-2.5 14t-1 33 q2 39 8 58t-10 44z" />
<glyph unicode="I" horiz-adv-x="497" d="M195 498q0 -25 1 -56.5t-14 -35.5q4 -16 3 -32t1 -28q4 -35 -6 -50t-4 -32q6 -18 7 -28.5t-1 -18.5l-4 -16t0 -25q4 -29 -5 -56.5t-7 -41.5q2 -16 -2 -28.5t-8 -22.5q-2 -4 -4 -12.5t2 -12.5q6 -4 18 -4t16 2q18 6 23.5 1t24.5 -5q12 0 39.5 2t37.5 2q12 0 21.5 1 t11.5 11.5t-2 16.5t-6 16q-2 8 -5 12t3 19q-2 12 -5 24.5t-3 22.5q0 14 -1 18t-3 21q-2 12 -3.5 23.5t3.5 37.5q-4 18 -5 27q0 10 1.5 14t3.5 7t2 8q2 18 -1 28t-6.5 18.5t-5.5 15.5t2 21q2 10 2 15q0 6 -1 11t-2 11.5t-1 18.5q2 33 2 53q0 23 2 37q2 10 0 15t-3 9.5 t-2 10.5t1 18t2 17q0 6 -2 12t-3 15t-1 28q0 12 -1 27.5t-1 39.5q0 25 9.5 38.5t2.5 23.5q-6 12 -9 32.5t-3 41.5q0 6 2 9t5 7t4 13t1 28q-2 20 -3 40.5t-1 37.5q0 20 5.5 25t5.5 28q0 18 -4.5 26.5t4.5 41.5q4 16 7 21t-1 30q-4 12 2 35.5t6 40.5q0 12 3 22t-1 14 q-4 6 -14 7h-19q-12 0 -23.5 -2.5t-23.5 2.5q-10 4 -13 -2.5t-30 -6.5q-16 8 -43 9q-20 0 -26 -7q-4 -4 -1 -9t1 -9q-4 -14 2 -17t4 -14q-2 -8 0 -13t2 -17q0 -14 7 -18.5t7 -18.5q0 -10 7 -21.5t-9 -21.5q0 -10 7 -43t3 -54q-2 -12 1 -24t5 -25q0 -35 3.5 -51t-1.5 -25 q-4 -10 -3 -19t-3 -19q-2 -8 4.5 -20.5t6.5 -22.5q-2 -27 1 -37.5t1 -22.5q-2 -16 -8.5 -31.5t-0.5 -35.5q10 -37 9.5 -77t-0.5 -91z" />
<glyph unicode="J" horiz-adv-x="512" d="M225 754q0 -37 1 -54.5t-3 -29.5q-6 -20 -4 -34.5t5 -29t5 -30t-2 -35.5q-4 -14 -2 -38t4 -57q4 -55 0 -81q0 -23 -1 -44.5t-3 -44.5q8 -23 0 -37t2 -46q-2 -12 -4 -32t-4 -41.5l-4 -43t-2 -33.5q-6 -35 -23 -86q-12 -35 -28.5 -78t-40.5 -76q-8 -10 -15.5 -20 t-18.5 -22.5t-30.5 -28t-50.5 -35.5q-14 0 -19 -5t-8.5 -10.5t-8.5 -6.5t-19 8q-16 2 -25.5 -10.5t-42.5 -12.5q-10 0 -24.5 -1t-24.5 -7q-16 -12 -11 -17.5t3 -17.5q0 -10 2 -11t5 -2t7 -4t8 -16q10 -31 17.5 -43t17.5 -12q8 0 28.5 9t39.5 20q18 6 26.5 22.5t40.5 22.5 q16 8 30.5 22.5t23.5 18.5q14 8 14 14q0 4 12 16q8 4 11 4q4 0 6 1.5t4 5.5t6 16q14 23 37 45q25 25 38 43t17 32.5t8 19.5t8.5 9.5t8.5 10.5t8 18q4 16 16.5 33.5t18.5 26t16 21.5t6 36q0 20 5 36.5t12.5 30t11.5 24.5t2 22q-4 10 -2 18t6 17.5t8 19.5t2 26q2 10 1 34t1 42 q2 23 4 53.5t-2 59.5q-2 14 -3 37.5t-2 46t-2 42t-1 27.5q0 10 1 15.5t2 9.5t2 10t-1 19l-3 24t1 21l3 15t1 9q0 6 -2 13.5t-8 23.5q-4 14 -4 35q0 20 3 39.5t5 37t2 23.5q-10 41 -6 66t4 47q0 14 5 35.5t-7 36.5q4 20 10 20t-2 19q-4 6 2 21t9 30q0 12 -1.5 16t-2.5 8 t-2 10.5t-1 22.5q2 18 6.5 23.5t2.5 24t5 30.5t-1 18q-10 8 -12.5 5t-18.5 -3q-14 0 -25.5 -7t-21.5 10q-4 4 -30.5 -0.5t-47.5 -4.5q-8 0 -21.5 2.5t-17.5 -2.5q-6 -8 -3 -14t5 -16q4 -23 11.5 -52.5t0.5 -58.5q-4 -16 1.5 -30.5t11.5 -27t8 -22.5t-4 -18q-2 -23 2 -62 t6 -77q2 -29 6 -64.5t4 -58.5z" />
<glyph unicode="K" horiz-adv-x="1144" d="M879 1249q-8 0 -13.5 -9t-15.5 -21q-12 -16 -31.5 -45t-36.5 -37q-10 -6 -11 -10.5t-1 -10.5q0 -4 -3 -11t-15 -18q-8 -8 -13.5 -10t-9.5 -3l-8 -2t-12 -7q-12 -10 -23.5 -37t-26.5 -37q-10 -8 -25.5 -24.5t-37.5 -38.5q-16 -14 -28.5 -31.5t-28.5 -38.5 q-31 -10 -44.5 -23.5t-18.5 -24.5t-9 -20.5t-16 -11.5q-10 -4 -31 -24.5t-31 -32.5q-12 -14 -27.5 -30.5t-23.5 -24.5q-10 -10 -23 -7q-6 2 -6 19v74q0 29 9.5 64.5t3.5 43.5q-6 10 -5.5 24.5t-1.5 37.5q-2 16 1 35.5t3 35.5q0 20 6.5 21.5t4.5 11.5q-2 12 -1 22.5t1 24.5 q0 10 4 20.5t4 22.5t-2 20.5t0 22.5q2 10 6 21.5t2 23.5q-4 23 2 34t-4 13t-15 4t-16 -2q-14 -4 -20 -2t-17 2q-18 0 -42.5 -1t-41.5 -1q-6 0 -13 2t-11 -4q-4 -10 0 -15t2 -20q-2 -20 4 -30t0 -39q-4 -25 3 -26t9 -15q2 -16 -4 -17.5t-2 -15.5q10 -35 1 -54.5t-1 -27.5 q6 -6 6 -26t2 -39q0 -6 1 -26.5t2 -43.5t1 -43v-27q-2 -12 1.5 -19t5.5 -12t0 -9.5t-11 -10.5q4 -16 6.5 -38.5t2.5 -49.5q0 -29 1 -47t-3 -31q-6 -6 -8.5 -26.5t3.5 -42.5q4 -16 3 -24.5t-4 -14.5t-4 -11.5t3 -17.5q4 -8 2 -29.5t-4 -42.5q-2 -27 -5 -47t-3 -28 q0 -16 5 -22.5t1 -16.5q-8 -18 -5 -27.5t1 -30.5q0 -10 -4 -23t0 -42q-10 -14 -4 -22.5t-2 -28.5q-4 -12 -5 -19.5t-3 -17.5t-4 -23.5t4 -13.5q10 0 19 2t20 2q16 0 28.5 -4t22.5 -4q23 0 30 3t29 3q8 0 17.5 1t15.5 5q4 4 3 26.5t-9 41.5q-10 23 -6 30t-6.5 19t-2 16 t6.5 10q-6 25 -7.5 33t-1.5 31t-3 34t-1 25q-12 10 -8 24.5t2 29.5q-2 6 -2 30v37t3 27.5t5 25.5q0 4 -3 5.5t-7 11.5q-4 8 1 13t1 28q-2 14 0 30.5t2 30.5q0 16 10 17q16 0 21.5 -5.5l17.5 -17.5q16 -16 38 -34.5t30 -30.5q4 -8 9 -9.5t9 -1.5q6 0 9.5 -3t3.5 -13 q2 -4 15 -13.5t22 -15.5q23 -16 39 -30.5t36 -30.5q16 -16 15.5 -21.5t13.5 -19.5q6 -6 14.5 -5t24.5 -11.5t25.5 -21.5t19.5 -20q12 -12 24.5 -26t34.5 -39q12 -14 18.5 -13t16.5 -9.5t12.5 -17.5t6.5 -19q2 -10 7 -14.5t12 -6.5t16.5 -7t19.5 -18q16 -23 29 -22 q12 0 12 -10q0 -14 14.5 -22.5t24.5 -18.5q12 -16 18 -25.5t17 -9.5q14 0 31.5 2t33.5 -2q14 -4 21 -4q8 0 14 1l12 2t23 1q14 0 22 -2t25 -2h22t11 12q0 10 -20.5 24.5t-45 29t-23.5 20.5t-10 14q-16 12 -22 14.5t-21 12.5q-4 2 -14 13t-22.5 23.5t-23.5 22.5t-15 15 q-4 2 -6.5 1t-6.5 -1q-2 0 -6 3t-10 17q-4 10 -8 10t-15 8q-16 10 -42.5 35t-41.5 35q-6 6 -10 14.5t-9 16.5t-13.5 14t-26.5 6q-16 10 -37 29q-6 4 -18.5 15.5t-27.5 23.5t-28.5 23.5t-19.5 17.5q-10 10 -22.5 25.5t-28.5 27.5q-10 8 -9 15.5t-16 3.5q-6 16 -13 18t-20 14 q-16 14 -19 25.5t-7 15.5q-14 0 -18.5 5t-16.5 16q-10 10 -18.5 17t-10.5 18q2 8 17.5 25.5t42.5 45.5q10 10 30.5 28.5t34.5 31.5q10 10 18.5 19t20.5 13q18 -4 33.5 20.5t46.5 55.5q23 23 55.5 48.5t44.5 37.5q20 20 40 26.5t24 22.5q6 20 16 21.5t15 13.5q2 6 11 14.5 t20.5 15.5t21.5 13t12 10q14 20 36.5 34t27.5 20q10 16 19 21t24 20q8 8 14 13t-2 15q-4 8 -26.5 6t-45.5 -4q-10 0 -17 -4t-28 2h-65z" />
<glyph unicode="L" horiz-adv-x="993" d="M362 -2q18 2 33 4t21 -2q8 -4 23.5 -3t33.5 3l141 -2q12 0 14.5 2t10.5 6q6 -4 12 -3t11 -5h16h31h28q14 0 19 2q16 6 18 2t12 -6q14 -2 21 -2h14t15.5 1t25.5 1h31t33 -2q10 0 18 -2t23 -2q10 4 17 2t20 2q10 -4 13 6t1 20q-4 18 2 54q-4 16 -3 30.5t-5 22.5t-7 2 t-12 -2q-10 6 -18 0t-23 -6q-12 0 -16 -2t-7 -4t-9.5 -4t-18.5 -5q-18 6 -32.5 0t-34.5 -10q-4 -10 -9.5 -7t-15.5 1q-8 -2 -21 -2q-10 0 -16 -6q-18 -6 -29 -6q-10 0 -18 1t-18 1t-29 -2q-10 0 -17.5 -2t-15.5 -5t-20.5 -5.5t-32.5 -2.5q-14 0 -20.5 1t-12.5 1q-4 0 -14 -1 t-35 -3q-35 -4 -46 2.5t-28 1.5l-26 15q-10 6 -18.5 4t-22.5 -6q-12 0 -22.5 3t-16.5 17q-4 8 -5 24.5t-6 45.5q-6 35 -5 55.5t3 34.5t2 27q0 12 -8 30.5t-6 31.5t5 23.5t4 24t-9 31.5q-6 10 1 17.5t3 35.5q-4 23 -2 62t0 82q-2 31 5 47t1 32q-4 14 -3 55.5t1 63.5 q0 29 1 56.5t5 39.5q4 23 -1 34.5t-1 33.5q4 31 8.5 48.5t4.5 29.5q0 10 -2 16t0 23q2 12 10 16t4 17q-10 27 -8 36t2 35q0 25 5 38t-1 18q-4 2 -18.5 5t-34.5 -1q-16 -4 -32.5 0t-31 -4.5t-37 -3t-32.5 -1.5q-6 -4 -5.5 -11t4 -16t5.5 -18.5t-4 -17.5q0 -8 3 -23.5l6 -31 t5 -29.5t2 -21q-2 -14 2 -15t4 -11q0 -6 3 -11.5t-7 -11.5q-6 -4 -4 -29.5t5 -58t7 -62.5t2 -40q-4 -23 3 -55.5t1 -63.5t3.5 -51.5t9.5 -26.5v-20q0 -6 -13 -17q-10 -12 -2 -31.5t6 -54.5q-2 -23 3.5 -53.5t-5.5 -68.5q-4 -10 -2 -41t6 -52q-4 -12 -6 -34.5t-5 -46t-4 -41 t-1 -21.5q2 -16 -7 -42t-3 -54q4 -23 -4 -29t-8 -20q0 -20 5 -26.5t21 -4.5q29 4 41 4h29h114z" />
<glyph unicode="M" horiz-adv-x="1740" d="M197 623q0 -61 -1 -84t-6 -39q-4 -14 1.5 -50t-5 -56.5t-4.5 -39t6 -37.5q0 -33 -3 -54t-3 -34q0 -31 -1 -58.5t-7 -39.5q-4 -10 -4 -22t2 -23q2 -14 -4 -24.5t-4 -26.5q2 -23 -3 -28t1 -11q8 -2 14 1t21 3q12 0 26.5 1t24.5 -1q8 -2 21.5 -3t23.5 -1h18q10 0 19 10 q-4 23 -5 37t-8 33q-6 20 -4 29.5t-2 35.5q-2 6 -4 8.5t-4 4.5t-4 8t-2 22q4 12 7 23.5t-1 19.5q-12 18 -7 42t1 48q-4 16 -2 43t6 39q2 8 -1 14.5t-6 13.5t-3 15t8 25q-10 20 -12 31.5t-1 22.5t1 24q0 12 -2 33q-4 20 -3 43.5t3 52.5q0 12 2 21.5t5 18.5t4 19t-5 27 q-6 10 -7 33.5t0 50t2 50.5t1 36q-16 8 -8 18t8 27q4 12 0 38.5t-4 57.5v14q0 12 1 23.5t3 20t6 8.5q10 -2 16 -18.5t22.5 -41t35 -53.5t30.5 -51q8 -14 24.5 -33.5t24.5 -44.5q12 -6 15.5 -12t3.5 -13q0 -6 2 -13t12 -17q6 -6 12.5 -8.5t11.5 -5.5t11 -12t12 -32 q8 -18 14.5 -25t11.5 -10.5t10 -6.5t9 -15q8 -20 19.5 -35.5t23.5 -40.5q8 -20 23.5 -43.5t31 -45t26 -39t10.5 -23.5q8 4 10 1t2 -10q0 -6 1 -13t5 -11q27 -10 30 -26.5t11 -30.5q8 -4 11 -8.5t3 -8.5t1 -9t5 -11q10 -14 24.5 -39t29.5 -41q14 -18 26 -19q12 0 29 13 q4 4 14.5 20.5t22.5 40t24.5 48t22.5 46.5q0 10 5 18.5t15 4.5q4 6 9.5 18.5t10.5 22.5t10 13t11 -5q14 41 44 85t44 67q12 0 17.5 7t9.5 18l10 27.5t19 37.5q14 20 31.5 47.5t34 52.5t31.5 45.5t24 30.5q23 23 43 61.5t36 59.5q18 23 24.5 34t14.5 15q10 0 11.5 -11.5 t1.5 -25.5v-29q0 -12 1 -24.5t1 -28.5v-39q-2 -29 2 -65.5t4 -71.5q0 -23 -1 -30t-7 -32q-6 -29 3 -41t5 -24q-4 -10 -1 -16.5t6 -12.5t3 -14t-10 -27q-6 -10 -3 -25.5t3 -56.5q0 -31 4 -44t-6 -36q-4 -10 0 -32.5t4 -48.5q0 -18 -1 -28.5t-1 -19.5v-14v-18q2 -20 1 -37 t-7 -37q-12 -23 -5 -35t3 -29q8 -18 -7 -34q8 -12 10.5 -17.5t1.5 -8.5t-4 -7t-6 -12q4 -18 -3 -36t-5 -30q0 -6 7.5 -5t19.5 -1q14 -2 20.5 -1t10.5 1q10 0 31.5 2t25.5 4q16 6 24.5 -2t18.5 -6q16 0 20.5 7t1.5 24q-2 29 -10 39t-4 34q2 20 -8 46t-2 61q2 10 0 17t-4 15.5 t-3 20.5t5 33q-14 53 -13 93t1 69q0 8 -1 33.5t-2.5 56t-1.5 59.5v49q2 25 -5 42.5t3 37.5q4 6 3 15.5t-3 19.5t-2 20t4 19q10 18 2 32.5t-8 55.5q0 16 4.5 33.5t8.5 29.5q0 12 -2 18.5t-3.5 11.5t-2.5 12.5t1 23.5q8 16 9.5 26.5t-2.5 43.5q-2 18 -2 28q0 12 1 21.5t2 21 t3 29.5t1 31.5t-3 23.5q2 0 -5.5 3t-11.5 7q-37 -2 -47 -3t-26 1q-10 0 -21.5 2.5t-23.5 -0.5h-13q-6 0 -12 -6q-10 -10 -18.5 -21t-16.5 -28q-4 -10 -6 -14t-5 -7t-8 -10.5t-15.5 -24t-20.5 -39t-25 -36.5q0 -16 -9 -28.5t-19.5 -24.5t-19.5 -24.5t-11 -26.5q0 -8 -4 -9.5 t-10 -1.5q-4 0 -7.5 -3t-1.5 -15q-4 -29 -15 -34t-28 -17q2 -29 -20.5 -64t-44.5 -69q-10 -16 -13.5 -27.5t-21.5 -24.5q-16 -10 -35.5 -45.5t-42.5 -70.5q-29 -47 -58.5 -83t-33.5 -44q-20 16 -31.5 36.5t-46.5 67.5q-8 8 -9 15.5t-1 13.5t-2 10t-12 10q-12 16 -35 42 t-37 42q-8 10 -10 17.5t-3 13.5t-3.5 11t-8.5 12q-6 2 -6 8t-1 12t-5 11t-16 5q-4 0 -7.5 12.5t-3.5 22.5q-8 2 -20 16.5t-23.5 31t-21.5 33t-17 24.5q-18 27 -38.5 61.5t-24.5 56.5q-4 20 -8 27.5t-8 13t-10.5 10.5t-16.5 19q-14 23 -26.5 46.5t-24.5 43.5 q-6 10 -13.5 27.5t-15.5 21.5q-14 6 -35.5 4t-36.5 -2q-16 0 -36.5 2.5t-36.5 4.5q-10 2 -19.5 -2.5t-19.5 -4.5q-16 0 -17 -16q0 -14 2.5 -38.5t4.5 -41.5q4 -29 -0.5 -66.5t-4.5 -60.5q0 -16 5 -16q4 0 4 -17q2 -23 -1 -48t-8 -44q-2 -8 2.5 -13t7.5 -9t4 -11.5t-5 -17.5 q-10 -16 -6 -30.5t6 -59.5q2 -47 0 -82.5t-2 -60.5z" />
<glyph unicode="N" horiz-adv-x="1425" d="M283 330q0 18 4 37.5t-2 27.5q-10 14 -4 25.5t0 21.5q-10 14 -9.5 39t0.5 49v37t2 88q0 37 4.5 55.5t-6.5 41.5q-4 2 -6 13t-2 26q0 14 1 27t1 20q-2 29 3 49t5 45q-12 6 -9 41t1 76q0 6 -1 21t14 15q2 0 28 -26q14 -16 33.5 -39t38 -45.5t33 -43t20.5 -30.5 q8 -14 14.5 -18t10.5 -6.5t7 -7.5t5 -21q23 -29 49.5 -46.5t22.5 -41.5q-2 -10 2 -14.5t11 -6.5t15.5 -5t14.5 -11q12 -12 16 -24.5t7 -22.5t9.5 -19.5t18.5 -15.5q25 -12 42 -37.5t36 -54.5q29 -45 61.5 -72.5t52.5 -62.5q23 -37 41.5 -59.5t34 -40t29.5 -33t29 -39.5 q10 -16 12 -29.5t8 -22.5q4 -4 10 -4t17 -6q14 -10 16 -22.5t12 -28.5q4 -6 15.5 -18.5t21.5 -20.5q16 -12 24.5 -23.5t18.5 -23.5q23 -23 35 -40t16 -23q14 -16 29 -17q6 2 25.5 6t23.5 15v14v22t1 23.5t1 17.5q0 20 -2 32.5t-3 21t-1 16.5q0 10 4 27q2 10 2 28v37v39 q0 20 2 33q-4 25 -4 63q0 41 2 70q0 20 6.5 30.5t-2.5 22.5q-4 4 -2 17.5t5 28t5.5 27.5t-2.5 19q-8 10 -6 32t2 73q0 16 3.5 51t3.5 66v34q0 20 2 31q4 29 11 42t1 25.5t-5 30t4 38t5 39t0 34.5q-4 18 -2 28.5t5 18.5t6 14.5t3 12.5q-4 23 4.5 41t3.5 37q-2 12 -1 19 t-9 13.5t-19 1t-26 -1.5q-23 -10 -39 -4t-33 6q-4 0 -17 -1t-17 -13q-4 -14 0 -22.5t2 -20.5q-2 -16 -1 -24.5t4 -12.5t4 -6t-1 -8q-4 -4 -2 -14.5t5 -20.5t5 -21.5t-2 -17.5q-6 -12 -1 -24.5t5 -20.5q0 -20 3 -37.5t3 -38.5q0 -14 2 -36.5t3 -45t1 -41.5q0 -18 -2 -24 q-12 -27 -3 -46.5t9 -43.5v-45q0 -27 -4 -37q-8 -16 0.5 -28.5t8.5 -26.5q2 -35 -1.5 -72t1.5 -68q6 -20 6 -28t-3 -11.5t-6.5 -4.5t-3.5 -7q2 -23 4.5 -42t0.5 -42v-35q0 -20 1 -39.5t0 -33t-4 -13.5q-4 0 -45 54q-16 18 -28.5 31.5t-28.5 39.5q-10 16 -26.5 35.5 t-32.5 40.5q-23 29 -39.5 46t-18.5 36q0 4 -6 4h-14q-6 0 -12.5 3t-8.5 13q-4 23 -20.5 32t-36.5 36q-12 14 -27.5 37.5t-33 49.5t-36 48.5t-36.5 34.5q-16 10 -21.5 18.5t-9.5 17.5t-11 21.5t-26 32.5q-16 18 -24 37.5t-17 26.5q-12 6 -32.5 37.5t-42.5 64.5 q-10 29 -11.5 38t-15.5 11q-10 2 -17.5 9t-7.5 22q-12 14 -20 23.5t-19 21.5q-25 29 -38 44t-19 36q-16 4 -15 16t-9 27q-14 23 -27 26q-14 6 -31.5 3t-34 -1t-24.5 -5t-27 -3q-33 8 -45 -2q-10 -8 -1 -25.5t-1 -31.5q0 -6 5 -19.5t5 -23.5q0 -23 1 -41.5t3 -42.5v-17 q0 -2 -2 -7t-3 -14t-1 -30q6 -6 9.5 -18t3.5 -27q0 -12 -1 -24.5t-1 -16.5q2 -20 2 -37q0 -16 -9 -26q-4 -6 0 -18.5t2 -24.5q-2 -18 2.5 -30.5t2.5 -29.5q-2 -37 1 -72.5t-4 -56.5q-10 -20 -7 -30.5t3 -22.5q2 -43 -3 -62.5t-5 -23.5q-2 -10 4 -10t6 -14q0 -10 -6 -11 q-6 0 -4 -10q4 -14 -1 -34.5t-3 -39.5q2 -16 3 -44.5t1 -45.5q0 -18 -7 -26.5t-7 -18.5t4 -30.5t0 -26.5q-4 -4 -4 -17v-24q0 -12 -1 -24.5t-9 -20.5q6 -10 7 -16.5t0 -12.5t-4 -12t-3 -17q0 -6 1 -13t7 -7q10 0 19 1t16 1q16 -2 39 -2h40q4 0 10.5 3t16.5 -1q4 -2 4 4 q0 8 -1 19.5t-2 22.5t-1 17q0 18 -3 34t-3 20q-4 14 -3 22t3 14.5t2 10.5q0 6 -6 16q-2 4 -4 22.5t-3 43t-2 48.5t-1 36z" />
<glyph unicode="O" horiz-adv-x="1597" d="M567 -6q23 2 48.5 -4t52 -13.5t50 -12.5t42.5 -1q37 -6 67 -6q35 0 66 6t63 17q18 -4 36 0t34 11t32.5 14t35.5 11q27 29 57.5 41.5t71.5 28.5q-2 6 12 22.5t27 12.5q27 14 38 22.5t16 15.5t8 14t13 20q8 14 19.5 26t17.5 12q6 16 22.5 46t37.5 59q16 25 29.5 51.5 t11.5 38.5l14 39q-2 16 -1 28.5t5 34.5q8 29 16.5 39.5t1.5 32.5q-2 6 2.5 16.5t4.5 20.5q2 18 -2.5 31.5t-2.5 23.5q2 18 -4 26.5t-10 24.5q12 10 4 15.5t-4 15.5q0 31 -11 58.5t-25.5 53t-29 51.5t-20.5 56q-10 4 -17 13.5t-14 19.5q-8 16 -21 36.5t-30 37.5q-6 6 -16 7 t-21 7q-8 6 -15 15.5t-17 15.5q-8 6 -14.5 7t-10.5 5t-6 8t-17 13q-16 10 -37.5 24.5t-50.5 24.5q-23 8 -49 12q-33 25 -71.5 35t-80.5 13t-85 3t-84 4q-16 -10 -36 -12t-38 -2t-34.5 -2t-31.5 -14q-12 0 -26.5 -10.5t-34.5 -6.5q-35 -29 -73 -42t-83 -38q-16 -23 -39.5 -39 t-46 -31.5t-44 -34t-33.5 -44.5q-23 -47 -56 -87t-47 -91q-10 -16 -15 -30.5t-12 -29.5q-4 -16 -6 -42.5t-4 -49.5q-10 -8 -9 -26.5t-7 -20.5q10 -18 8 -35v-65q0 -6 4 -19q12 -12 18.5 -44t6.5 -56q20 -25 32.5 -52.5t24.5 -55t28.5 -54.5t41.5 -49q18 -16 32.5 -28.5 t26.5 -45.5q27 -12 52.5 -22.5t15.5 -20.5q18 -20 40.5 -28.5t39.5 -18.5l8 6q16 -2 28.5 -17.5t22.5 -19.5q2 0 10 -1t17.5 -2t17.5 -6t12 -13zM805 1233q2 10 11 11t15 -3q18 -12 38 -9t42 1q74 -16 146.5 -54t118.5 -98q14 -33 23 -41t15.5 -10t11.5 -6t11 -29 q2 -10 13.5 -34.5t24.5 -53t25.5 -58.5t18.5 -50q10 -41 14 -76t4 -80l2 -119q-2 -8 -8 -10t-6 -10q6 -47 -11.5 -88t-29.5 -82q-14 0 -18 -15q-8 -29 -23.5 -56t-32.5 -54q-23 -23 -48 -40t-42 -46q-6 -10 -19.5 -15.5t-26.5 -9.5t-25.5 -11t-18.5 -21q-10 -12 -29.5 -13.5 t-29.5 -17.5q-47 -4 -85 -15.5t-85 -9.5q-27 2 -60.5 8.5t-62.5 6.5q-29 18 -63.5 27t-65.5 24q-18 8 -27.5 21.5t-25.5 29.5q-39 18 -69 57t-65 70q-8 25 -20 52.5t-21.5 53t-14.5 47t-1 33.5q-6 16 -19.5 34t-11.5 46q-16 57 -12 119.5t8 120.5q10 43 17.5 53t19.5 25 q-4 18 4 36q6 12 13.5 22.5t11.5 25.5q4 6 3 18t3 21q8 14 16.5 19t18.5 19q10 10 10 31q23 29 46.5 50.5t49.5 43.5q29 27 54.5 45.5t60.5 28.5q18 8 36.5 15.5t41.5 11.5q29 8 52.5 13t45.5 1z" />
<glyph unicode="P" horiz-adv-x="970" d="M190 510q0 -10 -1 -13t-2 -7.5t-1 -12.5v-22t2 -23.5t3.5 -11.5t1.5 -8t-5 -11q-10 -18 -6 -21t4 -15v-35q0 -23 -1 -49.5t-3 -50t-6 -29.5q-2 -14 -1 -19.5t3 -7.5l3 -3t1 -7q-2 -18 -5 -31.5t-5 -30.5q0 -6 -2 -16t2 -16q8 -14 2 -12.5t-8 -10.5q-2 -16 -5 -26.5 t7 -18.5q6 -4 14 -3t14.5 3t12.5 2q8 0 12 -6q16 -4 23.5 -2t17.5 2h29q16 0 26.5 2t10.5 6v17q0 8 -6 43q6 31 0.5 32.5t-7.5 12.5q-2 16 4.5 32.5t-4.5 44.5q-2 6 -4 19.5t-3 30t-2 34t-1 29.5q-4 45 5 67.5t1 32.5q-10 12 -9 20.5t1 20.5q0 16 -2 27.5t-2 28.5q0 25 4 26 q10 6 22.5 -1t28.5 -7q14 0 33 -4t47 -2q14 0 27.5 1t36.5 5q20 4 33.5 2t17.5 2q10 6 30.5 5t41.5 14q4 4 19 12t19 8l58 12q8 4 21.5 17.5t23.5 17.5q2 6 12 15.5t21.5 18.5t21.5 17.5t14 14.5q0 6 8.5 17t17.5 23.5t18.5 24t11.5 15.5q-2 4 2 18t11 29.5t14.5 28 t11.5 14.5l4 71q-6 2 -4 10.5t4 19.5t2 26q0 14 -6 30q-8 8 -13.5 17.5t-7.5 13.5q6 6 5 10t-4 8.5t-7 8.5t-2 10q-23 10 -25 32.5t-16 39.5q-10 4 -28.5 20.5t-30.5 22.5q-10 4 -17.5 16t-23.5 19q-20 8 -31.5 17t-40.5 13q-16 4 -28.5 5t-16.5 8q-23 14 -41 13t-45 3 q-20 4 -45 7t-51 1q-12 4 -26.5 0t-29.5 -6q-6 0 -14 -5t-25 1q-6 0 -14 -2t-18 -4q-20 -2 -39 -3t-45 -5q-14 -2 -28.5 -7.5t-31.5 -7.5q-10 -2 -18 -2q-6 0 -10 -4t-3 -10t3 -12q4 -16 8 -27.5t0 -42.5q2 -10 6 -7t8 -14q-6 -6 -6 -12q0 -4 2 -10t4 -13.5t0 -17.5 q-4 0 -4 -12t1 -27.5t4 -32t3 -24.5q2 -20 -4 -36.5t-6 -39.5q0 -16 6 -26.5t2 -20.5q-4 -14 2 -22.5t-6 -12.5q4 -12 6 -35.5t4 -49t2 -52.5v-43v-129zM682 1151q8 -16 25.5 -23.5t15.5 -27.5q-2 -14 6 -18.5t12 -20.5q2 -10 7.5 -17.5t9.5 -14.5t8 -18.5t2 -29.5 q0 -10 3 -17.5t6 -14.5t4 -15t-5 -23q2 -16 0 -38.5t-7 -45t-11 -42t-10 -31.5q-8 -18 -20.5 -43t-29.5 -43q-10 -12 -23 -19.5t-24 -19.5q-16 -8 -21 -14.5t-28 -18.5q-10 -6 -21.5 -8t-21.5 -13q-8 -8 -16 -8t-49 -2q-16 0 -28.5 -1t-29 -3t-36 1t-23.5 7 q-10 10 -23.5 16.5t-21.5 12.5q-10 8 -15.5 11t-13.5 38q-4 18 -3 28.5t3 33.5q2 18 4 32.5t-4 49.5q-4 29 0 40t0 29q-4 20 4 35.5t4 42.5q-4 20 -9 27.5t7 27.5q-4 25 -2 49.5t4 36.5q0 18 4 27.5t7.5 15.5t4.5 12.5t-3.5 16.5t-1 17.5t9.5 17.5q10 12 14 13t12.5 11.5 t33 15.5t44.5 7q16 2 30.5 -4t27.5 4q18 -6 24 -6t19 -2q45 -6 65 -23q12 -10 38 -14t42 -37z" />
<glyph unicode="Q" horiz-adv-x="1597" d="M674 -35q35 -10 64.5 -5t33.5 -3q2 -12 -2 -20q4 -18 1 -34t-7 -36q10 -20 -1 -32.5t-11 -29.5q0 -10 1 -22t-12 -41q-10 -20 -9 -45t-9 -39q-8 -12 12 -27q0 -4 10.5 -5t20.5 3q16 8 32.5 2t39.5 -2q14 2 28.5 -1t14.5 7t4 11.5t2 19.5q-4 23 -10.5 39t-4.5 39 q0 4 -10 32.5t-14 61.5q2 8 -2 28.5t-4 27.5q-2 10 -3 14t3 22q0 31 5 28t21 -3q20 0 41 7l54 18q18 -4 35.5 0t35 12t33.5 16t35 12q27 29 59.5 40.5t65.5 21.5q-2 6 8 23.5t22 13.5q27 12 38.5 22.5t17.5 18.5t10 16t18 21q8 14 21.5 25t17.5 20q6 16 22.5 45.5t37.5 58.5 q16 25 31.5 46.5t13.5 33.5l10 39q-4 16 -1 28.5t1 34.5q4 27 13.5 38.5t2.5 33.5q-2 6 2.5 16.5t4.5 20.5q2 18 -2.5 31.5t-2.5 23.5q2 18 -4 26.5t-10 24.5q12 10 4 15.5t-4 15.5q0 31 -11 58.5t-25.5 53t-29 51.5t-20.5 56q-18 8 -27.5 24.5t-17.5 33t-18.5 31 t-28.5 18.5q-18 14 -31.5 27.5t-36.5 17.5q-2 6 -17 15t-26 26q-37 20 -57 34.5t-66 18.5q-35 25 -73.5 35t-81.5 13t-86 3t-84 4q-16 -10 -35.5 -12t-38.5 -2q-18 0 -34.5 -2t-30.5 -14q-12 0 -28.5 -10.5t-51.5 -6.5q-35 -29 -69 -40t-68 -36q-10 -8 -22.5 -20t-23.5 -21 q-33 -27 -69.5 -50t-54.5 -62q-23 -47 -56 -87t-47 -91q4 -35 -27 -60q-4 -16 -6 -42.5t-4 -49.5q0 -8 1 -26.5t-17 -20.5q16 -29 9 -60.5t3 -54.5q12 -12 18.5 -43.5t4.5 -60.5q20 -25 32.5 -50.5t24.5 -50t26.5 -50t37.5 -50.5q29 -31 46 -52.5t39.5 -37.5t39 -23.5 t12.5 -17.5q20 -14 40.5 -28.5t37.5 -26.5l30 -2q10 -2 17.5 -9.5t17.5 -9.5q2 0 10.5 -1t17.5 -2t17 -6t12 -13q23 2 35.5 0t21.5 -6t18.5 -9.5t25.5 -11.5zM1319 799q8 -31 12 -58.5t5 -59.5t1 -71q0 -37 2 -86q-2 -8 -8 -10t-6 -10q6 -47 -11.5 -88t-29.5 -82 q-18 0 -22 -15q-8 -29 -20.5 -60.5t-31 -50t-42 -35.5t-42.5 -44q-12 -16 -30.5 -25.5t-34.5 -17.5q-10 -4 -20.5 -12t-20.5 -13q-4 -2 -18.5 -8t-36 -13t-47 -13.5t-50.5 -8.5q-10 -2 -17 0t-7 7q-4 6 -3 26.5t1 28.5q0 23 5 39t7 39q2 35 10 51t6 39q4 23 7.5 27t7.5 18 q2 8 1 21.5t-7 17.5q-8 4 -13.5 2t-11.5 0q-10 2 -24.5 1t-38.5 -1q-16 0 -27.5 -1t-26.5 -5q-8 -2 -7 -11.5t-1 -19.5q-2 -16 5 -26.5t5 -24.5q8 -29 12.5 -42.5t4.5 -37.5q0 -27 7 -54.5t9 -66.5q0 -33 -12 -29q-12 8 -30.5 7.5t-41.5 3.5q-31 8 -63.5 18t-67.5 31 q-16 10 -27.5 20t-29.5 27q-39 18 -69 57t-64 70q-14 49 -37 92t-21 94q-4 18 -19.5 37t-13.5 47q-16 57 -12 119.5t8 120.5q10 43 17.5 53t19.5 25q0 18 15 47q14 23 18 43t6 24q4 10 12.5 22.5t12.5 24.5q6 18 24 41q12 16 33 31.5t55 46.5q29 27 58.5 46.5t64.5 29.5 q16 8 33.5 15.5t40.5 11.5q29 8 52.5 12t45.5 2l27 -2q4 10 14 7t17 -3q18 -12 37.5 -9t37.5 1q74 -16 139.5 -50t112.5 -94q14 -31 25.5 -40t21 -13t15.5 -10t12 -31q2 -10 12.5 -33.5t23.5 -52t25.5 -57.5t18.5 -49z" />
<glyph unicode="R" horiz-adv-x="1087" d="M317 0q10 0 19.5 1t9.5 9q0 16 -11 37t-11 80q0 8 -3.5 14t-6.5 12.5t-3 14.5t4 25q4 14 -2 14t-6 16q0 18 4 32.5t0 20.5q-16 12 -10 20.5t4 31.5q0 16 -1 24t-2 14.5t-2 12.5t-1 16q0 18 5 24.5t3 16.5q-2 8 -4 22.5t4 20.5t16.5 8t14.5 2q12 0 18 -1t19 -1 q33 0 55 -12q4 -8 23.5 -24.5t40.5 -32.5q35 -29 43 -45q10 -18 22 -23.5t27 -15.5q10 -8 14 -18.5t10 -16.5q12 -12 34 -22.5t32 -24.5q14 -16 21.5 -26.5t17.5 -20.5q16 -16 26.5 -19.5t20.5 -22t18 -23.5t19 -21q23 -18 48 -42t46 -59q10 -18 43 -18q16 0 35.5 -2t36.5 2 q14 4 22 5t12.5 0t8.5 -3t14 -2q16 0 22.5 -2t18.5 2q10 6 6 16q-4 8 -20.5 21.5t-26.5 23.5q-16 16 -25.5 23.5t-31.5 28.5q-12 0 -26.5 13t-20.5 17q-10 10 -20.5 16.5t-20 12.5t-19.5 17.5t-22 29.5q-8 6 -13.5 8t-9.5 4t-10 4.5t-15 12.5q-2 6 -4 7t-7 3t-15 10t-27 27 q-6 8 -14 8t-4 14q-12 10 -31.5 22.5t-40.5 35.5q-10 10 -24.5 28.5t-32.5 42.5q-16 14 -19.5 15.5t-17.5 15.5q-4 4 -13.5 14.5t-9.5 14.5q0 2 8.5 4t20.5 4t23.5 4t17.5 8q2 10 66 37q8 4 11 7t6 6.5t8 6.5t19.5 7t23.5 19.5t36 31.5q16 8 29.5 25.5t23.5 36t19.5 34 t17.5 21.5t11 12t3 12q0 8 1.5 16.5t7.5 20.5q16 25 21 52.5t5 91.5q0 23 -8 54.5t-22 45.5q-8 8 -9.5 14t-1.5 13v12t-8 10q-12 6 -14 20.5t-29 30.5q-14 8 -17 12.5t-6.5 7.5t-10.5 8t-27 15q-4 2 -14.5 9.5t-22.5 15.5t-25.5 15t-25.5 7q-14 -2 -18.5 5.5t-20.5 -3.5 q-10 -4 -19.5 6.5t-15.5 16.5q-25 2 -33 2q-6 0 -33 4q-29 6 -71 6q-12 2 -24.5 1t-24.5 -3q-16 -4 -32 -10t-48 6q-4 -4 -23.5 -7t-42.5 -1q-47 4 -64.5 -8.5t-31.5 -16.5q-10 -4 -22.5 -5t-20.5 -11q-4 -4 -2 -20.5t5 -36t5 -40t0 -32.5q4 -12 6 -20.5t2 -16.5t-2 -18.5 t-2 -26.5q0 -20 2 -29.5t4 -15.5t2 -14t-6 -27q-2 -14 -1 -22.5t2 -16.5t3 -15t2 -20q0 -45 1 -67.5t-1 -59.5q-2 -12 -1 -24.5t1 -30.5q0 -23 5.5 -34t0.5 -34q-2 -16 -1 -23t2.5 -11.5t1.5 -10.5q0 -4 -3 -12q-4 -16 0.5 -20.5t4.5 -24.5q0 -29 -5.5 -39t-1.5 -29 q0 -12 4.5 -16t-12.5 -20q8 -16 6 -29.5t0 -30t-1 -43t-3 -72.5q0 -33 -2 -65.5t-2 -42.5q0 -16 -7 -31.5t-1 -30t4 -14.5l-4 -8q-4 -12 -9 -17.5t-1 -15.5q12 -12 35 -12q4 0 26.5 2t30.5 2h65zM311 1020q0 12 6.5 16t1.5 37q-2 14 -1 27.5t4 23.5q2 16 2 33q0 16 8 25 l14 14t27 16q35 20 88 21q20 0 44.5 -3t47.5 -3q20 0 33.5 -4t22.5 -10.5t16.5 -10.5t17.5 -4q12 0 17.5 -4t8.5 -10t6 -12.5t13 -10.5q33 -14 43 -36.5t29 -47.5q20 -27 23 -41t8 -41q2 -12 4 -16t4 -7t0 -7t-8 -19q-4 -8 4 -15t6 -26q-2 -20 -3 -32.5t-5 -22.5 q-10 -23 -8.5 -34t-6.5 -36q-4 -10 -2 -14t2 -10q0 -4 -4 -9.5t-18 -13.5q-8 -6 -10.5 -12t-4.5 -15.5t-7 -19.5t-19 -24q-16 -14 -40 -37t-50 -35q-16 -8 -26.5 -16.5t-45.5 -2.5q-12 -14 -26.5 -18t-28.5 -4t-26.5 2t-16.5 2q-10 -2 -15.5 -6t-25.5 -4q-14 0 -38 1t-34 11 q-6 8 -17.5 13t-15.5 16q-4 20 -6 33.5t2 29.5q6 20 1 25.5t3 23.5q4 10 -2 40t-6 44q0 20 4 31.5t4 28.5q0 16 -6 19t0 22q6 16 2 33.5t0 39.5z" />
<glyph unicode="S" horiz-adv-x="995" d="M874 459q-10 18 -26.5 39.5t-32.5 36.5q-12 10 -12 18t-23 20q-6 4 -13 14.5t-13 6.5q-14 -2 -20.5 0t-8.5 7l-4 10t-8 10q-39 23 -84 50t-86 56q-29 20 -43.5 28.5t-30.5 26.5q-6 6 -10 5t-10.5 -2t-14.5 0t-20 12q-25 20 -30 28.5t-19 26.5q-10 12 -21 12q-8 0 -22 15 q-16 16 -23.5 33.5t-11.5 29.5q-10 31 -11 59q0 29 7.5 37.5t5.5 30.5q-2 33 4 46t14 24q10 14 21.5 21t15.5 16q4 16 18.5 22t30.5 14q10 4 29.5 11.5t42.5 7.5q10 0 22.5 -1t26.5 -1q29 0 45 -8q6 -4 14.5 -5.5t8.5 -19.5q27 -4 42 -15.5t21 -21.5q25 -41 27 -106 q0 -6 3 -15.5t7 -13.5q10 -6 35.5 0t48.5 -2q10 -4 22.5 -2t28.5 2q4 0 9 2t8 18q0 6 -5.5 30t-9.5 36q-6 29 -21.5 47.5t-25.5 40.5q-4 10 -21.5 20.5t-27.5 20.5q-16 16 -50 26.5t-52 14.5q-20 4 -50 9t-57 5q-10 0 -14 -3t-25 1q-6 -6 -14 -10t-17 4q-12 4 -15 -1t-30 -9 q-20 -4 -29.5 -8t-13.5 -6q-25 -4 -35 -8.5t-14 -7.5t-5 -6t-7 -7q-20 -12 -46 -30.5t-42 -33.5q-12 -10 -6 -15t-13 -9q-10 -10 -11 -25.5t-21 -23.5q-14 -8 -17.5 -34t-3.5 -79q0 -35 10.5 -64.5t22.5 -52t23.5 -37t15.5 -18.5q16 -16 31.5 -28.5t27.5 -32.5 q12 -18 22.5 -22.5t20.5 -6.5t21.5 -10.5t23.5 -32.5q45 -8 84 -33q18 -10 40 -25.5t40 -25.5q31 -18 68 -46t67 -57q18 -16 27.5 -20t13.5 -18q4 -18 13.5 -24.5t17.5 -8.5t13 -4t3 -10.5t1 -16.5t8.5 -20.5t9.5 -31t4 -48.5q0 -27 -4 -32t-2 -22q2 -20 -1 -29t-8.5 -14.5 t-9.5 -8.5t-4 -9q2 -31 -7 -42t-15 -19.5t-17.5 -19.5t-26 -21.5t-27.5 -17.5t-21 -5q-16 2 -19.5 -2t-9.5 -11t-26.5 -13.5t-69.5 -6.5t-59.5 9.5t-22.5 13.5q-10 4 -18.5 3t-14.5 -1q-18 2 -13 10t-8 14q-10 4 -25.5 8.5t-31.5 14.5t-23.5 22.5t-15.5 34.5q-4 10 -7 15.5 t-6 10.5t-7 12t-11 24q-4 12 -9 37.5t-1 48.5q0 25 2 33t-4 14q-6 4 -20.5 5t-24.5 1q-4 0 -8 -1t-16 -1q-20 0 -26.5 3t-21.5 3q-10 0 -20 -4t-14 -10q-6 -10 -3 -22.5t3 -26.5q0 -31 9 -54.5t17 -56.5q4 -16 10.5 -22.5t12.5 -10.5t8 -8t-4 -16q12 -6 17 -10.5t8.5 -8.5 t7.5 -12t16 -23q12 -16 18.5 -20t12.5 -5t14 -4t21 -16q10 -10 27.5 -9t21.5 -11q10 -4 14 -4t21 -8q10 -4 20 -1t14 -5q2 -4 20.5 -8.5t41 -7.5t45 -5t35.5 -2q31 0 52 2t36.5 4t27 5t25.5 7q29 6 48.5 17.5t33.5 17.5q10 4 32.5 15.5t37 30t35 28.5t28.5 37q-6 6 -3 9t8 6 t8 7t1 13q4 14 9.5 20t8.5 11.5t6 11.5t3 18q0 8 4 10t7 4t4 8.5t-3 24.5q-2 8 -2 12t1 10.5t2 15.5t1 26q0 41 -6 64.5t-29 66.5z" />
<glyph unicode="T" horiz-adv-x="1200" d="M721 1180q2 -4 16.5 -2t24.5 2t20.5 2t30.5 -2q6 -2 17.5 -1t25.5 -1q14 0 24.5 -6.5t20.5 -6.5q18 6 33.5 0t26 -10t20.5 -3t25 -3q6 -2 11 0t10 3t9 -2t11 -17q10 -2 18 -3q10 0 20.5 -4t22.5 -5t22 -3q6 -2 16.5 -6t20.5 -8q6 -4 12.5 -1t12.5 7q8 2 2 20q-4 16 0 17 q6 0 4 6q-4 10 -2 16.5t4 11.5t3 12t-3 19q-4 14 5 25.5t3 22t-12 8.5t-25 2q-12 2 -17 -5.5t-28 -0.5q-16 4 -24 -2.5t-41 -1.5q-23 2 -35 -3.5t-35 -5.5q-10 0 -39.5 -4t-58.5 -4q-43 0 -76 -3t-43 -1q-16 0 -23.5 -1t-14.5 -2t-16 -3t-26 -2q-29 0 -45 1t-53 -3 q-20 -2 -29.5 -1t-16.5 2t-19.5 3t-38.5 2q-16 0 -17.5 -3t-15.5 1q-12 4 -22.5 1t-26.5 -1l-42 7t-44 -3q-8 -4 -13.5 -3t-9.5 5t-8 7t-10 1q-8 -2 -20.5 -1t-29.5 -1q-12 -2 -27.5 4t-31.5 8q-8 -10 -16 -10q-6 0 -14.5 3t-15.5 6.5t-13 3.5h-31q-10 0 -31 4q-8 2 -17 4 t-20 -2q-12 -6 -9 -10.5t-1 -14.5q-4 -16 2 -17t-2 -12q-2 -2 0 -11t4 -20.5t2 -25.5q0 -12 -6 -22q-4 -10 -1 -18.5t7 -12.5q8 -6 37 8q20 10 33.5 11t22 0t12.5 -1t8 10q31 20 40 15.5t15 -4.5t16.5 8t22.5 6q10 -2 22.5 1t32.5 5q20 4 40 7t42 -7q16 6 28.5 10.5 t29.5 4.5q16 0 45.5 3t50.5 -1q10 -4 13 -10.5t7 -28.5q4 -12 3 -21.5t-1 -19.5q0 -20 3.5 -46t-3.5 -40q-4 -8 -0.5 -19.5t6.5 -24t5 -22.5t0 -12q-8 -12 -9.5 -17.5t1 -8.5t5.5 -4t3 -7q4 -29 2 -50.5t2 -39.5q0 -33 2 -57.5t-4 -38.5q-8 -16 -7 -23.5t3 -12.5t4 -13.5 t-2 -28.5q-2 -8 -3 -11.5t0 -8.5t3 -13t6 -27q4 -23 -3 -42t-3 -46q2 -16 -1 -23t-5 -13.5t-3.5 -12.5t5.5 -20q8 -18 7 -41t-4 -44.5t-7.5 -38t-2.5 -22.5q6 -33 8.5 -54t-6 -31.5t-9.5 -18.5t1 -16.5t2 -16.5t-4 -20q-6 -20 -7 -48t-11 -63q4 -10 18.5 -6t26.5 6 q16 2 39.5 -2t54.5 -2t45.5 0t11.5 6q4 10 -3 21.5t-1 48.5q2 14 0 20t-5 11.5t-5 11.5t-2 20q2 23 -6 35t-6 43q2 20 5 42t-1 48q-8 0 -9 9.5t1 24.5t3 34.5t-3 40.5q-8 39 -4 60.5t6 57.5q2 25 -5.5 53.5t1.5 43.5q6 16 7 26.5t-1 21.5t-4 28.5t-2 48.5q2 33 0 74.5 t8 80.5q-10 10 -2 21.5t4 21.5q-4 14 -2 30.5t8 35.5q4 16 1 24.5t-6 14.5t-3 10q0 6 10 18q-4 23 -5 42.5t5 41.5q4 4 14.5 5.5t20.5 5.5z" />
<glyph unicode="U" horiz-adv-x="1386" d="M729 31q-16 0 -28.5 5t-28.5 5q-20 0 -41 -3t-31 13q-35 2 -45 16.5t-33 30.5q-47 25 -84 61t-61 87q-25 -2 -21 45q2 29 -12 45t-18 32.5t0 27t-4 44.5q-4 18 -11.5 48t-5.5 42q4 25 2 49.5t-2 75.5v72q4 68 2 124t-12 69q0 29 3 59.5t7 60.5q6 41 11.5 80t5.5 80v29 q0 14 -3 28q-35 6 -67 7q-35 0 -72 -7q0 8 -8 9q-8 0 -12 -2q-23 -4 -20 -15.5t-3 -27.5q12 -27 11 -62t10 -63q2 -6 -5.5 -10.5t1.5 -10.5l-7 -6q8 -12 3 -28.5t14 -24.5q-6 -47 -6 -94t8 -88q4 -16 4 -31q0 -12 2 -27v-35q0 -41 -3 -79.5t-7 -79.5q10 -10 11 -19.5 t-1 -18.5t-6 -19.5t-2 -18.5q6 -23 9 -49.5t4 -52t2 -50t5 -43.5q-2 -29 9.5 -47t13.5 -37q23 -16 30 -40.5t25 -49.5q25 -14 42.5 -34.5t45.5 -20.5q0 -20 17.5 -24.5t27.5 -10.5q10 2 16.5 -4t12.5 -14.5t14 -14.5t23 -4q27 -16 59.5 -19t54.5 -11q27 0 34 -4.5t34 -10.5 q10 -6 18.5 -2t24.5 8h45t23 6q23 0 38 6.5t31 6.5q12 6 25.5 5t28.5 -1q14 0 27.5 3t25.5 17q10 4 19 12.5t18 8.5q10 10 23.5 13t21.5 9q29 10 48 31t42 33q10 23 30.5 42t36.5 42q16 25 24.5 51.5t16.5 50.5q16 53 24.5 128t4.5 165q0 12 5 26.5t5 32.5q0 12 -2 16.5 t-4 7.5t-4 7t-2 15q0 6 4 10t7 10t2 18.5t-11 34.5q-2 4 -1 20.5t2 38t3 47t2 50.5q2 25 -3 45t-5 29q2 8 8 20t-8 19q14 29 15 60.5t-3 63.5q-2 20 2 42t0 32q-2 4 -14 7t-23 3q-20 0 -40.5 -4t-34.5 -4t-21.5 6.5t-19.5 1.5q-8 -2 -15.5 -4t-9.5 -12q-4 -18 0 -21.5 t4 -11.5q6 -20 9.5 -42.5t5.5 -47.5q2 -16 3 -34.5t1 -34.5q0 -23 5 -43.5t9 -42.5q6 -10 3 -23.5t-3 -24.5q6 -10 6 -20q0 -8 -3 -18.5t-5 -19.5t2 -19q6 -16 7 -29.5t0 -26t-2 -26t1 -31.5q4 -41 -5 -76t-5 -49q10 -16 9 -31.5t1 -29.5q4 -25 -5 -45.5t-7 -42.5 q4 -37 -3 -69t-11 -54q-8 -35 -18.5 -57.5t-23 -40t-24.5 -30t-25 -24.5q-10 -12 -10 -18v-9q0 -4 -6 -8t-27 -10q-14 -4 -23 -23.5t-44 -33.5q-45 -18 -88 -29.5t-72 -11.5z" />
<glyph unicode="V" horiz-adv-x="1273" d="M582 27l19 -47.5t13 -12.5q6 0 12.5 2t16.5 6q16 6 29 15q10 8 14 22.5t14 32.5q12 27 23.5 45.5t17.5 34.5q4 14 15.5 32.5t15.5 32.5q10 25 22.5 43.5t22.5 35t13.5 32.5t21.5 25q10 14 15 35.5t22 58.5q10 20 22.5 51t22.5 53q10 20 25.5 35.5t15.5 26.5q0 23 4 37 t18 41q14 25 23.5 28.5t13.5 22.5q2 14 8.5 31.5t26.5 50.5q23 37 30 50t13 38q2 6 5 5t6 1t7.5 13t8.5 40q16 23 37.5 59.5t35.5 65.5q8 14 12.5 20.5t7.5 9.5t6 5t7 8q10 18 13.5 31.5t13.5 32.5q8 16 14 21t12 24q4 10 10.5 14t4.5 12q-2 10 -19.5 9t-31.5 -1 q-10 2 -27 2q-16 0 -31 3q-12 0 -18 -4.5t-35 -0.5q-8 2 -20.5 1t-14.5 -5q-4 -4 -5 -21.5t-7 -21.5q-8 -6 -9 -13t-1 -17v-19q0 -10 -7 -20q-4 -10 -6 -18.5t-10 -16.5q-16 -16 -13 -38t-5 -40q-10 -23 -22.5 -54.5t-18.5 -47.5q-6 -18 -13.5 -42t-17.5 -42 q-14 -27 -14 -49q0 -20 -23 -37q-16 -12 -17 -40t-16 -42q-16 -16 -19 -33.5t-9 -36.5q-2 -6 -7.5 -21.5t-12.5 -30.5t-14 -29.5t-13 -20.5q0 -14 -2.5 -19.5t-5.5 -9.5t-7 -8t-8 -14.5t-7 -19.5t-11 -30q-6 -16 -18.5 -43.5t-26 -57.5t-26.5 -57.5t-19 -39.5 q-10 -18 -13.5 -23.5t-11.5 -5.5q-10 0 -27.5 27.5t-21.5 46.5q-4 20 -13.5 24t-19.5 21q-4 10 -11 29.5t-24 48.5q-12 23 -16 34t-10 31q-18 27 -30.5 47.5t-25.5 55.5q-4 8 -10 22t-13 29.5t-13.5 29t-8.5 19.5q-23 55 -40 102t-23 64q-10 4 -11.5 12t-1.5 19q0 10 -2 23 t-14 28q-16 18 -30.5 57t-30.5 84q-6 16 -5 28.5t-14 28.5q-10 12 -10 31q0 20 -6 45q-2 10 -9.5 17.5t-11.5 21.5q-6 18 -6 27q0 8 -6 24q-2 6 -12 8.5t-22.5 1t-25 -2.5t-18.5 -1q-10 0 -18 3.5t-17 -3.5q-23 2 -31 4.5t-22 0.5q-14 0 -31.5 1t-17.5 -10q0 -14 7 -24 t9 -19q2 -10 7.5 -13t11.5 -6t10 -8t6 -18q-10 -14 2.5 -24.5t18.5 -20.5q0 -25 18.5 -46t28.5 -43.5t21.5 -39t11.5 -35.5q0 -18 5 -23t11 -7l12 -4t8 -11q-6 -4 -0.5 -16t15.5 -29q10 -20 25.5 -46.5t31.5 -65.5q2 -6 12.5 -29t21.5 -50.5t23.5 -55t20.5 -44.5 q6 -14 6 -20q0 -4 -1 -7t-2 -7t3 -15q8 -20 15.5 -30.5t13.5 -17.5t12 -16t16 -28q10 -20 24.5 -51t31 -65.5t33 -69.5t28.5 -64q16 -2 14 -14t-2 -25q0 -16 6.5 -20t16.5 -27z" />
<glyph unicode="W" horiz-adv-x="1763" d="M367 786q-6 18 -18.5 48t-22.5 53q-10 27 -8.5 41t-2.5 37q-16 8 -20 12t-3 10t3 18.5t0 38.5q-18 10 -29.5 37t-17.5 58q-10 41 -13.5 77.5t-13.5 38.5q-2 0 -13 1t-26 1h-30q-14 0 -27 3q-18 4 -36.5 3t-57.5 -12q-14 6 -18.5 1t-2.5 -13t6 -17.5t7 -11.5 q12 -16 25 -39.5t26 -33.5l4 -29q8 -14 16 -25.5t10 -42.5q0 -20 8.5 -32.5t18.5 -22.5t17.5 -23.5t7.5 -37.5q23 -4 30 -5t-10 -22q6 -12 11.5 -22.5t10.5 -22.5t11 -29.5t18 -44.5q10 -25 31 -58.5t27 -60.5q10 -41 27.5 -63.5t29.5 -58.5q10 -27 16.5 -42.5t18.5 -48.5 q10 -27 24.5 -54t22.5 -42q23 -41 26 -67.5t17 -41t19.5 -21.5t7.5 -14t3 -14.5t5 -21.5q18 -45 29.5 -69.5t23.5 -55.5q10 -29 21.5 -53.5t19.5 -24.5q16 10 25.5 13.5t13.5 9.5q8 16 26.5 49t28.5 55q8 18 19.5 45t22.5 54.5t21.5 50t16.5 35.5q8 14 8 20v14t3 13.5 t18 23.5q8 27 18 46.5t31 66.5q16 37 25.5 56.5t19.5 39.5q6 14 9 26.5t7 12.5q-2 0 6 -23q10 -25 20.5 -54t14.5 -40q2 -20 9.5 -40.5t17.5 -28.5q16 -10 19 -33t8 -39q4 -18 8 -23.5t7 -6.5t6 0t3 -5q2 -23 6 -32t9.5 -14t10.5 -10t5 -20q4 -10 13 -28.5t13 -34.5 q2 -8 11.5 -29.5t19.5 -46t18.5 -46t12.5 -30.5q4 -10 11 -28.5t18 -18.5q10 0 20 7.5t21 11.5q14 35 27 62.5t28 57.5q12 29 23.5 54.5t21.5 52.5q10 25 24.5 47.5t20.5 52.5q2 8 10 28.5t19.5 46.5t25 54.5t25.5 55.5q16 31 27.5 53t19.5 45q-10 4 -8 11t10 9q4 8 10 11.5 t10 13.5q4 8 6.5 21.5t8.5 17.5q12 18 8 24.5t4 16.5q6 16 8 16q4 0 15 17q2 23 19 53.5t40 77.5q16 37 38.5 72.5t25 50t4.5 18.5t3 5l3 3t6 13q6 18 11 22t9 7t6.5 10.5t2.5 27.5q18 6 19 25.5t11 36.5q8 10 12.5 14t8.5 29q2 12 12 18t6 16q-2 4 -11 3t-24 -1 q-14 2 -21 -2t-30 0q-8 6 -21.5 3t-23.5 -3q-14 0 -28.5 4.5t-24.5 -2t-12.5 -28t-6.5 -41.5q-4 -14 -8 -27.5t-6 -23.5q-6 -23 -8 -29l-3 -9t-4 -8.5t-12 -23.5q-6 -10 -4 -13t3 -8.5t-2 -12.5t-17 -21q8 -10 4 -20.5t-10 -22t-9 -21.5t7 -18q4 -16 -7.5 -22.5t-11.5 -24.5 q-20 -10 -18 -26.5t-4 -35.5l-96 -250q-23 -23 -21 -38t-8 -31.5t-18.5 -24.5t-14.5 -22q-4 -10 -6 -28.5t-10 -43.5q-10 -31 -25.5 -68t-36.5 -77q-8 -16 -14 -36t-23 -20q-6 0 -16 13.5t-20.5 33t-20.5 40t-12 36.5q-14 16 -10 32.5t-13 33.5q-12 12 -15 25.5t-3 23.5 q0 12 -2 22.5t-10 18.5q-12 10 -31 47t-33 72q-10 23 -17.5 41t-19.5 47q-6 14 -11 27.5t5 29.5q0 23 17.5 53.5t27.5 52.5l18.5 37t18.5 39q6 12 13 20.5t14 30.5q10 31 24 34t17 18q4 16 14 35.5t20 31.5q10 14 12.5 18.5t12.5 24.5q6 14 13 20.5t11.5 9.5t7.5 7t3 16 q6 16 19.5 32t17.5 36q4 10 -7.5 13t-15.5 3q-16 0 -24.5 -1t-22.5 1q-16 -4 -26.5 1.5t-22.5 5.5q-10 4 -53 -7q-8 -6 -4 -11t-1 -11q-6 -14 -8 -26.5t-6 -22.5t-7 -16.5t-5 -28.5q0 -10 -2 -13.5t-5 -7.5l-7.5 -10t-10.5 -21q-6 -20 -9 -35.5t-5 -27.5t-6 -23.5t-15 -21.5 q-6 -6 -5 -11t1 -12q0 -6 -2 -14t-10 -20q-10 -10 -15 -31t-9 -31q-6 -16 -16.5 -39.5t-16.5 -23.5q-2 0 -8.5 12t-13.5 29.5l-14 35t-11 29.5q-8 18 -9 31q0 14 -14 43q-12 25 -15 40t-4 27.5t-4.5 20.5t-11.5 16q-12 10 -7 16.5t1 20.5q-6 16 -11 27.5t-9 30.5 q-4 10 -3 15t-3 21q-6 20 -7 37q0 6 -24 6q-27 0 -46.5 3.5t-35.5 -3.5q-12 -4 -15.5 -3t-5.5 4.5t-5 4.5t-15 -6q-10 -4 -11 -1t-10 3h-18t-10 -4q-6 -23 3 -31t19 -24q14 -25 23.5 -36t13.5 -38q2 -14 20.5 -27.5t22.5 -42t20.5 -42t22.5 -35.5q4 -16 13.5 -31.5 t13.5 -27.5q6 -16 18.5 -23.5t7.5 -26.5q-2 -12 1.5 -15t7.5 -8t9 -13.5t9 -28.5q6 -8 13.5 -22.5t13.5 -28t11 -25.5t7 -14q6 -12 10 -22.5t0 -21t-24.5 -53.5t-42.5 -94q-29 -59 -44.5 -93t-27.5 -52q-8 -12 -15 -23.5t-12 -19.5q-10 -23 -6 -31t-2 -20q-4 -10 -11 -14.5 t-11 -12.5t-1 -18.5t-1 -20.5q-6 -16 -15.5 -26.5t-17.5 -10.5q-12 0 -24.5 30t-22.5 52q-2 4 -8.5 20.5t-14.5 36t-15 41t-11 37.5q2 12 1 14.5t-5.5 4.5t-9.5 6t-7 16q-14 23 -14 33v16q0 8 -3 17.5t-24 32.5q-12 14 -24.5 42.5t-20.5 47.5q-6 14 -5 22t1 15q0 6 -3 12 t-15 16q-12 8 -23.5 37.5t-21.5 56.5z" />
<glyph unicode="X" horiz-adv-x="1210" d="M815 885q6 10 11 13t9.5 4t7.5 2t7 7q10 27 17 30t18 13q10 12 25.5 33t23.5 25q20 14 22 21t15 24q18 27 34.5 34t26.5 29q6 10 9 12.5t6 2.5q4 0 8 2t10 14q4 10 21.5 27.5t27.5 31.5q8 12 18.5 21.5t10.5 17.5q0 10 -29 11q-27 4 -51 -5q-10 -2 -23 -2q-23 0 -36 2 t-25 2q-10 0 -18.5 -1t-10.5 -7q-4 -14 -8 -25.5t-16 -21.5q-10 -6 -9 -20.5t-18 -26.5q-8 -6 -17.5 -26.5t-15.5 -30.5q-10 -16 -17 -19.5t-15.5 -13.5t-10.5 -16.5t-2 -12.5q0 -4 -1 -8t-7 -10q-10 -10 -16 -20.5t-15 -18.5q-10 -8 -16 -29.5t-23 -27.5q-20 -8 -21 -21.5 t-9 -26.5q-12 -20 -22.5 -33.5t-22.5 -29.5q-16 -20 -25.5 -32.5t-19.5 -12.5q-4 0 -13.5 9t-19.5 24q-6 10 -3 15t-1 9q-8 10 -13.5 11.5t-15.5 13.5q-4 8 -14.5 20.5t-26.5 34.5q-8 10 -8 17q0 6 -12 14q-6 4 -15.5 14t-15.5 19q-4 4 -2 7t2 7q0 6 -5 14.5t-24 20.5 q-14 10 -20 25.5t-17 25.5q-16 20 -19 32.5t-15 22.5q-12 12 -11.5 14.5t-5.5 6.5q-10 6 -12 6t-12 16q-6 10 -7 23q0 14 -14 20q-10 18 -11 27.5t-18 19.5q-8 4 -20 2t-25 -4q-20 -2 -25 2.5t-20 4.5q-10 0 -35.5 -2.5t-50.5 -2.5q-16 0 -27.5 -5t-9.5 -9q4 -12 12.5 -14 t18.5 -29q4 -6 17.5 -16.5t17.5 -18.5q12 -25 20 -24q8 0 21 -17q4 -6 14.5 -15t16.5 -20q10 -16 15 -13t7 -11q2 -12 11.5 -17.5t21.5 -15.5q4 -4 8 -12t14 -19q29 -23 50.5 -49t23.5 -32q10 -29 20.5 -37.5t19.5 -10.5t15.5 -7t10.5 -25q27 -20 31 -30.5t16 -25.5 q16 -18 30.5 -36.5t24.5 -28.5q16 -14 25.5 -26.5t7.5 -16.5q0 -2 -4 -10.5t-15 -20.5q-8 -12 -14 -15t-22 -20q-6 -6 -7.5 -17t-27.5 -40q-2 -4 -4 -3t-5 0t-8.5 -7t-11.5 -25q0 -8 -11 -13t-20 -7q-4 -14 -34.5 -54.5t-69.5 -84.5t-75 -84t-50 -54q-10 -10 -11 -16 t-2 -9.5t-6.5 -5.5t-23.5 -8q-23 -12 -41 -41.5t-37 -48.5q-14 -14 -27.5 -29.5t-29.5 -25.5q-10 -8 -10 -25q0 -14 16 -10q10 -2 20.5 1t22.5 -1q14 -4 54 0t77 -6q8 -2 17.5 9t11.5 30q2 16 12 19t12 22q2 16 15.5 19t19.5 24q6 23 18.5 41t26.5 41q23 39 44.5 69.5 t43.5 69.5q6 10 13 10q8 0 22 19q4 4 7 12t9 22q10 18 14.5 21.5t8.5 17.5q4 12 11 15.5t12 7.5q6 12 5 18t11 21q14 16 27.5 37.5t23.5 31.5q6 10 17.5 22.5t17.5 12.5q4 0 13 -11t22 -28q8 -10 7 -18t9 -19q12 -12 16.5 -9t10.5 -7q10 -16 24.5 -34.5t28.5 -36t25.5 -31 t13.5 -17.5q12 -20 15 -33.5t16 -29.5q6 -8 14 -9t18 -16q8 -12 11.5 -17t3.5 -9q0 -2 -1 -3.5t3 -5.5q10 -10 26.5 -32.5t28.5 -38.5q20 -29 32.5 -44.5t14.5 -37.5q0 -6 4 -9.5t10.5 -6.5t11.5 -9t5 -18q12 -2 15 -5t4 -9.5t1 -14.5q0 -6 7 -14q12 -16 13 -29.5t17 -13.5 q18 0 26.5 5t29.5 5q8 0 30.5 -3t22.5 3q23 8 30 4t15 -4h31q18 0 18 10q0 6 -11.5 16.5t-29.5 30.5q-14 16 -30.5 31.5t-24.5 26.5q-23 27 -28 42t-19 27q-10 10 -14.5 20.5t-26.5 16.5q-10 10 -20.5 17.5t-16.5 19.5q-10 18 -8 27.5t-9 17.5q-12 16 -24 20.5t-29 26.5 q-2 4 -12 16.5t-24.5 29t-30 36t-27.5 35.5q-8 12 -14.5 27.5t-12.5 23.5q-8 8 -14 10t-11 5.5t-9.5 11.5t-10.5 30q-27 4 -34 22.5t-29 41.5q-18 18 -33.5 38.5t-15.5 24.5q0 10 12 25.5t20 26.5q6 8 9.5 9t5.5 1t4 2t4 8q4 10 19.5 25.5t25.5 31.5q8 12 16.5 18.5 t14.5 9.5t10 8.5t6 17.5z" />
<glyph unicode="Y" horiz-adv-x="1060" d="M856 930q4 8 6 11t5 4t7.5 5t10.5 15q20 33 42.5 48t26.5 38q2 8 4.5 11t5.5 4t6 4t7 13q2 10 12 20.5t21.5 18.5t20.5 15.5t11 13.5q8 23 26.5 39t25.5 35q2 4 13 12t1 16q-4 2 -16.5 1t-16.5 1q-16 4 -17 -1t-14 -5q-10 0 -11 5.5t-13 0.5q-16 -4 -31.5 1.5t-25.5 5.5 q-18 0 -31 -7q-6 -4 -8 -17t-13 -30q-4 -10 -14 -17t-16 -26q-4 -8 -10.5 -31.5t-22.5 -35.5q-8 -6 -9 -28.5t-14 -22.5q-14 -16 -12 -27.5t-16 -26.5q-12 -10 -15.5 -23.5t-13.5 -33.5q-4 -10 -12 -23.5t-17 -25.5q-10 -18 -16 -19.5t-16 -17.5q-12 -18 -11.5 -29.5 t-9.5 -23.5q-23 -31 -33 -49.5t-20 -24.5q-10 -4 -12.5 -7t-2.5 -7t-1 -10.5t-7 -14.5q-20 -29 -31.5 -44t-21.5 -15t-26.5 21.5t-30.5 43.5q-4 8 -19.5 33t-31.5 57q-16 0 -20.5 3t-5.5 10.5t-1 17.5t-8 23q-18 29 -44 70.5t-42 68.5q-10 16 -16.5 39.5t-14.5 27.5 q-14 -4 -20.5 5.5t-10.5 24.5t-11 34.5t-22 34.5q-23 29 -31.5 52t-13.5 34q-8 16 -12 23t-14 7q-27 0 -41.5 -2t-32.5 9q-10 0 -30.5 -5.5t-47.5 -1.5q-12 2 -29.5 6.5t-19.5 -12.5q0 -10 9.5 -14t13.5 -14q6 -23 10 -29t9 -9t12.5 -6t19.5 -18l29.5 -29.5t29.5 -44.5 q6 -16 11.5 -18t9.5 -2q6 0 9 -4t5 -21q2 -14 19.5 -24t27.5 -37q2 -8 12.5 -23.5t22.5 -32t24.5 -33t20.5 -28.5q10 -16 26.5 -40.5t32.5 -45.5q6 -8 5 -20.5t4 -18.5q6 -6 10 -9l8 -6t10 -10t13 -26q10 -23 18 -26t18 -19q31 -45 33 -66q4 -16 12.5 -26t12.5 -27 q6 -23 6 -24v-13q0 -23 4 -35t2 -36q6 -16 -2 -19.5t-4 -13.5q2 -6 3 -23.5t-1 -29.5q-4 -18 1 -39t1 -39q-6 -37 -10 -41t-6 -14q-4 -23 2 -32t4 -19.5t1 -16.5t-1 -29q-4 -25 -12.5 -50t-8.5 -44q2 -2 8.5 -3t12.5 -5t13 -1t25.5 5t36 -2t34 -2t27.5 4t11 20q0 4 -7 23.5 t-1 30.5q0 14 -2 20t-4 12.5t-4 16.5t-2 33q0 20 2 39.5t0 35.5q-2 12 -4 41t6 52q-6 16 -5 28.5t1 28.5q0 14 5 21.5t-5 35.5q-4 8 -1 12.5t6 9.5t5 12t-2 20q-4 10 7 32.5t24 48.5q10 18 26.5 50t34.5 49q10 8 10 16t11 12q6 27 17 31t24 23q2 23 20 49q8 10 19.5 26.5 t15.5 22.5q2 6 7 8t10 6t9.5 11.5t4.5 23.5q4 14 9 13.5t13 15.5z" />
<glyph unicode="Z" horiz-adv-x="1173" d="M45 68q-16 -18 -18 -27.5t-2 -24.5q0 -16 15 -19t21 -3q8 0 10.5 3t26.5 1q23 -2 47.5 -4t47.5 -2q12 4 29.5 10t45.5 -4q4 2 23.5 3t46.5 1q29 0 59.5 -1t57.5 -1q41 12 55 5t20 -7q16 0 74 1t123 1q68 0 129.5 -2t85.5 -4q31 -4 52.5 -3t39.5 -3q23 -4 39.5 -5t26.5 5 q8 4 16 -3.5t12 1.5q10 23 6 41t-4 24q2 23 6.5 51.5t0.5 32.5q-10 10 -20.5 6t-43.5 -6q-10 0 -25.5 -5t-32 -11t-31.5 -9.5t-28 -0.5q-23 4 -37 0.5t-26 -8.5t-26.5 -8t-39.5 1q-10 2 -25.5 -3t-33.5 -10t-39.5 -9t-40.5 0q-12 2 -16 1t-7 -2t-10 -1q-4 0 -16 4 q-14 4 -34.5 -4.5t-53.5 -3.5q-25 4 -41 -0.5t-39 -2.5q-27 2 -48.5 5.5t-43.5 7.5q-6 0 -23.5 1t-36 2t-34 4t-15.5 9q-6 16 13 47q16 27 25 42.5t32 39.5q10 12 15 15.5t9.5 6.5t7.5 9t9 24q4 12 9 14.5t16 18.5q12 20 31.5 33.5t21.5 50.5q8 12 24.5 31.5t34 41t34.5 44 t32 41.5q25 33 63.5 73t57.5 68q20 33 45.5 58.5t37.5 44.5q6 16 11.5 21t9.5 5t7 -1t7 3q12 16 14.5 28.5t14.5 29.5q10 12 22.5 18t32.5 31q4 6 4 10t2 9t6.5 11.5t18.5 18.5q23 41 41 58.5t31 45.5q6 16 12 24.5t11 13.5l10.5 10.5t11.5 15.5t19 25.5t18 19.5 q4 16 11 23.5t3 23.5q-2 8 -9 12t-26 4q-16 -4 -29 -4h-24t-27.5 1t-42.5 1q-10 0 -18 -2t-43 -2q-4 0 -23.5 -1t-45 -3t-56.5 -2q-29 0 -53 2q-16 2 -21.5 1t-8.5 -3t-8 -3t-20 -1q-8 0 -20.5 2t-20.5 4q-14 2 -23 -3t-36 -5q-23 0 -41 3t-36.5 6t-38 4t-44.5 -1 q-20 -2 -54 2t-56 4q-16 0 -23.5 2.5t-12.5 3.5t-12.5 3t-23.5 2q-12 0 -27.5 -4.5t-44.5 6.5q-18 6 -20 -5.5t-8.5 -27.5t-3 -24.5t-1.5 -36.5q-6 -6 -3 -21.5t3 -28.5q0 -12 13.5 -10t17.5 2q10 0 30.5 10.5t53.5 6.5q23 -4 36 4t36 12q35 4 53 6t37 6q10 2 39 3t33 3 q35 8 67 9h68q16 0 32.5 4t41.5 -6q20 -10 35.5 -4t29.5 8q23 -4 39 -6.5t45 -2.5q18 0 34.5 -2t22.5 -10q4 -4 4 -10q0 -4 -6 -19q-10 -23 -29.5 -46t-41.5 -50q-16 -20 -25.5 -35.5t-14.5 -28t-9.5 -22.5t-12.5 -22.5t-27.5 -39t-41 -57t-41 -58.5t-27.5 -38 q-16 -20 -30.5 -27.5t-28.5 -23.5q-16 -18 -22.5 -33.5t-16.5 -28.5q-16 -25 -41 -57.5t-58 -73.5q-16 -23 -54 -67.5t-73 -81.5q-20 -23 -39.5 -48.5t-37.5 -41.5q-12 -10 -20.5 -15.5t-12.5 -9.5q-10 -10 -18.5 -29.5t-27 -40t-38 -45t-33.5 -40.5z" />
<glyph unicode="[" horiz-adv-x="593" d="M270 336q-2 61 5.5 100t-11.5 62q2 33 3 91t2 115.5t2 101.5t1 48q0 20 3.5 49t5.5 58.5t1 56t-10 45.5q0 29 2 46t4.5 29.5t4.5 27t2 36.5q0 39 -1 75t17 54q10 10 19.5 13.5t18.5 5.5t16 4t16 10q12 12 38.5 11t36.5 7q16 12 36 11.5t36 1.5q18 10 39 8t21 16 q0 20 -17 54q-4 12 -22 12q-10 0 -30 -7.5t-54 -19.5q-20 -6 -33.5 -10t-48.5 -14q-27 -6 -45.5 -12.5t-63.5 -14.5q-33 -6 -64.5 -12t-48 -16.5t-12.5 -23t11 -36.5q8 -35 11 -68.5t7 -64.5q4 -59 4 -90t2 -66q-4 -29 -5 -45t-3 -29q0 -12 2 -20t5 -19.5t3 -25.5t-4 -37 t-5 -67t0 -94t2 -96t1 -73v-57q0 -33 -1 -66.5t-4 -63.5t-7 -42q-6 -16 -5 -26.5t3 -21.5t5 -24.5t3 -32.5v-51q0 -33 -1 -71.5t-2 -75.5t-3 -58q-4 -33 -3 -48t-3 -31q-4 -25 -9.5 -33t11 -18.5t49.5 -14.5t69 -12q18 -4 44 -11.5t61 -21.5q37 0 50 -9t34 -16 q35 -12 49 -21t25 -9q8 0 15 -1t13 13q6 12 12.5 23.5t2.5 27.5q-2 8 -4.5 11.5t-8.5 3.5q-4 0 -11 1t-17 5q-20 8 -39 7t-37 7q-12 4 -36 10t-46 17q-14 6 -22.5 7t-16.5 4t-17.5 10t-23.5 28q-14 18 -13 59t-10 78q-6 25 -5 34t4.5 18t4.5 26.5t-4 58.5q-4 27 -4 82 q0 58 -2 117z" />
<glyph unicode="\" horiz-adv-x="655" d="M233 696q10 -10 17.5 -24.5t9.5 -24.5q2 -12 8 -28.5t4 -26.5q16 0 21 -37q16 -45 22.5 -60.5t12.5 -35.5q6 -16 10 -23.5t7 -13.5t6 -15.5t7 -27.5q8 -4 14.5 -18.5t10.5 -32t8 -32.5t10 -22q0 -29 21 -73q14 -14 10 -25.5t4 -30.5q16 -20 19.5 -42.5t13.5 -43.5 q4 -6 7 -8t5 -16q4 -16 7.5 -34.5t9.5 -41.5q2 -8 5 -11t5 -19.5t4 -16.5t6 -10.5t16.5 -2t34.5 14.5q20 4 31.5 10t34.5 13q29 6 4 49q-23 31 -30 56.5t-23 35.5q-16 8 -15.5 15t-5.5 16q-18 29 -27.5 69.5t-17.5 57.5q-14 6 -19 13t-7 13t-2 12t-3 15q4 12 -5 11t-11 13 q0 4 1 12.5t5 20.5q-8 10 -20.5 28.5t-20.5 31.5q-10 14 -11 32.5t-17 34.5q-14 27 -20.5 44.5t-10.5 29.5t-8 24.5t-17 32.5q-2 31 -6 48.5t-9 29.5t-11 22.5t-13 28.5q-4 2 -10 17.5t-12 34t-12.5 34t-8.5 19.5q-8 10 -10 15t-3 10t0 11.5t-1 16.5q-20 14 -15 20.5t3 26.5 q-4 6 -9.5 19.5t-10.5 30t-10 33.5t-11 32q-8 18 -17.5 57t-21.5 76q-2 6 -4 27.5t-10 31.5q-10 10 -6 24.5t-1 14.5q-8 0 -8 10t-8 13q-16 4 -44 -4.5t-46 -22.5q-6 -6 -19.5 -7t-19.5 -11.5t-3 -18.5t13 -22q2 -4 7.5 -10.5t7.5 -10.5q2 -23 7 -33t10 -15t9 -7t4 -10 q10 -20 14.5 -30.5t18.5 -33.5q6 -10 14.5 -27.5t17.5 -38t16 -42t14 -35.5q18 -53 37.5 -95t25.5 -77q2 -14 5 -15.5l5 -2.5t5 -8t5 -34z" />
<glyph unicode="]" horiz-adv-x="593" d="M328 336q-2 -59 -2 -117q0 -55 -4 -82q-4 -41 -3.5 -58.5t4 -26.5t4.5 -18t-5 -34q-10 -37 -9.5 -78t-13.5 -59q-16 -20 -24.5 -27.5t-16.5 -10.5t-16.5 -4t-22.5 -7q-23 -10 -46 -16.5t-36 -10.5q-18 -8 -37 -8q-18 0 -39 -8q-10 -4 -17 -5.5t-13 -1.5q-4 0 -6 -3 t-5 -11q-4 -16 3.5 -26.5t13.5 -22.5q6 -14 13 -13t16 1q10 0 23 9t48 21q20 6 33.5 15.5t50.5 9.5q35 14 61.5 21.5t49.5 11.5q33 8 64.5 12t48 14.5t11.5 18.5t-10 33q-4 16 -3 31.5t-3 47.5q-2 20 -3 57.5t-2 76t-1 71.5v51q0 18 3 32t5 25t3 21.5t-5 26.5q-4 12 -7 42 t-4 63.5t-1 66.5v57q0 27 1 73t2 96t0 94t-5 67q-10 45 -1 62.5t7 39.5q-2 12 -3 28.5t-5 45.5q2 35 2 66t4 90q4 31 7 64.5t12 68.5q6 25 10 37t-12.5 22.5t-49 16.5t-69.5 12q-41 8 -58.5 14t-44.5 13q-35 10 -48 14t-34 10q-35 12 -52 19.5t-28 7.5q-8 0 -15 1t-11 -5 q-10 -20 -13.5 -34.5t-3.5 -25.5q0 -18 20.5 -16t39.5 -8q16 -4 35.5 -3t36.5 -12q10 -8 36.5 -7t38.5 -11q8 -8 15.5 -10t16.5 -4t18.5 -5.5t19.5 -13.5q18 -18 17 -54t-1 -75q0 -23 2 -37t4.5 -26.5t4.5 -29.5t2 -46q-8 -18 -9.5 -45t0.5 -56.5t5.5 -58.5t3.5 -49 q0 -4 1 -48t2 -101.5t2 -116t3 -90.5q-18 -23 -11 -62t5 -100z" />
<glyph unicode="^" d="M440 1223q-18 0 -22 -11q-2 -6 -9.5 -20t-17.5 -33.5t-21.5 -41t-19.5 -40.5q-16 -18 -21 -44.5t-26 -41.5q-10 -6 -14 -23.5t-25 -58.5q-29 -47 -43 -72.5t-33 -54.5q-20 -18 -20 -28q-4 -8 -5 -14.5t-11 -20.5q-10 -16 -23.5 -38t-28.5 -40q-6 -8 -16 -21.5t-10 -19.5 q0 -10 10 -10q12 0 16 -8q4 -4 14.5 -13.5t22.5 -11.5q10 -2 8 -2t2 -2q10 -4 14.5 -7t14.5 -3t14.5 7t6.5 9q2 12 4 18.5t6 18.5q4 8 9 22.5t15 24.5q6 6 1 14.5t5.5 18.5t20.5 44t25 71q20 33 39.5 73.5t29.5 69.5q16 12 20.5 26.5t12.5 30.5q8 6 16.5 16.5t15.5 20.5 t11 18.5t8 8.5q6 0 19.5 -20.5t17.5 -30.5q23 -8 23 -29q18 -35 41.5 -80t46 -89t38 -78t17.5 -42q2 -20 6 -29.5t8 -14.5t7.5 -7t5.5 -8q4 -12 12 -35t10 -35q2 -2 6 -9t15 -7q6 0 8 3t16 7q4 2 2 2l10 2q12 2 22.5 12.5l14.5 14.5q4 8 15 8q12 0 12 10q0 6 -10.5 19.5 t-16.5 21.5q-14 18 -27.5 39.5t-23.5 38.5q-12 23 -20.5 33t-18.5 30q-4 8 -7 14.5t-9 13.5t-14.5 19.5t-22.5 36.5q-23 41 -45.5 83t-18.5 65q-14 6 -19 14t-8 15.5t-6 15.5t-12 18q-10 18 -20 40t-20.5 42.5t-18.5 34.5t-10 20q-5 9 -21 9z" />
<glyph unicode="_" horiz-adv-x="1024" d="M0 -154v-102h1024v102h-1024z" />
<glyph unicode="`" horiz-adv-x="407" d="M231 891q0 -2 9.5 -6t19.5 0q6 4 12.5 8t1.5 12q-2 12 -10 23.5t-16 27.5q-12 14 -19.5 27.5t-17.5 34.5q-4 6 -12.5 24.5t-10.5 16.5q-4 8 -1 12t-3 8q-10 4 -15 16.5t-7 16.5q-6 20 -12.5 28.5t-14.5 24.5q-4 10 -12 20.5t-12.5 16.5t-7.5 17.5t-7 21.5q-4 4 -10 17.5 t-14 17.5q-6 0 -18.5 -3t-20.5 -7t-8 -6t-7 -5q-12 -4 -15 -9t-7 -9q-8 -8 -18.5 -12t-12.5 -15q0 -10 11.5 -16t17.5 -23q4 -4 18.5 -20t24.5 -27q14 -18 20 -25t23 -28q6 -8 16 -18.5t13 -14.5q4 -4 14 -13t24 -26q2 -2 11.5 -13t20.5 -25.5t19.5 -26.5t12.5 -14 q6 -6 11 -13.5t9 -15.5z" />
<glyph unicode="a" horiz-adv-x="851" d="M410 301q16 2 26 -7t27 1q4 4 14 3t21 -11q6 -6 12 -6t14 -5q12 2 21.5 -7t27.5 -25q20 -16 26.5 -32.5t6.5 -39.5q0 -39 -14 -46t-23 -15q-10 -10 -11 -13.5t-13 -13.5q-8 -6 -15.5 -4t-17.5 -8q-14 -12 -24.5 -15.5t-18.5 -3.5q-18 0 -30.5 -7t-22.5 -3 q-18 -4 -33.5 -1t-34.5 3q-8 0 -23.5 -4t-29.5 12q-10 10 -17.5 8t-15.5 5q-12 10 -12 16q0 8 -10 18q-8 8 -15.5 22.5t-7.5 37.5t4 45t25 43q27 27 32 31t17 6q8 2 14 1t13 5q10 10 20 11t14 -3q16 -10 27 -3t27 5zM612 27v-15q4 -16 16.5 -17t35.5 -5q10 -2 22 3t27 5 q10 2 19 0t26 2q10 2 4 13.5t-4 19.5q2 14 -1 19t-6 7t-5.5 5.5t-0.5 11.5q4 12 -2 27.5t-6 31.5t-8 41t-4 55q2 10 -1 25.5t5 36t8 33.5q0 12 -3 19t-7 15.5t0 24.5q2 8 4 27.5t4 41t2 40.5q0 20 -4 26q-8 14 -8 23q0 10 2 19t3 18.5t-5 26t-14.5 39t-22.5 36.5l-28.5 28.5 t-30.5 22.5q-23 6 -30 10.5t-10 7.5t-5 7t-13 8q-16 6 -30 6t-19 2q-23 6 -46 8t-43.5 4t-33 1t-20.5 -3t-16.5 -6t-18.5 -6q-16 -4 -30.5 -9t-53.5 -38q-18 -2 -25.5 -7t-9.5 -11.5t-2 -12.5q0 -4 -6 -6q-23 -8 -27 -13t-18 -15.5t-17 -27t-9.5 -26.5t-7.5 -15t-2 -10.5 t-2 -10.5t-7 -17q-4 -6 -3 -9t2 -5t0 -4.5t-9 -8.5q-2 -10 -3 -23.5t1 -19.5q2 -4 8 -8t22 -2q18 2 34 1t24 -1q16 0 32.5 2t22.5 4q4 2 4 8t2 15q4 14 -1 20t-3 17q4 23 3 35t1 24q2 16 4 30.5t19 37.5q16 25 28.5 35t20.5 16q16 14 40.5 16t41.5 2q18 0 24.5 -2t10.5 -5 t9 -7t19.5 -6t28.5 -9.5t31 -23.5q6 -8 16 -21.5t21 -31.5q12 -20 15 -33.5t3 -24.5q0 -8 -1 -16t1 -18q16 -4 9 -16.5t-9 -33.5q-2 -16 1 -26t6 -17.5t5 -14.5t0 -19q-4 -12 -2 -13.5t2 -15.5q0 -18 1 -23.5t1 -15.5q0 -23 -4 -30t-14 -3q-4 2 -23.5 11.5t-36.5 19.5 q-12 -6 -17 0t-21.5 4t-26.5 3t-31 3q-39 4 -56.5 5t-39.5 -3q-16 -2 -22.5 -4t-10.5 -2h-6h-12q-20 2 -30.5 -1t-16.5 -7t-12.5 -9t-14.5 -7q-12 -4 -24.5 -6.5t-23.5 -6.5t-22.5 -12t-23.5 -27q-6 -10 -14.5 -17t-20.5 -22q-12 -16 -17.5 -43.5t-7.5 -50.5q0 -14 4.5 -19 t9.5 -8.5t7 -5.5t-4 -10q-4 -4 3 -13t13 -19.5t18.5 -16.5t32.5 -29q16 -20 34 -23t32 1q10 2 14 0t7.5 -4t5.5 -4t10 0q18 0 28.5 -5.5t26.5 -3.5q16 0 30.5 1.5t29 3.5t25.5 3t22 5q23 -4 29.5 1t23 3t21.5 4t18 0q16 16 21 21.5t18 9.5q16 10 35.5 19t17.5 11 q10 4 14 -2.5t4 -29.5z" />
<glyph unicode="b" horiz-adv-x="1007" d="M807 322q-4 -35 -10 -51.5t-2 -37.5q2 -6 -4.5 -12t-8.5 -10q-4 -16 -8 -21.5t-7 -6.5t-7 -1q-2 0 -2 -2q-10 -16 -21.5 -27.5t-11.5 -15.5q0 -18 -7 -26.5t-17.5 -13.5t-21.5 -9t-20 -10q0 -23 -16 -23q-14 0 -20 -4q-23 -10 -36.5 -17t-47.5 -7q-31 0 -66 3t-59 11 q-14 4 -42 21.5t-48 39.5q-14 14 -24.5 29.5t-23.5 28.5q-18 16 -15 35.5t-7 35.5q-16 35 -15 61.5t-6 61.5q-2 10 -4 21.5t-2 21.5v39q0 47 6.5 78t16.5 53q12 25 27.5 54.5t44.5 50.5q27 18 41 22t43 11q10 2 26.5 9t26.5 9q12 4 22 4h29q10 0 24.5 -1t20.5 -5 q10 -4 18 -4t17 -8q25 -18 36 -20.5t31 -18.5q4 -4 15.5 -16.5t23.5 -18.5q25 -8 29 -24.5t20 -35.5q10 -14 13.5 -34.5t7.5 -36.5q12 -23 22.5 -35t12.5 -49q2 -23 4 -40.5t2 -27.5v-30zM950 416q0 41 -14 82t-35 75q-6 31 -16.5 47.5t-23.5 29t-29.5 24.5t-34.5 31 q-18 12 -35 26t-35 10q-12 -2 -17 1t-8.5 8.5t-5.5 9.5t-10 4q-4 0 -12 6t-12 2q-2 -4 -11.5 -2t-42.5 6q-4 0 -23.5 -1t-23.5 -1q-6 0 -5 2t0 3t-10 2t-34 1q-23 0 -48.5 -3t-37.5 -11q-8 -4 -19.5 2t-21.5 2q-4 0 -22.5 -14.5t-22.5 -16.5t-8 0t-8 -2q-6 -8 -8.5 -9 t-6.5 -1t-11 -3t-22 -15q-27 -27 -45 -27q-12 8 -15 24.5t-7 45.5q4 12 5 26.5t3 30.5q2 25 2 47q0 25 -4 60q-2 16 1 28t11 35q2 12 -1 13t-5 4t-1 11.5t13 32.5q-6 8 -9 19.5t7 21.5q4 8 2 12.5t-4 14.5l4 57q4 29 3.5 56.5t-3.5 46.5q0 12 1.5 19t4.5 15.5t6 20.5t5 35 q2 14 -25 26q-27 -8 -49 -6t-43 2q-31 4 -47 -12q-2 -4 -3 -11t-1 -20q0 -14 2 -18t2 -29q0 -8 2 -9l4 -2t5 -6t3 -20q0 -4 -8 -6t-6 -8q-4 -6 2 -19.5t2 -21.5q0 -2 3 -8t6 -15.5t2 -20.5t-9 -23q0 -18 2 -24.5t4 -9.5t4 -7.5t2 -16.5q2 -10 -4 -29.5t2 -58.5 q8 -37 3 -56.5t-3 -53.5q2 -39 1 -62.5t1 -38.5q6 -25 4 -52.5t-2 -55.5q0 -23 -1 -38.5t-1 -37.5q0 -20 -3 -44t-5 -48q-2 -12 -2 -25v-20q4 -25 5 -35t-1 -15.5t-3 -11.5t-1 -22q-2 -25 5 -53.5t7 -34.5q0 -4 4.5 -32t4.5 -38q0 -14 2 -17t6 -4.5t7 -4.5t3 -15t4 -20.5 t9.5 -14.5t10.5 -12t9 -16q4 -12 17.5 -14.5t15.5 -6.5l2 -14l16 -13q4 -4 7 -8t14 -6q10 -4 22 -13t25 -16q23 -10 36 -13t33 -11q14 -6 41 -9l45 -5q16 -2 45 -3h45q10 0 27.5 1.5t35 4.5t34 7t24.5 10q25 16 50.5 23.5t39.5 23.5q12 14 24.5 19.5t35.5 29.5 q16 18 29.5 29.5t31.5 34.5q16 23 27.5 48t28.5 60q14 29 22 63t10 62v23z" />
<glyph unicode="c" horiz-adv-x="925" d="M662 4q14 12 25 15.5t20.5 4.5t17.5 3t18 12q12 14 23.5 16t24.5 13q6 6 14 15t16 15q10 8 14.5 17.5t8.5 17.5q4 4 6 9t8 14q4 16 8 21t2 16q-4 0 -5 2t-15 2q-8 0 -17.5 -2t-23.5 -2q-10 0 -13 1t-8 1q-4 2 -15 1t-13 -6q-4 -10 -10.5 -30.5t-20.5 -30.5 q-8 -6 -2 -14.5t-10 -5.5q-14 -8 -20.5 -14.5t-26.5 -20.5q-10 -8 -20.5 -14.5t-33.5 -6.5q-4 -10 -11 -11t-17 -3q-14 -4 -34 -7t-34 -3q-25 0 -39 1t-28 9q-20 10 -29.5 12t-18.5 6q-10 -4 -12 1t-12 10l-22.5 5t-14.5 13q0 10 -4 14t-10 6.5t-13.5 4.5t-13.5 10 q-2 25 -10 38t-15.5 21t-13.5 14.5t-2 16.5t-5 25.5t-11 21.5q-4 16 -11.5 29.5t-7.5 34.5q0 20 5.5 31.5t-1.5 45.5v23q0 14 5.5 17t3.5 14q-2 25 5 26.5t1 16.5q-2 27 2 26q6 0 10 6q-2 18 3 41t22 31q6 4 11 13.5t10 20.5t9 20.5t11 11.5q10 -4 16 8t16 12 q16 12 24.5 18.5t27.5 14.5q16 2 25 3t28 9q12 6 24 6h37q14 0 29.5 -5t19.5 -9q8 -2 15.5 1t23.5 -13q12 -4 23.5 -11.5t15.5 -19.5q20 0 27.5 -7t13.5 -24q16 -12 25.5 -29.5t17.5 -37.5q0 -14 7 -29.5t5 -32.5q20 -4 29 -4q10 0 23 2q14 2 19 -1t17 -1q18 4 21.5 5 t26.5 5q10 0 8 23q-2 8 -13.5 21.5t-11.5 21.5q-6 18 -10 29.5t-21 23.5q-10 2 -13 8t-5 13.5t-4 14.5t-10 13q-29 8 -52.5 27.5t-52.5 28.5q-10 2 -21 11t-52 7q-2 8 -12.5 7t-24.5 3q-16 -2 -29.5 2t-28.5 6q-10 2 -17 1t-42 -1q-12 -4 -28.5 -6t-28.5 -6q-6 -2 -7.5 -3 t-2.5 -2t-6 -3t-17 -4q-14 -4 -18.5 -8t-14.5 -4q-25 -10 -33 -12.5t-35 -14.5q-18 -8 -18 -18t-20 -15q-16 -4 -34 -22.5t-30 -26.5q-12 -6 -16 -13t-6 -15.5t-5.5 -16.5t-11.5 -16q-6 -6 -7 -9.5t-1 -7.5t-4 -11t-17 -22q-2 -6 -3 -7t-4 -5t-10 -15t-19 -38 q-2 -10 0 -16.5t4 -12.5t2 -14q0 -6 -8 -19q2 -4 -1.5 -12t-5.5 -16v-10l2 -5q-6 -14 7 -84q4 -16 15 -37.5t13 -41.5q6 -4 11.5 -6.5t9.5 -24.5q2 -8 9 -17.5t15 -13.5q12 -23 22.5 -26t20.5 -25q6 -12 20.5 -11t31.5 -22q6 -10 11 -13t12 -5t16.5 -6t23.5 -13q23 -2 38 -7 t38 -15q16 4 27.5 0t25.5 -8q10 -4 10 0t11 -2q6 -4 22 -5h31h26q12 0 41 7q35 8 55 7t36 13z" />
<glyph unicode="d" horiz-adv-x="1046" d="M498 -25q2 0 13 1t25.5 3.5t26.5 2.5h19q6 0 18 2t26.5 5t28 6t19.5 7q8 4 23.5 6t31.5 12q35 23 70 42.5t41 29.5q10 25 20 31t23 22q14 14 28.5 53.5t24.5 61.5q10 20 16 61t11 64q6 41 3 65.5t-3 41.5q0 10 -3.5 22t5.5 16q2 25 4 41.5t-4 49.5q-2 8 -3 27.5t-1 43.5 q0 25 -1.5 50.5t-3.5 48.5q-2 12 2.5 13t4.5 23q-2 27 -6.5 51.5t-4.5 65.5q2 41 3 83t1 85q-2 8 -5 13t5 12q-4 12 -2 19t2 13q4 6 6.5 19.5t-8.5 23.5q0 29 4.5 41.5t7.5 18.5t4 10t-1 18q-2 6 -4 9.5t-4.5 8.5t-2.5 13q0 10 5 27q2 16 5 26.5t-5 14.5q-4 2 -12.5 0 t-16.5 -2q-16 0 -30.5 2t-31.5 0q-20 -2 -31.5 0t-23.5 2q-20 4 -20 -8q0 -16 5 -20.5t1 -20.5q-4 -25 4 -44.5t8 -33.5q0 -33 6 -57.5t-2 -47.5q-6 -16 -4 -23t6 -10t7 -6.5t3 -13.5q-2 -16 1.5 -26.5t5.5 -24.5q2 -27 1 -40t-1 -36q-4 -16 8 -26q-4 -14 -8 -16.5t-2 -10.5 q6 -8 2 -24.5t-4 -30.5q8 -12 8 -27q0 -12 -2 -28.5t-1 -29t5 -28.5q6 -29 3 -43t-3 -33q0 -18 3 -31.5t-5 -13.5t-17.5 13.5t-19.5 23.5q-14 14 -39 31q-12 8 -20.5 16t-18.5 14q-10 -6 -21.5 -0.5t-21.5 9.5q-35 8 -50.5 17t-47.5 9q-10 0 -12.5 -3t-10.5 -1 q-12 4 -21.5 6t-19.5 2q-12 2 -25.5 0t-27.5 -4q-39 -2 -65.5 -15t-57.5 -20q-37 -6 -51 -19t-31 -19q-2 -23 -37 -31q-16 -4 -19 -18.5t-15 -18.5q-14 -8 -22.5 -19.5t-18 -23.5t-19.5 -25.5t-27 -25.5q-14 -12 -17 -23.5t-3 -23.5q0 -10 -2 -21.5t-14 -23.5 q-2 -12 -5.5 -19.5t-7.5 -17.5v-15q0 -4 1 -8t1 -8v-33q0 -6 1 -20.5t3 -36.5q2 -33 10.5 -55.5t17.5 -40t18.5 -29.5t15.5 -25q6 -14 19.5 -26.5t29.5 -22.5q10 0 13 -3t3 -7v-8q0 -4 7 -6q29 -16 58.5 -35t41.5 -21q14 -2 25.5 -8t23.5 -8q12 -6 24.5 -5t16.5 -3 q10 -4 47 -9.5t64 -7.5zM647 68q-6 0 -12 -5.5t-15.5 -11.5t-21.5 -12t-31 -6q-20 -2 -31.5 -7.5t-33.5 -0.5q-16 2 -37 3t-43 11q-12 -2 -16.5 0t-5.5 5l-2 6t-7 3q-8 -2 -14 2t-16.5 12.5t-14.5 12.5t-6 8t-3 7t-7 7q-8 8 -12.5 10.5t-9.5 5.5t-13 12t-25 34q-10 4 -6 8 t-6 20.5t-18.5 26.5t-8.5 27q0 16 -4 32.5t-10 43.5q-4 16 -4 30v19q0 12 1 25.5t3 29.5q2 20 7 38.5t16 41.5q2 6 2 14q0 10 1 18.5t3 13.5t10 3q4 33 16.5 43t28.5 31q10 10 30.5 33.5t41.5 27.5q12 4 16 10.5t25 6.5q10 0 14 6t18 8q20 -4 29.5 0t32 8t39 0t39.5 -6 q14 0 17 -2t11 -2q14 0 19.5 -13.5t19.5 -13.5q23 2 30 -4t24 -16q12 -10 20 -18.5t8 -20.5q0 -6 3 -7t8.5 -4.5t12.5 -9.5t15 -20q6 -10 15.5 -17.5t16.5 -14.5t10 -16t-3 -24q0 -14 13.5 -38.5t-1.5 -61.5q-6 -16 -5 -24.5t4 -17.5t3 -26q0 -16 -8 -49 q-12 -47 -22.5 -72.5t-28.5 -58.5q-12 -23 -27.5 -37t-29.5 -26q-16 -14 -27.5 -29.5t-36.5 -11.5z" />
<glyph unicode="e" horiz-adv-x="919" d="M547 469h43q31 0 63.5 1t63.5 3t49 6q29 6 39 3t20 -1q14 4 16.5 13.5t6.5 19.5q2 6 4 9t2 16q0 10 -4 14t-8 12q-6 14 -7 29.5t-12 32.5q-25 39 -73 75.5t-105 53.5q-37 8 -59.5 19t-50.5 7q-10 4 -28 2t-35 -5t-32.5 -6t-21.5 1q-10 4 -23.5 1t-17.5 -7 q-14 -12 -34.5 -11t-35.5 -22q-29 -14 -50 -25.5t-46 -33.5q-8 -8 -21.5 -22.5t-26.5 -30t-25.5 -30.5t-16.5 -26q-8 -16 -10 -26.5t-3.5 -16.5t-2.5 -12t-7 -14q-31 -31 -37 -88q-2 -10 -2 -19v-16v-25q2 -39 9.5 -51t5.5 -27q-2 -10 3 -24.5t13 -30.5t16.5 -31.5 t14.5 -23.5q23 -33 39 -44.5t26 -33.5q78 -72 151 -87t134 -20q12 -4 24.5 0.5t16.5 -6.5q8 12 18.5 5t24.5 -5q10 10 20.5 4t22.5 5q29 10 50.5 15t43.5 15q16 8 28.5 12.5t29.5 16.5q2 12 14 18t22 19q16 16 29.5 27.5t26.5 27.5q16 20 31.5 44t17.5 40q2 12 -4 15t-17 3 q-10 0 -8 -4t-16 4q-16 6 -30.5 1t-39.5 -1q-10 2 -13 -7t-5 -23q-2 -10 -6 -27.5t-17 -28.5q-14 -10 -20 -17t-15 -15q-29 -43 -68.5 -61.5t-74.5 -30.5q-10 10 -22.5 3.5t-32.5 -1.5q-20 14 -36.5 4.5t-31.5 1.5q-18 2 -31.5 9t-23.5 15t-21.5 15.5t-27.5 9.5 q-18 10 -24.5 30.5t-24.5 26.5q-12 14 -8.5 23.5t-10.5 25.5q-6 6 -6 9q0 4 2 7t1 5t-11 8q-2 2 -6 15.5t-9.5 33t-8.5 41t-3 39.5v27q0 8 2 14t0 10q-4 12 2 13q8 0 8 14q0 23 7.5 32t11.5 13q4 2 27 2q25 0 57.5 -2t66.5 -2q35 0 62 4q16 -4 39 3t43 -3zM686 557 q-23 -6 -56.5 -15.5t-72.5 -15.5t-80 -8t-76 4q-14 4 -31.5 5t-36 2t-35.5 4.5t-32 13.5q-2 2 -6 4t-4 12q0 2 3 10.5t7 18.5t9.5 20.5t9.5 14.5q0 4 6 5t10 9q4 14 8 14t8.5 4.5t7.5 13.5t9 13q8 6 15 13.5t18 7.5q6 0 16 7t25 5q16 -2 26 6t35 8q10 0 17.5 -3t13.5 -7 q10 4 27.5 3t34 -7t28.5 -14.5t14 -18.5l17 -6q12 2 21 -4t9 -23q10 6 16.5 -11t12.5 -21q0 -12 3 -20.5t6 -14.5t4 -12.5t-7 -16.5z" />
<glyph unicode="f" horiz-adv-x="702" d="M227 756q-2 -8 -8 -8h-16q-12 0 -16.5 6t-24.5 -4q-10 -4 -9 -2t-10 6q-12 4 -22 4h-15q-10 0 -24 2t-29 0q-10 -2 -12 3t-18 3q-16 0 -17 -12q0 -6 2 -17.5t-2 -23.5q-2 -8 2 -2t4 -11q0 -4 -2 -8t-2 -10q0 -4 2 -11t13 -7q10 -2 23 3t15 5q6 0 13.5 4t19.5 0t10 2t11 2 q10 -4 20 2t33 4q10 0 14 3t13 1q10 -2 16 -1t10 -3q8 -4 11.5 -15.5t3.5 -17.5v-18v-31v-31q0 -14 -3 -20q-4 -10 0.5 -23.5t2.5 -35.5q-2 -41 1 -74t-8 -55q-4 -8 -2 -14.5t5.5 -12.5t6.5 -16.5t1 -24.5q-4 -18 -2 -36.5t-2 -33.5q-4 -10 -3.5 -18t2 -16.5t1.5 -18.5 t-7 -24q-4 -10 -3 -16.5t4 -11.5t5.5 -10.5t0.5 -13.5q-4 -14 -6.5 -22t-2.5 -21q14 -12 6 -15t-8 -9q0 -10 -3 -19.5t1 -11.5q8 -4 22.5 -2t22.5 0q10 -2 26.5 2t39.5 -4q10 -2 17 1t18 3q6 0 15 -1t13 5q8 12 -3 23.5t-7 40.5q2 8 -6 16t0 41q6 25 0 43t-10 53 q-2 20 -7.5 61.5t3.5 86.5q2 10 -2.5 15t-8.5 10t-5 12.5t9 21.5q0 14 -2 23.5t-3 21.5t-2 30.5t3 49.5q2 14 0 22.5t-4 15.5t-4 16t2 28q0 16 1 29.5t7.5 19.5t34.5 6q8 0 18.5 1t20.5 -3q12 -4 27.5 -3t25.5 -3q14 -6 30.5 -5t39.5 1q33 0 70 -12q10 -4 18 2t16 -9 q14 -4 25.5 -8t26.5 -4q6 0 11 10.5t3 20.5q-4 16 0 31.5t4 40.5q6 27 -6 30q-6 4 -12 0t-19 -2q-14 2 -24.5 -4t-32.5 -8q-8 0 -20.5 -1t-22.5 3q-8 2 -12.5 -6t-20.5 2q-12 -4 -28.5 -7t-30.5 1q-12 4 -23.5 -5.5t-30.5 -4.5q-12 2 -23 -0.5t-22 -2.5q-16 0 -30.5 1.5 t-16.5 21.5q-4 31 -1 49.5t3 40.5q0 16 -5 31.5t1 28.5q4 8 3 14t-3 13t-3 17.5t3 28.5q4 27 0 52.5t-2 50.5q2 16 9.5 37.5t5.5 31.5q-2 14 0 18.5t5 6.5l6 4t3 12q-2 27 11 49.5t30 38.5q12 14 34.5 30.5t51.5 14.5q10 0 19.5 10.5t49.5 14.5q23 2 35.5 -8.5t26.5 -5.5 q12 4 23.5 1t23.5 -20q14 -16 22.5 -24.5t18.5 -30.5q10 -29 8 -40t2 -34q14 -16 11 -21t-3 -22q0 -10 1 -20.5t6 -14.5q12 -12 32 -6q10 4 24.5 0t22.5 -2q25 8 33 6t23 4q4 2 3 14.5t-4 30t-7.5 34t-4.5 26.5q-4 29 -24.5 58.5t-36.5 45.5q-23 23 -30 31t-29 12 q-8 0 -12.5 4t-11.5 8.5t-20.5 9.5t-37.5 7q-18 2 -24.5 5t-19 -1t-18.5 -2t-26 2q-12 0 -29.5 -4l-35 -8t-33 -8.5t-23.5 -6.5q-14 -4 -21.5 -9t-36.5 -21q-4 -10 -8 -12.5t-10 -2.5h-12q-6 0 -15 -8q-6 -12 -16 -27.5t-20 -21.5q-12 -8 -24.5 -19.5t-21.5 -29.5 q-4 -10 -12 -20.5t-14 -24.5q-8 -16 -13.5 -34.5t-13.5 -35.5q-4 -8 -3 -10t2 -6t0 -12.5t-9 -28.5q12 -6 13 -11.5t-2 -10.5t-8 -11t-5 -16q-2 -16 7 -31.5t3 -44.5q-4 -14 -2 -37t2 -53q0 -25 5 -50.5t1 -37.5z" />
<glyph unicode="g" horiz-adv-x="837" d="M539 973q-4 -16 -16.5 -50t-24.5 -51q-6 -8 -6 -12v-4t-1.5 -6t-11.5 -14q-6 -6 -10 -21.5t-18 -23.5q-8 -4 -13.5 -3.5t-13.5 0.5q-25 0 -43.5 -2t-30.5 -6q-29 -8 -60.5 -16t-47.5 -16q-23 -10 -41.5 -23.5t-34.5 -28.5q-25 -20 -44.5 -49t-21.5 -45q-2 -14 -5 -19 t-7 -8.5t-6 -5.5t0 -10q2 -14 2 -20t-1 -10.5t-2 -6.5t-1 -8q4 -29 10 -55.5t25 -44.5q14 -14 16 -22.5t1 -14.5t2 -10.5t22 -12.5q25 -10 46 -26.5t50 -26.5q20 -8 33 -8q12 0 16 -4q23 -23 45 -21q16 2 26.5 -9t4.5 -19q-8 -10 -5 -20.5t-3 -26.5q-4 -12 -15.5 -35 t-19.5 -33t-22.5 -18.5t-37.5 -10.5q-14 -2 -20 -7t-10 -5q-23 -4 -50.5 -13.5t-48.5 -19.5q-14 -6 -42.5 -23.5t-63.5 -33.5q-25 -12 -35 -27.5t-29 -34.5q-16 -12 -25 -23t-20 -30q-12 -20 -24 -58t-19 -61q6 -6 7.5 -9t-1 -7t-3.5 -13.5t4 -27.5q4 -23 13 -28t15 -31 q6 -31 33 -56.5t43 -42.5q6 -6 16 -6t18.5 -2t12.5 -7t0 -19q16 -2 24.5 -8.5t17.5 -12.5t25.5 -13t51.5 -14q18 0 29.5 -3t20.5 -8t21.5 -8t30.5 -3q25 0 55.5 -2t63.5 -2q59 0 106.5 8t81.5 18q20 6 50 18.5t60 27t52.5 28.5t30.5 25q-4 12 2 17t16.5 11.5t23.5 17.5 t23 38q6 12 11.5 21t9.5 30q10 41 15 62.5t-3 37.5q-4 4 -6 8.5t-2 12.5q0 6 2 14t-2 18q-12 29 -30.5 60t-55.5 61q-8 10 -24.5 19.5t-38.5 25.5q-23 12 -49.5 25.5t-36.5 19.5q-16 -6 -22.5 1.5t-29.5 11.5q-25 4 -56.5 11t-47.5 7h-19q-8 0 -16 -2q-10 0 -16 3t-8 18 q-2 10 2 16t6 12q2 12 6 17.5t7 8.5t7 6t6 11q6 23 23.5 36t25.5 24q10 12 25.5 17t32.5 11q20 8 30.5 9.5t24.5 13.5q12 10 23.5 13t22.5 7t21.5 11.5t20.5 25.5q4 8 10.5 11.5t14.5 7.5t17 14t22 33q10 23 19 48t9 54q2 18 -2 39t-10 43q-4 16 -13 27.5t-20 34.5 q-10 20 -23.5 31.5t-29.5 21.5q-18 10 -31.5 19t-42.5 20q-10 4 -28.5 8t-32.5 10q-8 4 -16.5 8t-8.5 8q2 6 5 13.5t18 13.5q14 20 24.5 22.5t14.5 14.5q6 29 20.5 37t18.5 12t9 8t9 9q10 18 25.5 29t11.5 22q-4 12 -27.5 22t-34.5 15q-10 6 -18 3t-18 13q-4 8 -17.5 -1 t-13.5 -17q2 -10 -7 -17.5t-5 -13.5zM494 737q18 -6 28 -11t17.5 -11t14.5 -11.5t17 -9.5q23 -8 28 -26.5t17 -34.5q10 -12 14.5 -30.5t6.5 -38t1 -37t-3 -27.5q6 -18 6 -27q0 -6 -3 -9t-8 -9t-7 -25q-6 -35 -24.5 -58.5t-35 -35.5t-41 -24.5t-76.5 -10.5q-47 0 -79 16 q-20 10 -27.5 19.5t-24 15.5t-23.5 10.5t-10 8.5t-5.5 9t-8.5 11q-14 16 -20 29.5t-12 36.5q-4 14 -8.5 29.5t-4.5 37.5q0 25 5 40.5t11.5 27.5t11.5 23.5t3 27.5q-2 20 8 23.5t27 19.5q8 8 12 13.5t6 7.5l5 5t14 9q20 12 43.5 16t40.5 4q18 0 41 1t43 -5zM604 -18 q10 -10 22.5 -20.5t28.5 -39.5q4 -12 10.5 -17t12.5 -9.5t10 -9.5t4 -17q-2 -16 12.5 -41t14.5 -51q0 -23 2 -39.5t-8 -32.5q-8 -12 -10.5 -21.5t-2.5 -15.5q0 -8 -1 -14t-5 -14q-12 -20 -18 -29.5t-9 -13t-6.5 -4.5t-7.5 -7q-16 -23 -32.5 -39t-75.5 -36 q-16 -6 -28.5 -10.5t-32 -8.5t-49 -6t-77.5 -2q-45 0 -88 9t-61 22q-37 25 -56.5 39t-31.5 26q-25 25 -32 46.5t-17 35.5q-6 8 -11.5 15.5t-8.5 16.5t-4 25.5t-1 44.5q0 6 -2 23.5t0 28.5q2 14 6 20t7 10t7.5 9.5t8.5 17.5q6 20 19 42t24 36q14 16 25.5 26.5t39.5 28.5 q16 10 23.5 7t15.5 5q10 10 37 20.5t94 12.5q27 0 48.5 -2t41.5 -4q39 -4 57.5 -13t35.5 -12q23 -8 38 -20t31 -18z" />
<glyph unicode="h" horiz-adv-x="958" d="M250 428l2 31q4 23 9 43t1 35q2 35 21.5 58t48.5 38q2 10 9 16t16.5 10.5t17.5 8.5t14 12q14 10 33.5 11t32.5 9q31 6 61 7q12 0 26.5 -2.5t28.5 -6.5q23 -8 37.5 -12t22.5 -37q23 -4 32 -23.5t17 -31.5q16 -27 18 -46.5t4 -35.5q4 -35 8.5 -53.5t4.5 -42.5v-129l2 -31 q0 -29 -8 -31q-4 -10 -3 -31.5t-1 -41.5q10 -31 2.5 -61t-7.5 -58v-8l2 -7q-2 -10 -4 -13t2 -7q6 -12 25.5 -5t34.5 3h53q4 0 10 -1t11 -1q12 -4 14 -4q6 0 18 16q-2 14 -3 12t-5 15l-4 67q2 8 -2 22.5t-2 20.5q4 16 4 23q0 8 -6 33q-4 16 -2 24t0 13q-8 10 -7 30.5t3 36.5 q2 8 -4.5 33.5t-1.5 42.5v59q0 10 1 22.5t3 22.5q-10 20 -5 44t5 42q0 39 -17.5 57.5t-25.5 47.5q-6 20 -14.5 30.5t-16.5 15.5t-16.5 9t-16.5 14q-20 25 -53 26t-62 13q-16 4 -33.5 2t-29.5 7q-6 -6 -16.5 -4.5t-18.5 -4.5q-16 10 -34.5 -1t-39.5 -11q-33 -12 -60.5 -30.5 t-55.5 -41.5q-16 -14 -33.5 -28.5t-34.5 -28.5q-10 10 -14 19.5t0 21.5q6 12 7 15t0 6.5t-2 11.5t3 33q2 8 2 10q0 4 -1 9t-3 15.5t-2 32.5q0 41 6 84q4 10 0 14.5t-4 14.5t3 16t3 27q0 23 -2 37t2 32q4 12 -1 27.5t-3 32.5l7 31.5t3 29.5t-2 27.5t2 15.5q6 6 2 11.5t2 9.5 v24t-4 17l3 12t3 7t3 7t4 15l5 20t3 16t-3 15.5t-8 15.5q-12 8 -25 9t-30 1q-25 0 -56.5 -8t-60.5 -6q-6 -10 -6 -18q-2 -16 9.5 -30.5t9.5 -29.5q-4 -41 1 -82t5 -92q-4 -16 3 -33.5t3 -33.5q-4 -14 -2 -33t6 -29q-4 -10 -7 -21.5t-1 -17.5t1 -20.5t-2 -29.5t-2 -29.5 t1 -20.5q-2 -25 2 -33t7 -11t5 -10.5t-4 -29.5q-4 -18 1 -51t-1 -49v-76v-25q0 -14 3 -35.5t-5 -23.5q-2 -20 -1 -35.5t3 -17.5q-8 -16 -7 -33t3 -25q4 -14 2 -42.5t-6 -69.5q-2 -16 3 -33t-5 -43q-8 -20 -1 -26.5t1 -18.5q-4 -4 1 -13.5t5 -13.5q0 -2 -2 -6t-2 -8 q4 -23 -2 -35t-6 -33q0 -6 -5.5 -28.5t1 -26.5t13.5 -1t13 3q10 0 23.5 -5t21.5 -1q12 4 28.5 1t31.5 -1q10 2 22 2q14 0 17 4q4 12 -7 41q-2 16 0.5 34.5t-10.5 35.5q6 10 1 11t-7 9q-2 2 2 14.5t4 32.5q4 14 -5 45t1 56q2 8 0 11t-5 6t-4 7t3 14q4 8 3 11.5t-4 5.5t-5 7 t2 17q6 2 2 27t-4 43z" />
<glyph unicode="i" horiz-adv-x="397" d="M129 127q4 -43 -4 -54.5t-4 -23.5t-2 -23.5t-8 -21.5q4 -8 8 -5t12 -1q12 -4 19 -4h22t30.5 4t33.5 4q12 -6 17 -3t15 1q8 0 16.5 1t6.5 11q0 10 -6 19.5t-6 25.5l-4.5 22.5t-6.5 39.5q-4 18 2 25.5t6 37.5q0 8 -2 11.5t-4 7.5t-4 12t0 27q-4 12 -7 18t3 23q8 14 3 15 t-3 19v11q0 4 -1 9t-2 16t-1 34q0 29 2 47.5t2 38.5q0 10 3 16.5t1 16.5q-4 20 -3 29.5t4 15.5t5 12t2 17q0 10 3.5 12t1.5 22q0 6 -2.5 7.5t-3.5 2.5t-1 7t2 24q0 6 4.5 13.5t4.5 17.5q0 12 2 16.5t2 24.5v18t-4 11q-10 4 -18.5 5t-39.5 -5q-16 -4 -28 -4h-27q-10 0 -15 4 t-16 4q-6 0 -12 3t-16 -3q-6 -4 -3 -12.5t5 -28.5q0 -14 3 -19.5t5 -9.5t3 -13t-1 -32q-4 -23 4 -37t6 -22q-4 -18 4 -38t6 -34q-2 -10 0 -27.5t-2 -23.5q-10 -23 -3 -30t9 -17q4 -23 -1 -34t-5 -28q0 -23 2 -44t2 -32q2 -23 -4 -42t-2 -50q2 -16 0 -24t-4 -13.5t-4 -9.5 t-2 -10zM283 1020q-4 20 2 35.5t0 25.5q-33 2 -58 2t-45 4q-23 4 -34 3.5t-31 -11.5q-6 -4 -4 -22.5t4 -34.5q0 -14 -1 -21.5t-7 -23.5q8 -10 6 -14.5t10 -24.5l37 -6q16 6 25.5 1t27.5 -5q12 4 24.5 3t28.5 -1q12 -2 15 35q-10 10 -4 28.5t4 26.5z" />
<glyph unicode="j" horiz-adv-x="399" d="M150 63q-4 -12 -2 -20t5 -18.5t3 -24.5q0 -12 -11 -33q2 -25 -3 -65.5t-19 -87.5q-16 -41 -30.5 -73t-26.5 -50q-10 -16 -24.5 -34.5t-43.5 -35.5q-20 -10 -25.5 -17t-25.5 -14q-23 -8 -36 -10t-24 -12q-10 0 -27.5 -3t-27.5 -3t-20.5 -1t-26.5 -12q-4 -8 4 -24.5 t12 -36.5q8 -16 14.5 -30.5t12.5 -16.5q16 -4 38.5 7t41.5 22q8 4 8 12t25 14q20 10 32.5 22.5t22.5 16.5q16 6 16 14t11 15q20 12 33.5 25.5t41.5 35.5q6 14 10.5 22.5t10.5 18.5q14 10 23.5 21.5t13.5 17.5q2 10 14 24.5t20 24.5q10 14 21.5 40t30.5 52q2 35 15 65t19 52 q-4 27 0.5 51.5t6.5 34.5q-2 12 -2 31q0 20 -2 37q-2 18 -3 37v49q0 12 -6 31.5t-2 48.5q2 12 3 17l2 10t1 14q0 8 -2 26q0 8 -2 25.5t-2 38.5q0 23 2 46t9 42q6 23 -0.5 34t-2.5 33q4 20 1 31.5t6 34.5q6 18 5 36.5t1 33.5q0 2 1 11t1 17q0 10 -1 18.5t-3 10.5 q-6 6 -17.5 2t-38.5 -6q-16 0 -37.5 -2t-37.5 -2q-12 2 -22.5 4t-20.5 -2q-2 -4 2 -16.5t6 -34.5q2 -14 5 -25.5t-1 -34.5q-4 -25 5 -44t7 -54q-2 -47 8.5 -82t1.5 -57q-8 -25 -6 -35.5t6.5 -16.5t7.5 -11t-5 -19q-2 -12 -3 -29q0 -16 1.5 -33.5t2.5 -33t1 -23.5 q0 -20 2 -31.5t-7 -34.5q-4 -10 -2 -18t5.5 -16.5t4.5 -19t-5 -24.5zM276 1020q-4 20 2.5 35.5t0.5 25.5q-33 2 -58 2t-45 4q-23 4 -34 3.5t-31 -11.5q-6 -4 -4 -22.5t4 -34.5q0 -14 -1 -21.5t-8 -23.5q8 -10 6 -14.5t11 -24.5l37 -6q14 6 21 1t24 -5q16 4 28.5 3t32.5 -1 q12 -2 14 35q-10 10 -4 28.5t4 26.5z" />
<glyph unicode="k" horiz-adv-x="866" d="M262 956q0 14 1 50t2 76t5 76t10.5 52.5t-1 25.5t-7.5 15q4 10 10.5 11.5t2.5 21.5q2 27 1 34t5 30q6 25 2 30.5t-14 7.5q-8 2 -17.5 -1t-17.5 -1q-10 2 -29.5 -4t-52.5 -2q-12 2 -22.5 5t-20.5 -3q-12 -6 -13.5 -15t2 -21.5t7.5 -28t4 -33.5q-2 -43 4 -62.5t4 -45.5 q-2 -20 1 -32t4 -19t0 -13t-9 -18q-6 -8 -3 -14.5t7 -13.5t6 -18.5t-4 -27.5q-8 -18 -7 -28.5t4 -19.5t7 -22.5t4 -36.5q0 -16 -1 -27.5t-2 -25.5t-1 -35q0 -20 2 -55q2 -33 2 -80t-1 -92t-2 -80t-1 -43q16 -8 7 -17.5t-7 -17.5q2 -6 1 -26.5t-2 -45t-1 -49.5v-41 q0 -18 -3 -27t-6 -18.5t-3 -21.5t6 -33q4 -16 -1 -23.5t-7 -11.5q-4 -10 1 -11t5 -5q0 -12 -3 -15.5t-3 -13.5q0 -14 -1 -20t-3 -9.5t-4.5 -7.5t-2.5 -14q-2 -14 -2 -31q0 -14 9 -16q16 -4 24 -2t31 -2q14 0 22.5 2t13.5 3t11 0t21 -5q14 2 23 0t19.5 4t3 14t-7.5 25 q0 20 -6 31.5t-2 40.5q2 20 0 33.5t-5 25.5t-6 24.5t-1 30.5q2 14 8 29.5t-6 40.5q-6 10 -6 29q0 18 4 28q4 8 4 12t8 9q16 8 19 10q4 -4 20.5 -16.5t26.5 -22.5t28.5 -25.5t30.5 -25.5q-2 -16 18.5 -26.5t24.5 -12.5q16 -4 26.5 -22.5t20.5 -28.5q18 -16 38 -36t42 -38 q4 -4 15.5 -16.5t24.5 -26.5t24.5 -27.5t15.5 -17.5q10 -10 18.5 -23.5t18.5 -17.5q8 -4 20.5 -1t18.5 1q16 -4 26.5 -1t16.5 3q10 0 22.5 -3t24.5 -1q16 2 23.5 1t17.5 1q8 2 25.5 -2t15.5 10q0 8 -14.5 18.5t-34 21.5t-39 24.5t-31.5 25.5q-16 18 -40.5 33.5t-47.5 38.5 q-18 10 -30.5 21.5t-26.5 21.5q-16 12 -20.5 16t-10.5 13q-8 10 -9 16t-12 12q-4 4 -8 2t-7 -3t-6 0t-5 9q-6 20 -35 43q-12 10 -20.5 16.5t-22.5 29.5q-4 2 -15.5 13t-23.5 24.5t-22.5 25.5t-10.5 16q0 10 31 35q20 16 29.5 22.5t23.5 18.5q16 12 25.5 16.5t15.5 5.5 t11.5 3t13.5 14q2 10 5 11t7 0t8 -1q6 0 12.5 8.5t9.5 10.5t8 4t13 6t21 14q18 16 33.5 24.5t37.5 22.5q20 12 35 21.5t29 19.5q16 10 34.5 24.5t18.5 20.5q0 4 -19.5 5.5t-35.5 1.5t-34.5 -3.5t-53.5 3.5q-8 2 -23 2q-12 0 -18 -6q-14 -12 -15.5 -16.5t-23.5 -18.5 q-8 -6 -2 -16.5t-14 -10.5q-6 0 -14.5 -8t-18.5 -19.5t-20.5 -21.5t-20.5 -16q-16 -10 -27.5 -19.5t-22 -21t-22.5 -23.5t-30.5 -24.5t-30.5 -12.5q-10 0 -15 -10q-14 -25 -20 -31t-10 -6t-11.5 -1t-21.5 -17q-14 -20 -33 -21q-6 0 -8 17.5t-4 39t-1 43t1 29.5q2 16 9 31.5 t-3 30.5q-6 8 -5 13t3 11t3 12.5t-5 18.5q0 8 2 12t3 11.5t2 17.5t-1 31q-2 12 -2 24v25v59q0 25 3 48t3 48z" />
<glyph unicode="l" horiz-adv-x="385" d="M262 0h17q6 0 6 14q0 16 -6 52q-2 10 0 28.5t0 28.5q-4 23 -6.5 31t8.5 18q-10 14 -11.5 20.5t0.5 12.5l4 12t-2 21q-4 10 -5 33.5t-1 33.5q0 18 -2 29.5t-2 21.5t2 13.5t4 6.5t1 11t-7 28.5t3 40t1 29.5q-10 12 -9 37t-1 56q0 12 2 56t-2 79q-4 18 7 32.5t7 40.5 q-4 23 -7 37.5t-3 22.5q0 14 1 48t1 56v31q0 12 4 18q2 14 2 19q0 6 -2 8t-4 3t-2 7q2 25 8 44.5t2 41.5q-4 25 0 48.5t9 33.5q2 8 1 12.5t-3.5 7.5t-2.5 7t9 10q-6 8 -8.5 17.5t-2.5 15.5q4 16 9.5 22.5t1.5 24.5q-4 23 2 31t0 20q-8 12 -27 12q-10 2 -21.5 0t-23.5 -4 q-18 0 -46 6.5t-36 -6.5q-6 -10 -8 -8t-8 -8q-6 -12 -2 -19.5t4 -15.5q0 -27 8 -47t4 -34.5t4 -38t2 -64.5q-4 -23 5.5 -37t2.5 -27q-10 -23 -4 -41t8 -47q2 -10 0 -28.5t-6 -28.5q-6 -12 -5 -18.5t3 -9.5t5 -6t3 -9q0 -27 1.5 -62.5t-5.5 -64.5q-4 -18 -4 -27q0 -6 1 -9 t4 -5t3 -12q0 -33 1.5 -70t1.5 -68v-47q0 -23 -11 -49q8 -12 9.5 -18t-2 -12.5t-6.5 -12.5t1 -18q6 -16 2 -36t2 -38q4 -10 -4 -14t-8 -21q0 -8 2 -12t4 -10t2 -17q0 -10 -2 -28q-4 -18 -7 -36t1 -28q10 -31 4 -38t-8 -15q-2 -33 -9 -69t-7 -48q0 -10 25.5 -11t43.5 -1 q8 0 10.5 2t18.5 2h51z" />
<glyph unicode="m" horiz-adv-x="1445" d="M268 391q12 20 4 31.5t-2 38.5q4 16 8.5 26.5t2.5 20.5q-4 14 0 20.5t8 24.5q4 16 7 31.5t13 21.5q2 35 14.5 39t20.5 14q14 16 22.5 22.5t14.5 10.5q0 8 3 9t7 0t8 -1q6 0 11 7q31 6 61.5 15t52.5 -1q8 -2 19.5 -6t25.5 -8q10 -4 11 -13q0 -8 14 -18q16 -14 21.5 -21.5 t11.5 -15.5q10 -12 12 -24.5t6 -20.5q2 -6 10.5 -15.5t10.5 -13.5t-2.5 -14t-1.5 -14q4 -12 6 -14.5t0 -16.5q-4 -27 1 -45.5t7 -36.5q2 -2 5 -13.5t1 -19.5q-6 -4 -3 -22.5t-5 -36.5q0 -20 2 -43t-8 -29q0 -10 2 -22.5t0 -24.5q-2 -29 0 -42t-4 -36q-4 -12 -4 -33 q0 -18 -3 -28q-2 -14 -3 -32.5t-3 -23.5q-2 -6 3.5 -12t9.5 -6q12 -4 22 -2t33 -2q12 -2 18 1t12.5 5t12.5 3t16 -5h13q8 0 16 4q2 10 5 18.5t-1 14.5q-6 12 -2 35q4 16 -5 27.5t-5 35.5q4 16 -1 31.5t-1 34t-2 32t-4 29.5q8 18 5 46t-3 38q0 6 -3.5 16.5t-3.5 20.5 q0 16 7 27q6 12 5 35.5t7 33.5q0 4 -3 5t-1 5q-4 18 3 25.5t3 26.5q0 12 9 24.5t22.5 27.5t27 33.5t17.5 41.5q12 -2 20 2t14.5 10t11.5 13t15 9q14 8 23.5 10.5t17.5 4.5q10 2 23.5 5t21.5 1q16 -4 25.5 -5t19.5 -3q8 -2 13.5 -6t19.5 -9q16 -4 24.5 -16t24.5 -29 q12 -12 19.5 -34.5t15.5 -51.5q6 -23 3 -47t7 -41q6 -41 5 -83t-1 -76q0 -47 -6 -72t-2 -47q-2 -20 -1 -35.5t-3 -28.5q-4 -10 0 -24.5t-6 -46.5q0 -10 -3 -29t-7 -31q2 -8 9 -9t13 -5q31 6 44.5 7t21.5 0l16 -2t31 3q14 -2 22.5 -5t14.5 5t-2.5 20.5t-6.5 40.5 q2 27 -7 45.5t-3 36.5q8 23 3 37.5t-5 55.5q0 12 -4 22t6 31q-8 20 -9 57t-1 62q0 14 2 22t4 16.5t2 18.5q0 12 -2 33q6 35 2 68.5t-8 49.5q-12 43 -33.5 80t-50.5 47.5t-53.5 24.5t-65.5 14h-22q-10 0 -21 -4q-16 -4 -31.5 4.5t-25.5 -10.5q-61 -10 -112.5 -41t-100.5 -84 q-12 -16 -16.5 -24.5t-14.5 0.5q-2 39 -30.5 73.5t-57.5 53.5q-53 33 -113 32q-23 0 -46 -2t-44 -2q-41 0 -84 -23.5t-65 -39.5q-10 -6 -23.5 -23.5t-21.5 -17.5q-16 0 -21 29q-4 12 -4 26t-2 19q-4 10 -6 19t-25 7q-12 -2 -33.5 -6t-31.5 -4t-17.5 1t-15.5 1h-10t-16 -4 q2 -14 5 -27.5t5 -29.5q4 -20 8 -44l6 -36q4 -29 9 -43.5t1 -28.5q-4 -20 -3 -31.5t3 -21.5t5.5 -20.5t3.5 -26.5q0 -33 -6.5 -48.5t-2.5 -35.5q6 -6 7 -19q0 -10 -2.5 -21.5t-4.5 -20.5t2 -11q8 -8 9 -16q0 -6 -3.5 -13.5t-6.5 -17.5t-1 -27q2 -29 1 -45t-4 -28.5t-5 -24.5 t0 -29q4 -23 1 -33t-5 -20q-4 -14 -7 -23.5t1 -13.5t10 -8t17 -4q14 0 24 2t14 2q14 0 26.5 -2t27.5 2q12 4 26 4q16 0 21 4q0 10 -1 13.5t-3 9.5t-2 18q-2 4 -2 17v24q0 4 -2 25.5t-7 42.5q-2 10 3.5 14t-3.5 18q-6 10 -2 17.5t4 17.5q0 8 -4 21.5t0 29.5q6 29 -1 57.5 t-3 57.5z" />
<glyph unicode="n" horiz-adv-x="974" d="M270 424q2 25 4 46.5t7 47.5q4 18 10 39t18 29q16 29 47 48t54 46q29 16 66.5 26.5t72.5 10.5q37 0 56.5 -8.5t30.5 -17.5t16 -16t14 -5q12 -10 15 -16.5t4 -11.5t4 -8t16 -7q6 -8 11 -40t5 -61q6 -8 7 -20t-3 -23q6 -23 10 -44t4 -44v-26q0 -27 -8 -58q6 -10 4 -21 t-5 -24.5t-4 -30t9 -40.5q4 -10 -5 -16.5t-7 -23t2 -30.5t2 -27q-2 -18 -4 -28.5t-6 -28.5v-18q0 -6 2 -17q12 -4 22.5 -7t24.5 -3q10 0 35.5 4t36.5 4q10 -2 18 -3t18 3q2 10 4.5 40t0.5 67q-2 20 -8.5 37.5t-4.5 21.5q-8 16 -10 24.5t-1 14.5t3 13t2 20q0 10 -1 15t-5 13 q-10 16 -5 21.5t1 7.5q4 23 7 35t-1 31v67q2 29 4 44.5t6 43.5v19q0 8 -4 11t-6 32q-2 33 -12 57.5t-39 67.5l-10 20t-29 14q-6 4 -26.5 13.5t-49.5 17.5q-31 10 -57.5 11t-48.5 3q-39 2 -73 -6t-60.5 -19t-44 -23.5t-21.5 -20.5q-14 0 -36.5 -18.5t-59.5 -53.5 q-18 8 -17.5 15.5t2.5 13.5q4 12 1 19t4 32q2 6 5 18.5t-10 18.5q-4 2 -23.5 3t-25.5 1q-14 2 -29.5 -3t-25.5 -7q-6 -2 -17.5 5t-23.5 1q-16 -8 -15 -27.5t5 -34.5q2 -12 7 -34.5t10 -47t8 -50t1 -46.5q4 -39 0 -47q-4 -20 -6 -31.5t-4 -21.5q4 -16 8 -28.5t4 -37.5 t2.5 -55.5t-4.5 -54.5q-10 -16 -2.5 -29.5t-3.5 -30.5q2 -14 3 -41.5t-3 -62.5q-4 -23 -9 -45.5t5 -38.5q4 -6 23.5 -2t36.5 4q37 -4 94 0q6 10 10 24.5t-10 24.5q6 29 4 43t-6 23.5t-6 18.5t4 28q2 10 0 15t-6.5 8t-6.5 7.5t2 16.5q4 8 2 18.5t-2 26.5q-2 27 1.5 44 t-3.5 46q-4 18 -4 39q0 23 2 41z" />
<glyph unicode="o" horiz-adv-x="1019" d="M508 -23q35 0 54.5 5.5t53.5 11.5q66 12 106 29.5t81 50.5q37 31 73.5 67.5t36.5 59.5q0 8 2.5 9t6.5 2t8 6t8 22q2 8 8 12t8 37q2 29 9.5 60.5t5.5 62.5v10q-2 27 -8.5 70t-28.5 65q-12 12 -14.5 20.5t-3.5 14.5t-5 12t-18 17q-12 16 -27.5 31.5t-27.5 23.5 q-27 18 -45.5 29.5t-34 18.5t-29.5 13l-35 15q-43 16 -106 24q-18 14 -54 4q-20 4 -30 4q-41 2 -88 -12t-95 -37q-133 -66 -190 -151q-10 -8 -5 -16.5t-5 -10.5l-13 -6q-59 -117 -47 -234q4 -29 8.5 -47t18.5 -39l-2 -12q16 -6 13 -13t-1 -16q39 -41 73 -71.5t77 -65.5 q12 -10 27.5 -16t27.5 -21q10 4 19.5 0t23.5 -2q14 -4 25.5 -10t29 -12t42 -10.5t67.5 -4.5zM492 27q-66 8 -98 24.5t-64 38.5q-8 10 -20.5 23.5t-16.5 19.5q-16 8 -23.5 22.5t-10.5 29t-5 27.5t-4 21q-14 6 -19.5 26t-7.5 41.5t-3 40.5t-7 28l8 39q-2 20 4 41.5t-10 29.5 q12 2 18.5 13.5t9.5 25.5t4 29.5t5 27.5q14 8 17 19.5t7 19.5q47 72 114 96.5t138 24.5q14 0 32 -1t32 -3q12 -4 30.5 -10t28.5 -16q16 0 26.5 -14.5t20.5 -22.5q6 -6 10.5 -17.5t9.5 -20.5t12 -13.5t20 -0.5q-2 -10 4 -20t12 -25q16 -23 22 -49q-4 -12 -2 -15t5.5 -4 t6.5 -3t3 -11q-6 -10 2 -27.5t10 -35.5q2 -6 2 -14v-19v-39q-2 -16 -4 -31.5t-6 -21.5q-8 -12 -3 -26.5t-5 -26.5q-12 -14 -7 -18.5t3 -14.5q-2 -23 -18.5 -48.5t-49.5 -33.5l-4 -22q-14 -4 -12 -11.5t-9 -13.5q-29 -20 -58.5 -30.5t-66.5 -20.5q-10 -4 -38.5 -7t-44.5 -1z " />
<glyph unicode="p" horiz-adv-x="1062" d="M276 741q0 14 -20 15q-4 0 -16.5 -2t-22.5 -2q-16 0 -24.5 -3.5t-20.5 -0.5q-10 2 -22.5 4t-22.5 4h-14t-9 -4q-2 -10 2.5 -15.5t2.5 -19.5q-2 -20 5 -31.5t3 -38.5q-2 -8 1 -18.5t7 -21.5t7 -23.5t1 -24.5q-6 -37 0 -63.5t6 -42.5q0 -25 2 -35t0 -23q0 -18 2 -37.5 t2 -29.5q2 -29 -3 -41.5t1 -40.5q2 -16 4.5 -51t3.5 -71t-1.5 -65.5t-4.5 -35.5q-8 -16 -6 -27.5t5 -20t4.5 -15.5t-7.5 -17q2 -41 6.5 -61.5t-4.5 -53.5q-4 -12 -4 -18t1 -12.5t2 -15.5t-1 -26q-4 -37 1 -59.5t-5 -50.5q-4 -12 -8 -37t0 -37q4 -20 -1 -27.5t-7 -17.5 q-2 -4 -3 -21.5t-1 -21.5q0 -10 10 -8q8 2 14 1t13 -1q25 4 36 -3.5t27 -3t30.5 3.5t18.5 1q20 0 21 8q2 6 0 10t0 14q-8 20 -7 40t-8 44q-10 33 -3 53.5t7 39.5q-2 4 -5 5t-5 5t-3 13t1 30q4 4 1 21.5t3 66.5q2 14 -1 20t-5 13.5t-3 20.5t3 44q6 12 7 19.5t1 11.5t-2 10 t-4 17q10 39 6 60t0 38q23 -23 42.5 -31t47.5 -27q18 -10 25.5 -7t17.5 -1q8 -4 14.5 -10t12.5 -6q18 -2 30.5 -7t31.5 -5q23 0 38 -3.5t35 -3.5q29 0 57.5 5.5t47.5 9.5q8 2 24.5 7t35 12t34.5 13.5t24 8.5q16 4 20.5 12t14.5 18q12 12 18.5 14.5t8.5 2.5q4 0 8 1t10 11 q10 16 19.5 24.5t16.5 16.5t12.5 17.5t11.5 25.5q6 0 12 8.5t12 20.5t9.5 24.5t3.5 18.5q0 33 15 55.5t15 56.5q0 23 5.5 35.5t-5.5 38.5q-8 18 -7 38t-15 58q-10 23 -23.5 47.5t-24 43t-25.5 30t-13 19.5q2 20 -15.5 26t-25.5 11q-23 12 -46.5 30.5t-49.5 22.5 q-16 2 -26.5 6l-21 8t-22.5 7t-31 3q-29 0 -38 1t-25.5 -1t-22.5 -4l-9 -3t-9 -1q-4 0 -21 4q-8 -10 -25.5 -9t-43.5 -17q-16 -10 -30.5 -12.5t-25.5 -12.5q-18 -16 -36.5 -22.5t-30.5 -22.5q-14 -18 -22.5 -25.5t-20.5 -21.5q-6 -6 -13.5 -8t-11.5 4q-2 4 1 25.5t3 43.5 q0 12 4 20.5t4 18.5zM287 522q4 12 11 26.5t17 24.5q4 6 6.5 19.5t10.5 19.5q16 16 37 25q4 6 13 17.5t21 11.5q10 6 15.5 9t10.5 6t14.5 9t29.5 19q25 14 48.5 13t27.5 3q16 2 21 3t6.5 0t3.5 -2t12 -1q25 4 33 -1t28 -9q18 -4 31.5 -8.5t30.5 -18.5q23 -18 23.5 -25.5 t11 -15.5t28 -16t13.5 -31q-2 -12 0 -13t5 -3t6 -7.5t7 -23.5q4 -23 12 -46.5t13 -43.5q8 -37 7 -62.5t-4 -46t-7.5 -35t-2.5 -26.5q4 -27 -6 -36t-14 -30q-2 -12 -5 -16t-6 -6t-5.5 -7t0.5 -24q2 -16 -9.5 -25.5t-23.5 -27.5q-8 -10 -20.5 -16.5t-26.5 -12.5 q-12 -6 -13 -18q0 -10 -22 -19q-10 -4 -18.5 -9t-26.5 -9q-29 -4 -49.5 -5t-55.5 -1q-18 0 -31.5 5t-29.5 15q-4 4 -17.5 10.5t-31.5 8.5q-12 2 -18.5 10t-16.5 12q-18 6 -23.5 11.5t-6.5 10.5l-2 10t-7 11q-10 6 -17.5 9t-11.5 26q-18 16 -25 28.5t-9.5 26t-3.5 28.5t-7 38 q-6 18 -8 26.5t-2 12.5q0 6 1 11t1 15q2 23 7 36.5t5 19.5q0 16 -2 31.5t0 31.5q2 23 7.5 27t9.5 20z" />
<glyph unicode="q" horiz-adv-x="1048" d="M846 762q-10 4 -23.5 0t-13.5 -10q-2 -12 -2 -19q0 -6 1 -10t1 -10q0 -4 -4 -15q0 -16 4 -29.5t-6 -15.5q-4 0 -10.5 6.5t-12.5 14.5t-13 16t-13 12q-23 10 -31 15.5t-23 17.5q-10 10 -26.5 18.5t-50.5 18.5q-18 6 -22.5 0t-18.5 8q-16 4 -29.5 6t-46.5 2 q-59 0 -110.5 -15t-78.5 -21q-25 -6 -31.5 -13.5t-29.5 -11.5q2 -14 -1 -18t-8 -5.5t-14 -1.5q-6 0 -14 -4q-10 -4 -27.5 -19t-37 -36.5t-36 -46.5t-20.5 -47q4 -16 3 -23.5t-4 -11.5t-8 -6t-9 -8q-4 -10 -8 -27.5t-6 -38.5l-3 -33q0 -25 1.5 -53.5t3.5 -38.5 q4 -29 14 -66.5t39 -84.5q8 -12 23.5 -29.5t30.5 -35t28.5 -30t19.5 -16.5q14 -10 26.5 -13t22 -5t14.5 -4t9 -12.5t18.5 -14.5t42.5 -8q23 -4 46.5 -7t39.5 -6q18 -2 27.5 0.5t14.5 4.5t10 2q4 0 10 -7q27 0 50.5 4.5t35.5 8.5q16 6 40.5 13t37 13.5t16.5 9.5t5 5l3 6 t13 10q39 25 56 48.5t23 23.5q10 0 12.5 -32t-3.5 -60q2 -29 3 -53.5t-3 -59.5q-2 -25 -2 -39q0 -16 2 -41q2 -27 -7.5 -48.5t11.5 -39.5q0 -14 -2 -23.5t-5.5 -18.5t-5.5 -19.5t2 -26.5q4 -23 -6 -52.5t-10 -64.5q0 -16 -5 -35.5t-3 -23.5q4 -14 26 -6q18 6 28.5 1t27.5 -1 q23 6 43 3t35 -3q16 0 14 5t0 13q4 18 -6 32.5t-6 29.5q4 18 -2.5 33.5t-1.5 39.5q2 16 1 23.5t-3.5 14.5t-4.5 18.5t0 38.5q2 10 0 27.5t-2 33.5q0 12 6.5 30.5t-4.5 45.5q-10 47 -5 69.5t-1 46.5q-4 16 3.5 25.5t7.5 26.5q0 10 -3.5 16t-6.5 13.5t-3 17.5t4 28 q4 14 1 25.5t-3 26.5q0 12 2 43.5t3 71.5l2 80t-1 69q-2 25 2.5 50.5t7.5 48t5 41t-2 28.5q2 25 6 41t8 45q12 76 10 82q-2 2 -12 4t-22.5 4t-24.5 2h-14q-4 0 -5 -7t-26 3zM500 741q23 -2 38 -5t31 -7q14 -4 19.5 -8t8.5 -8t6 -7.5t13 -3.5q18 -2 29.5 -9t22.5 -17 q14 -14 27.5 -29.5t23.5 -28.5q14 -16 20 -27t17 -28q16 -31 20 -47t8 -35q6 -23 7.5 -46t1.5 -56v-57q0 -23 -4.5 -50.5t-18.5 -50.5q-16 -29 -24.5 -46t-26.5 -28q-8 -4 -18.5 -17t-22.5 -30q-10 -10 -35 -29.5t-41 -19.5q-14 0 -20.5 -3t-13.5 -8t-19 -9t-37 -4 q-29 -2 -67.5 8t-51.5 16q-25 12 -35 21.5t-14 15.5t-4 12t-6 13q-6 8 -15.5 6t-19.5 16q-4 10 -8 21.5t-12 23.5q-10 12 -21.5 21.5t-21.5 44.5q-6 25 -9.5 46t-7.5 50q0 10 1 16.5t2 14.5t1 18t-4 29v24q4 18 12.5 39t12.5 56q2 18 6 29.5t9 17.5t11 12t11 16 q10 25 23 36.5t28 21.5q20 16 39.5 32.5t42.5 16.5t38 11t48 9z" />
<glyph unicode="r" horiz-adv-x="630" d="M285 545q-8 -18 -11.5 -31.5t-9.5 -13.5t-10 10t-6 25.5t-2 31.5v33q0 12 6 26.5t2 20.5q-4 16 -2 19.5t4 21.5q4 29 4 43q0 16 -8 23q-6 4 -31.5 2t-48.5 -2t-36 2t-23 -2q-16 -8 0 -68q6 -20 9 -33.5t3 -42.5q0 -23 10 -48t10 -75q0 -47 -4 -76.5t4 -45.5q10 -25 6 -31 t-8 -23q-4 -10 -4 -39q0 -27 2 -59q2 -16 -1 -33.5t-7 -32.5q-4 -16 0 -19t0 -21.5t-5 -36t-9 -39.5q-8 -25 -2 -31q0 -4 8 -3t25 1h22q16 0 31 -4q10 -2 24.5 0t27.5 5t22.5 6t9.5 7q0 10 -3 14.5t-3 16.5q0 10 -1 16.5t-3.5 10.5t-4.5 11t-4 19q-2 16 -4 38t-2 44 q2 23 3 40.5t-3 35.5q-10 35 1 61.5t11 42.5q0 23 9.5 55t31.5 54q-8 10 7.5 37t29.5 51q14 23 23.5 36t23.5 28q18 18 60 30q16 4 28.5 0t30.5 -2q10 0 25.5 -6t25.5 -8q14 -2 17.5 -3t11.5 1q4 2 8 3t6 11q2 12 3 34t-1 26q-6 20 1.5 42.5t-3 26.5t-25 5t-24.5 3 q-12 2 -18 1t-24.5 -3t-25 -9t-26.5 -13q-37 -12 -43 -25.5t-20 -25.5q-16 -14 -26.5 -24.5t-18 -20t-13.5 -18.5l-14 -21q-8 -10 -22.5 -31.5t-26.5 -50.5z" />
<glyph unicode="s" horiz-adv-x="679" d="M532 602q10 -2 18.5 0t20.5 0q8 -2 9.5 4t1.5 12q0 4 -1 15.5t-3 21.5q-2 6 -3.5 11.5t-3.5 13.5q-2 4 -6 6t-8 12q-16 33 -26.5 37t-10.5 15q0 8 -12 9t-23 5q-8 2 -23.5 7t-33.5 9q-23 4 -42 7.5t-30 3.5q-4 0 -15 -1.5t-23.5 -3.5t-23.5 -3t-13 -3q-10 -6 -17 -6h-8 t-7 -1t-9 -9q-10 -10 -18.5 -11t-22.5 -16q-10 -10 -31 -22.5t-25 -16.5q-10 -10 -25.5 -38.5t-19.5 -45.5q-4 -14 -7 -24t-1 -27q2 -10 5 -11t-3 -17q-4 -12 2 -26.5t15 -27.5q10 -16 18 -24t31 -25q2 -2 12 -8t22.5 -14.5t25.5 -15.5t22 -9q23 -8 47 -21.5t34.5 -17.5 t14.5 -1t8 -9q6 -2 8 -4t3 -4t5.5 -3t14.5 -1q14 0 13 -10.5t11 -14.5q20 -6 28.5 -8t11.5 -5t4 -7.5t8 -12.5q14 -16 28.5 -29.5t14.5 -37.5q0 -16 2 -24.5t2 -16.5q0 -23 -3 -27t-7.5 -14.5t-2.5 -14.5t-6 -16q-10 -12 -8 -18.5t-8 -8.5q-16 -4 -21.5 -11t-23.5 -11 q-12 -4 -34 -10.5t-38 -6.5q-25 0 -33 6.5t-26 4.5q-16 -2 -33.5 8t-30.5 18q-12 10 -20 23.5t-6 34.5q-14 8 -16.5 13t-2.5 22q0 10 1 24t-7 19q-2 0 -8 1t-17 1h-16t-12 -2q-4 -6 -5 -1t-18 1q-6 -2 -11 0t-13 2q-14 0 -17 -5q-10 -16 -3 -29.5t7 -39.5q23 -18 24 -33.5 t15 -32.5q10 -16 23.5 -20t15.5 -15q4 -12 16.5 -10t24.5 -12q10 4 16.5 1t18.5 -7q23 -4 46.5 -10.5t64.5 -6.5h24q14 0 45 6.5t45.5 4.5t30.5 14q4 4 8 4q6 0 15 6q6 4 14 9.5t18 15.5q16 16 26.5 17t14.5 13.5t8.5 16.5t7.5 5t5 1q4 0 6 6q4 16 13 28.5t11 27.5 q2 25 5.5 35t1.5 32q0 10 -3.5 29.5t-7.5 25.5q-10 12 -15 24.5t-19 22.5q-27 20 -30 38t-18 22q-16 4 -27 8t-28 12q-16 23 -24.5 20t-22.5 5q-6 2 -18.5 9t-26.5 15.5t-27.5 14.5t-17.5 8q-20 10 -35.5 15.5t-32.5 21.5q-10 10 -24.5 12t-9.5 21q2 6 -11.5 14t-17.5 18.5 t0 24.5t0 24.5t-3 17.5t9 22q4 18 13.5 31.5t17.5 17.5q10 4 17 5t11 5q10 16 30 17t46 1q20 0 31.5 -4t22 -10t14.5 -16q2 -10 8 -9.5t14 -5.5q12 -8 19 -47q4 -18 1 -28.5t3 -16.5t15 -3t22 -1q18 -4 21 1t13 3z" />
<glyph unicode="t" horiz-adv-x="833" d="M365 180q-4 18 -5 41q0 25 -10 35q-8 8 -1 25.5t3 52.5q-4 29 -2 51.5t2 44.5q0 23 1 37t-3 39q-2 12 -1 14t3 3t3 7.5t-1 24.5q-4 27 1 43t1 39q-2 6 0 16.5t9 16.5q10 10 20 12t21 2q12 0 39.5 -2t56.5 -2q18 0 27.5 -8t27.5 2q8 4 20.5 3t24.5 -4t23.5 -7t17.5 -4 q18 0 28.5 -3.5t18.5 -6.5t15.5 -4t21.5 1q16 2 24.5 1t11.5 -3t4 -3t5 1q14 12 14 31q0 12 -2 22.5t-4 18.5q-2 25 5.5 34t-3.5 19q-4 4 -17 -1t-30 -3q-23 2 -28 -7t-15 -3q-14 8 -30.5 1t-55.5 1q-10 2 -16 -6.5t-33 0.5q-10 4 -28.5 -4.5t-34.5 -4.5q-12 2 -19 2 q-6 0 -12 -2t-16.5 -3t-32.5 1q-18 2 -31.5 1t-20.5 12q-6 14 -6 28q0 16 3 32.5t5.5 33t0.5 29.5q-6 10 0 32.5t6 40.5q4 16 1 31.5t7 38.5q8 14 10 38.5t-2 43.5q-12 4 -23.5 2t-19.5 -2q-12 0 -33.5 1t-44.5 1q-8 0 -18 1t-16.5 -3t-5.5 -14.5t1 -16.5q0 -16 5.5 -22.5 t0.5 -30.5q-4 -12 2.5 -27.5t2.5 -46.5q-2 -14 0 -20t3 -9.5t1 -7.5q0 -2 -6 -8q-4 -6 2 -22.5t6 -24.5q4 -41 5 -56.5t-7 -41.5q-4 -12 -21 -13h-24q-23 0 -41.5 7.5t-32.5 3.5q-16 -6 -27.5 1t-40.5 7q-18 0 -18 2q0 4 -14 4q-16 0 -17 -23q-2 -10 2 -11t0 -17 q-4 -18 -2 -21.5t4 -23.5q0 -12 15 -13q8 2 24.5 5.5t28.5 5.5t20 4t14.5 3t14.5 1h23q6 0 22 5t35 3q31 -4 29 -37q-2 -10 0 -32.5t0 -36.5q8 -6 0.5 -13.5t-7.5 -23.5q0 -29 3.5 -32t5.5 -20q2 -23 -1.5 -43t-5.5 -38q0 -10 3.5 -16.5t7.5 -11.5t4 -9t-6 -11 q-6 -4 -8.5 -20t-0.5 -39q0 -12 -2 -27.5t-4 -32t-4 -29.5t-2 -22q2 -12 4 -19t5 -13t4 -11.5t-1 -15.5q2 -18 9.5 -23.5t7.5 -13.5q0 -14 10 -14q12 0 16 -19q2 -10 9.5 -16t16.5 -9t18.5 -7t15.5 -13q6 -6 9 -5t6 4t5 3q4 0 6 -8q4 -10 18.5 -11t37.5 -11q10 -4 26 -4 q18 0 35 -4q10 -2 27 -3h28q20 0 43 1.5t39 5.5q25 6 48.5 11t35.5 19q10 12 16.5 7t10.5 5.5t8 8.5t15 8q12 10 19 20.5t21 24.5q8 8 11.5 20.5t15.5 34.5q10 18 9 24.5t1 14.5q2 14 -18 15q-12 0 -10 -2t-8.5 2t-30 2t-37.5 -4q-2 -4 -1 -9.5t-1 -15.5t-4 -16.5t-6 -16.5 q-4 -14 -12.5 -22.5t-12.5 -18.5q-16 -16 -30.5 -27.5t-20.5 -15.5q-4 -4 -11.5 -5t-13.5 -3q-14 -10 -32.5 -12t-34.5 -2t-24.5 3t-13.5 6t-10.5 5t-15.5 2q-16 4 -24.5 9t-20.5 12l-15 15t-18 11q-12 8 -19 30.5t-15 55.5z" />
<glyph unicode="u" horiz-adv-x="987" d="M270 539q-4 10 -4 14t3 8t5 11.5t2 23.5q0 12 1.5 19.5l2.5 12.5t1 11t-2 16q16 23 11 47.5t7 47.5q-4 4 -16.5 3t-20.5 1q-12 4 -37 4t-45 -4q-10 -6 -17 -1t-11 7q-10 0 -20.5 -1t-18.5 -14q0 -6 4 -22t6 -21q-4 -12 -3 -19t3 -13t3 -14.5t1 -20.5q-2 -23 2 -45.5 t0 -54.5q-4 -27 3 -40.5t1 -25.5q-8 -16 0 -28.5t8 -32.5q2 -33 -2 -57.5t-8 -59.5q8 -12 7 -25.5t-4 -28t-3 -30.5q0 -14 12 -29q10 -16 13.5 -38.5t17.5 -30.5q14 -10 24.5 -25.5t20.5 -30t24.5 -24t34.5 -6.5q10 -10 18.5 -15.5t12.5 -15.5q35 -4 67 -6t66 -15 q20 -8 39 -6t37.5 5t37.5 6.5t42 -1.5q20 -4 57 13q12 4 25.5 8t34.5 8q53 27 84.5 66t64.5 84q-4 8 -1 11t7 5t7.5 5t-1.5 9q-10 10 -8 21.5t6.5 22t7.5 21.5t-6 21q2 8 7.5 17.5t-7.5 15.5q4 31 3.5 67t-3.5 79q0 35 4.5 69.5t2.5 69.5q10 12 8 39.5t-2 44.5q0 16 1 30.5 t5 34.5q4 8 2 17q-2 2 -13.5 0t-23.5 -2q-10 0 -24.5 1t-28.5 2t-27 1h-18q-10 -2 -22.5 -4t-12.5 -7q0 -23 6 -30.5t2 -28.5q12 -41 12 -78q2 -10 1 -20t-7 -13q10 -27 17.5 -71.5t7.5 -85.5q0 -29 -2 -67t-6 -68q-2 -20 -1 -46t-14 -44q-8 -10 -10 -20.5t-2 -22.5 q0 -10 -3 -21.5t-15 -24.5q-41 -47 -83 -65.5t-114 -22.5q-20 0 -51 8.5t-62.5 23.5t-58.5 39t-39 52q-6 10 -10 26.5t2 27.5q-6 14 -11 22t-16 21q-4 33 -7 73.5t-3 79.5q0 12 3 34.5t6 45.5t4 42.5t-1 27.5z" />
<glyph unicode="v" horiz-adv-x="892" d="M586 176q8 12 16 25.5t12 19.5q10 16 6 20.5t0.5 14.5t12.5 11t12 24q4 18 20.5 30.5t20.5 30.5q-2 4 5 16.5t17.5 28t19.5 29.5t11 20q8 20 18.5 35t19.5 25t15.5 18t6.5 21q8 16 19 30.5t20 30.5q6 14 15 22.5t15 24.5q8 18 17.5 24.5t15.5 29.5q4 10 8 18t4 23 q0 8 -13 7t-19 3q-16 6 -23.5 1t-23.5 -5q-12 0 -33 7t-27 -3q-6 -8 -16 -5t-15 -8q-6 -10 -2 -20t-2 -31q-8 -6 -9 -15t-1 -20q0 -10 -3 -18t-11 -10q-6 -2 -9.5 -11.5t5.5 -17.5q-4 -14 -10.5 -32.5t-16.5 -26.5q-10 -6 -5 -14.5t1 -12.5q-2 -4 -7 -9t-9 -15 q-6 -16 -13.5 -38t-17.5 -40q-12 -23 -19.5 -43.5t-17.5 -36.5q-10 -4 -11 -13.5t-14 -19.5q-16 -12 -13 -23.5t-1 -21.5q-8 -18 -16.5 -32.5t-18.5 -30.5q-27 -49 -37 -52q-12 -4 -22 22.5t-35 55.5l-24.5 49t-16.5 51q-10 0 -16 4.5t-11 8.5q-8 16 -11 37.5t-21 31.5 q-10 6 -12.5 19.5t-8.5 23.5q-8 14 -6 32t-6 34q-6 14 -14.5 21.5t-14.5 13.5q-10 10 -6 24.5t-12 26.5q-16 10 -10 25q-10 16 -18.5 33.5t-12.5 35.5q-4 23 -6 41.5t-6.5 22.5t-23.5 0t-28 0q-16 4 -31.5 2t-37.5 -2q-10 0 -19.5 3t-17.5 1q-6 0 -14.5 -1t-14.5 -11.5 t3 -25.5t17.5 -27.5t16.5 -25t23 -24.5q10 -8 12 -13t2 -12q0 -4 1 -7t7 -9t2 -12t4 -12q10 -10 17.5 -22.5t3.5 -18.5q14 -8 24.5 -21.5t20.5 -30.5q12 -23 24.5 -45t18.5 -47q2 -12 8 -16t10 -7t6 -6.5t0 -13.5q12 -20 20.5 -36.5t20.5 -32.5q10 -16 20.5 -39t22.5 -39 q10 -16 20.5 -32.5t14.5 -39.5q16 -10 22.5 -29.5t10.5 -38.5q8 -23 19.5 -42t23.5 -37q4 -6 14.5 -16.5t20.5 -10.5q6 0 13 8t11 15q4 8 23.5 44.5t38.5 77.5q12 29 22.5 45.5t18.5 28.5z" />
<glyph unicode="w" horiz-adv-x="1439" d="M1229 365q8 16 14 24t10 14.5t7.5 13.5t5.5 19q10 8 23.5 34t29.5 56q8 14 18.5 27.5t20.5 36.5q8 29 18 42t25 23q10 4 15 12.5t7 16.5q0 14 7.5 19.5t13.5 17.5q6 14 9 19t1 14q-2 6 -12 4t-27 0q-16 -4 -22.5 -1t-18.5 -1q-16 -6 -29.5 2t-23.5 2t-13 0t-16 0 q-6 -10 -7 -19.5t1 -15.5q-2 -12 -8 -20q0 -4 -3 -8.5t-5 -14.5q-6 -10 -6 -14t1 -8.5t0 -11.5t-12 -23q-12 -16 -8 -25.5t-6 -26.5q-4 -10 -8 -28.5t-25 -40.5q-4 -41 -21.5 -63.5t-21.5 -47.5q-4 -20 -17 -49t-26 -49q-6 -10 -16 -31.5t-21.5 -43t-20.5 -37t-15 -15.5 t-20.5 32.5t-31.5 65.5q-29 8 -8 25q-4 14 -10 19t-14 26q-4 12 -17.5 26.5t-32.5 51.5q-10 23 -11 42t-11 31q-25 29 -25 41q0 14 -6 25q-12 25 -17 34t-5 27q0 10 -10.5 18.5t-16.5 24.5q-4 12 -10 28.5t-8 23.5q-4 10 -8.5 23t-8.5 18q-10 10 -27.5 9t-21.5 -9 q-14 -23 -18 -34t-15 -34q-4 -6 -9 -19.5t-17 -21.5q-2 -6 -4 -27.5t-33 -48.5q-6 -8 -7 -16t-14 -25q-10 -14 -12 -21t-2 -11t-2 -9.5t-10 -13.5q-2 -16 -6.5 -19.5t-10.5 -17.5q-4 -10 -8 -13t-8 -9q-6 -18 -10 -25.5t-15 -15.5q-14 -8 -16 -31t-18 -39q-8 -23 -16.5 -37 t-14.5 -24q-10 -12 -10 -15l-11 -16q-10 -23 -15 -27t-9 -4t-8.5 13.5t-8.5 17.5q-8 12 -10 13t-2 16q-10 2 -5 10t-11 35q-16 23 -18.5 32t-6.5 23q-2 12 -9 21.5t-1 25.5q-8 12 -15.5 14t-1.5 15q-4 4 -21 43t-32 86q-10 23 -18 46t-8 42q-8 8 -7.5 14t-1.5 14q-2 4 -4 5 l-6 4q-4 8 -4 22q0 10 -2 10l-4 27q-10 6 -5 11t-3 16q-6 4 -10.5 3t-18.5 1q-6 0 -14 -1t-19 -3q-12 -2 -16 -2t-37 6q-6 0 -9 -1t-6 -3t-8.5 -3t-17.5 3q-4 -2 -13 0t-20 2q-6 -4 -3 -12.5t7 -16.5q6 -14 11.5 -17t21.5 -30q6 -12 4 -12l8 -17q4 -8 14.5 -21.5t18.5 -31.5 q0 -2 4 -11.5t8.5 -20.5t7.5 -22.5t5 -13.5q29 -33 29 -53q0 -18 4 -29q12 -27 27.5 -40t19.5 -27q12 -23 19 -35t16 -31q8 -33 14 -45l9 -18t4 -10t1 -21q0 -6 17.5 -29.5t29.5 -87.5q16 -2 12 -10t3 -20l34 -78q14 2 15 -4q0 -6 10 -6q33 0 37 30q4 10 9 23.5t11.5 24 t10.5 24.5t10 29q-6 14 1 12t21 16q4 18 19.5 49t19.5 48q20 8 19.5 27.5t15.5 35.5q8 10 17.5 26.5t15.5 22.5q-4 12 8 19.5t10 17.5q-2 14 7.5 22.5t19.5 26.5q8 25 16.5 32t18.5 26q20 23 28.5 46t14.5 23q12 -2 14 -15t8 -26q6 0 10.5 -12t9.5 -26.5t9 -28t8 -15.5 q10 -8 5 -15t3 -13q16 -4 15.5 -15.5t5.5 -19.5q12 -16 24.5 -41t14.5 -41q10 2 11 -8t11 -23q10 -16 14.5 -32.5t14.5 -38.5q2 -16 8 -24.5t12.5 -17t11.5 -18.5t9 -29q2 -18 12 -33.5t15 -31.5q10 -10 16 -21.5t12 -27.5q6 -4 12.5 -6t16.5 -2q14 4 19 12t10 18 q12 29 23 40.5t17 27.5q2 20 4.5 18t6.5 11q2 10 1 12t5 12q4 10 13 22.5t20 47.5q2 8 5 11t7 6t8 8.5t8 19.5q4 10 14.5 25.5t18.5 31.5z" />
<glyph unicode="x" horiz-adv-x="890" d="M567 356q-10 14 -18 22.5t-19 18.5q-8 8 -14 12.5t-6 12.5q0 2 11 12t26.5 24.5t32 30t26.5 27.5q8 10 18.5 9t22.5 28q12 8 22.5 18.5l28.5 28.5q12 12 25.5 21.5t28.5 23.5q8 8 20 13.5t19 15.5q12 14 14 12t6 2q12 14 14 20.5t13 10.5q6 2 12 9t6 15t-9 9.5t-13 1.5 q-8 0 -24.5 -1t-25.5 1q-16 4 -27.5 2t-33.5 -2q-10 0 -20.5 2t-18.5 -2q-10 -6 -9 -11.5t-3 -15.5q-6 -4 -6 -12t-7 -15q-16 -16 -21 -22t-17 -23q-6 -6 -2 -9t-7 -13q-14 6 -15 -8.5t-3 -16.5q-12 -18 -34.5 -42.5t-39.5 -43.5q-10 -14 -24.5 -32.5t-24.5 -18.5 q-8 0 -12 9t-13 20q-10 14 -20 14q-8 0 -12 25q-10 0 -22.5 19.5t-12.5 37.5q-10 4 -17.5 13t-9.5 16q-4 8 -7 11t-6 5t-7 6t-13 15q-6 8 -4 9t-4 13q-4 6 -12 19.5t-12 17.5q-10 16 -9 19t-10 14q-2 2 -12 2h-23q-12 0 -24 -1t-16 -1h-60q-10 0 -28.5 2t-26.5 -2 q-6 -4 -7 -12.5t1 -10.5q8 -6 11 -11t17 -22q8 -10 23.5 -21t31 -23.5t28 -24t14.5 -19.5q4 -10 27.5 -23.5t43.5 -47.5q14 -2 17.5 -5.5t3.5 -9.5q10 -4 22.5 -20.5t26.5 -30.5q10 -10 20.5 -18.5t16.5 -14.5q25 -29 24 -39q0 -10 -9 -17t-13 -13t-8 -10.5t-27 -26.5 l-17.5 -17.5t-21.5 -15.5q-2 -10 -9 -14t-14.5 -8.5t-14.5 -11.5t-7 -23q-29 -20 -53.5 -44t-44.5 -42q-16 -12 -24.5 -28.5t-31.5 -20.5q-12 -4 -31.5 -28t-42 -38t-26.5 -22.5t-4 -12.5q0 -10 21.5 -11t35.5 -3q12 -2 25.5 4t32.5 2q14 -2 33.5 -3t33.5 3q8 2 9.5 6 t3.5 12q2 4 11 15.5t17 27.5q10 20 16.5 30.5t10.5 14.5q16 25 23.5 39.5t23.5 20.5q4 23 26.5 46.5t41.5 41.5q10 18 18 28.5t14 16.5l34 34t18 11q4 0 9 -5l9 -9q8 -8 13 -15.5t12 -17.5q4 -4 5 -11t3 -12q8 -10 15 -14t13 -12q4 -4 10.5 -8t10.5 -10.5t8 -12.5t-2 -12 q18 -16 32.5 -39t28.5 -43q23 -29 42.5 -54.5t21.5 -41.5q4 -27 20 -27q18 0 36 1t40 -7q10 -4 16.5 -1t16.5 3q23 0 31 3t22 1h15q4 0 6 10q0 8 -7.5 12.5t-17.5 12.5q-6 6 -4 8t-8 10q-12 8 -17.5 18.5t-15.5 16.5q-20 10 -25.5 25.5t-21.5 27.5q-31 25 -42 39.5t-22 30.5 q-14 2 -12 9t-12 11q-20 23 -26.5 30t-16.5 15q-10 2 -10 9q0 6 -21 28z" />
<glyph unicode="y" horiz-adv-x="856" d="M190 434q4 -6 10.5 -18.5t12.5 -22.5q10 -20 12 -34.5t6 -22.5q10 -16 17.5 -18.5t15.5 -14.5t20.5 -34.5t26.5 -51.5q6 -12 14.5 -28.5t10.5 -24.5q2 -16 4 -21.5t5 -7.5t7 -4t8 -10q18 -39 33 -63.5t15 -32.5q0 -25 -7 -45q-6 -18 -9 -27.5t-11 -18.5q-6 -6 -7 -18 t-9 -33q-6 -16 -13.5 -26.5t-13.5 -26.5q-4 -4 -3 -13.5t-16 -13.5q-10 -6 -12 -22.5t-12 -28.5q-14 -18 -22.5 -22t-12.5 -23q-8 -27 -30.5 -68.5t-51.5 -78.5q-12 -16 -19 -18.5t-12 -18.5q-4 -10 -14 -13.5t-10 -19.5q0 -10 20.5 -11t24.5 -1q10 0 11 2t16 0h24t19 4 q4 2 13 1t19.5 -2t20.5 -2t16 1q10 4 8 24.5t7 40.5q8 18 13 36t15 46q4 14 9.5 33t17.5 35q0 33 11 63.5t28 67.5q6 16 16 34.5t14 35.5q6 27 12.5 31.5t8.5 15.5q4 35 28.5 78t41.5 79q16 35 32.5 72t26.5 59q12 29 25.5 49.5t29.5 61.5q6 16 22.5 39t20.5 33q4 8 6 21.5 t6.5 23.5t3.5 16t11 6q16 31 30.5 54.5t16.5 27.5q6 14 10 11t8 14q-2 12 10.5 23.5t18.5 23.5q14 27 23.5 41t17.5 27q6 10 14.5 25t3.5 20q-8 4 -26.5 1t-28.5 -1t-28.5 5t-35 -1t-29.5 0t-17 0q-16 -12 -14.5 -26.5t-2.5 -29.5q-10 -27 -12 -45t-18 -43q-8 -12 -10.5 -22 t-4.5 -20.5t-4 -23t-8 -28.5q-2 -6 -8 -23.5t-13.5 -37t-16.5 -38t-17 -24.5q2 -12 0 -26.5t-7.5 -28.5t-10.5 -25.5t-7 -17.5q-6 -16 -17.5 -42t-24.5 -49.5t-24.5 -41t-15.5 -17.5q-10 0 -16 10.5t-21 39.5q-2 4 -1 11t1 13t-4 12.5t-16 8.5q-8 14 -8 20q0 8 1 13.5 t-1 11.5t-11 18q-6 8 -15 19.5t-13 21.5q-12 29 -29.5 55.5t-28.5 55.5q-4 12 -14 26.5t-14 42.5q-23 4 -21 11.5t10 13.5q-10 8 -19 27.5t-18.5 41t-16.5 41t-13 29.5q-10 16 -15.5 41t-19.5 25q-18 0 -25.5 -2t-27.5 2q-23 4 -35 4t-25 -4q-16 -4 -31.5 -1t-27.5 -5 q-8 -4 -1 -15.5t15 -23.5q8 -10 9.5 -17.5t23.5 -23.5q8 -6 5 -18.5t20 -18.5q-2 -4 6 -15.5t14 -25.5q6 -12 13.5 -16.5t7.5 -16.5q-2 -12 3 -17t9 -12q6 -10 11 -15t10.5 -8t9.5 -8t6 -18q2 -10 8 -16t22 -29z" />
<glyph unicode="z" horiz-adv-x="917" d="M236 666q16 4 27 11t28 -1q6 -4 13 0t36 6q14 2 30.5 6t35.5 0q10 -4 17 0t23 6q35 4 50 4q14 0 30.5 -4t23.5 -2t23 2t36 -2t20 -12q0 -14 -11.5 -28.5t-23.5 -24.5q-23 -20 -33 -33.5t-33 -30.5q4 -20 -1 -22t-19 -9q-10 -4 -14.5 -8t-14.5 -26q-4 -8 -24.5 -30 t-42.5 -50q-29 -31 -61 -62.5t-38 -48.5q-29 -8 -41 -18t-17 -19.5t-7 -17.5t-10 -12q-16 -6 -21.5 -10.5t-6.5 -7.5t-3 -6t-10 -11q-27 -23 -40.5 -44.5t-47.5 -49.5q-10 -8 -23.5 -22.5t-24 -29t-18.5 -27t-8 -18.5q-2 -12 12 -19t33 -3q20 4 34.5 2t30.5 -6q14 10 27.5 9 t32.5 -1q12 0 24.5 1t22.5 1q12 0 35.5 1t62.5 1q39 2 62.5 -4t33.5 4q10 4 20.5 -1t20.5 -3q18 2 42 3t44 1h39h23q23 -4 35 -3t19 2t12.5 0t11.5 -7q23 -4 37 -3t30 1q41 0 62.5 -2t29.5 -2q10 6 5 19t0 24q4 16 4 20v21q0 16 4 24t-4 19q-6 8 -14.5 2t-20.5 -6 q-10 2 -13.5 1t-7.5 -4.5t-10 -6.5t-18 -3q-10 0 -18.5 -3t-30.5 -1q-16 0 -20.5 -8t-14.5 -6q-14 2 -21 2q-6 0 -10 -1t-8 -1h-12q-4 0 -20.5 -7.5t-31.5 -2.5q-20 4 -40.5 -3.5t-47.5 -5.5q-41 4 -55 -2t-29 -4q-10 2 -26 2h-33q-18 0 -35.5 1t-30.5 5q-29 8 -48 9.5 t-19 11.5t8 20.5t22 26.5q18 20 23.5 24.5t22.5 20.5q12 14 32.5 38t30.5 34q14 14 25.5 23.5t18.5 15.5t12 13t10 19q-2 6 17 28t45 45.5t48.5 44t28.5 26.5q23 25 41 43t32.5 22t31 26.5t26.5 39.5q16 23 35.5 36t42.5 44q14 20 32.5 41.5t10.5 36.5q-4 8 -14.5 9t-24.5 1 t-21.5 -1t-12.5 -2t-13 -1t-23 4q-4 -10 -15 -5t-28 5q-12 0 -45 -5t-55 1q-16 4 -24.5 -1t-30.5 -3q-8 -6 -18.5 -4t-27.5 2q-8 0 -22 1t-33 1h-22q-4 0 -15 4q-25 2 -28.5 -2t-20.5 4q-4 2 -6 2t-4 -2t-6 -3t-17 -1q-27 0 -55.5 6t-38.5 6h-10h-4h-4h-13q-14 2 -27 3 t-24 3q-18 2 -20 -1t-4 -5q-6 -6 -4 -15.5t2 -23.5v-16q0 -6 -4 -17q-4 -12 -2 -25.5t2 -17.5q2 -10 10 -8t14 4q10 4 29.5 6t23.5 2t9.5 2t19.5 5h4v2h2q5 0 15 2z" />
<glyph unicode="{" horiz-adv-x="600" d="M82 541q35 -4 60.5 -19.5t47.5 -32.5q35 -27 42.5 -83t-5.5 -115q-4 -18 -3 -32.5t1 -33.5q0 -18 -6 -40.5t-24 -55.5q-6 -10 -2 -13t8 -6.5t3 -10.5t-16 -25q-10 -6 -8 -10.5t6 -9.5t7.5 -11t-5.5 -14q-6 -6 -7 -29t3 -49.5t12.5 -54t18.5 -43.5q8 -12 11 -23.5t8.5 -24 t14.5 -24.5t27 -27q14 -2 20.5 -6t8.5 -8t3 -7t7 -3q8 -4 13.5 -7.5t11.5 -5.5t13 -5t24 -9q16 -8 35.5 -13t33.5 -9q33 -10 46 2q6 6 7 19t-12 17q-27 10 -43 17.5t-45 23.5q-18 10 -35.5 24.5t-31 39t-21.5 62.5t-6 98q0 31 5 46t9 38q8 25 12.5 34t4.5 35q0 18 3 25.5 t6 12.5t6 11.5t3 24.5q2 23 -6 37t6 45q10 20 3 39.5t-9 32.5q-4 25 -9 49t-22 49q-18 29 -43.5 53.5t-56.5 36.5q-16 8 -41.5 15t-44.5 12q18 6 46 10t44 12q31 12 54.5 37t41.5 53q16 25 21.5 49.5t9.5 49.5q4 27 6 56.5t-4 45.5q-6 18 -7 28.5t0 19.5t1 20q0 12 -2 30 q-4 23 -19.5 68t-17.5 112q-2 57 6 95.5t21.5 63t31 38.5t35.5 25q55 33 88 43q23 8 5 37q-4 10 -19.5 8t-30 -6.5t-32 -9.5t-33.5 -13q-31 -12 -37 -15t-25 -12q-6 0 -7 -3t-3 -7t-7 -8t-17 -6q-16 -16 -29.5 -38t-25 -44.5t-19.5 -42t-10 -27.5q-10 -29 -11 -67 q0 -37 4 -56q4 -16 -4 -28.5t7 -24.5q6 -16 5 -29.5t-1 -23.5q0 -27 4 -34t8 -7t7 -1t1 -17q-4 -31 0 -44.5t8 -21.5t7.5 -15.5t-1.5 -25.5q-4 -16 -1 -22.5t7.5 -15.5t5.5 -24.5t-5 -48.5q-6 -31 -13.5 -45t-29.5 -32q-23 -16 -51.5 -33t-57.5 -21q-14 -2 -26.5 -4 t-16.5 -6q-4 -6 -5 -13t-1 -14q0 -6 1 -15t5 -15q4 -4 15.5 -3t23.5 -1z" />
<glyph unicode="|" horiz-adv-x="344" d="M121 1536v-2048h102v2048h-102z" />
<glyph unicode="}" horiz-adv-x="600" d="M385 602q23 -8 48.5 -12t43.5 -10q-18 -4 -43.5 -10.5t-48.5 -16.5q-31 -12 -56.5 -36.5t-43.5 -53.5q-16 -25 -21.5 -49.5t-9.5 -48.5q-2 -12 -9 -32t3 -40q14 -31 6 -45.5t-6 -36.5q0 -18 3 -24.5t6 -11.5t6 -12t3 -26q0 -27 4 -36t13 -33q4 -23 9 -38.5t5 -45.5 q2 -59 -5 -97.5t-19.5 -63t-30 -38.5t-35.5 -25q-29 -16 -47.5 -23t-44.5 -18q-12 -4 -13 -16q0 -14 7 -20q12 -12 45 -2q14 4 33.5 9t35.5 13q14 6 22.5 9t14.5 5t10 5.5t15 7.5q6 0 7 3t3 7t8 8t21 6q18 14 27 26.5t14.5 25t8.5 23.5t11 24q10 16 18.5 43.5t12.5 54 t3 49.5t-7 29q-8 8 -6 13t5 12t5 17.5t-6 28.5q0 20 -1 26.5t-3.5 7.5t-5.5 2t-5 14q-8 31 -8 51t-10 61q-8 29 -10 62.5t2 65.5t14 58.5t27 40.5q25 23 52 38.5t68 13.5q27 0 31 4q6 8 6 18v17q0 6 -1 13t-5 13q-4 4 -15 5t-20 3q-31 4 -65.5 19.5t-57.5 38.5 q-27 25 -28.5 41t-5.5 30.5t-1 22.5t-8 45q-4 12 5.5 26.5t7.5 26.5q-2 37 0 47.5t6 12.5t7 3t3 19q0 27 1 34t3 11t4 12.5t2 34.5q0 10 1 14.5t8 20.5q14 12 6 24.5t-4 28.5q4 18 4 56q0 39 -11 67q-2 8 -9 27.5t-17 42t-24.5 44t-28.5 38.5q-16 2 -22.5 6t-9.5 8t-4 7 t-7 3q-18 8 -24.5 11.5t-37.5 15.5q-16 8 -33.5 13t-32 9.5t-27.5 6.5t-17 -8q-8 -12 -6.5 -22.5t12.5 -14.5q18 -6 40.5 -16.5t51.5 -26.5q18 -10 35.5 -24.5t30 -39t19.5 -62.5t5 -96q-2 -68 -17.5 -112.5t-19.5 -67.5q-4 -18 -3 -29.5t2 -20.5t0 -19.5t-7 -28.5 q-6 -16 -4 -46t6 -56q4 -25 9 -49.5t22 -49.5q18 -29 43.5 -54.5t56.5 -35.5z" />
<glyph unicode="~" d="M524 600q-8 14 -12 14q-2 0 -23 11q-10 0 -20 12t-23 16q-6 -10 -15 1.5t-23 15.5q-10 2 -14.5 6t-7.5 9t-9 9t-25 4q-14 0 -32.5 6.5t-34.5 6.5q-20 0 -30.5 -9.5t-27.5 -3.5q-12 4 -23 -6t-16 -12q-16 -6 -32.5 -22.5t-26.5 -32.5q-8 -14 -19.5 -30.5t-11.5 -27.5 q0 -10 -9 -27.5t-7 -27.5q2 -16 5 -23.5t7 -11.5q8 -8 15 -8q6 0 10 2q10 4 10 14q0 6 8 11.5t2 15.5t5.5 19.5t13.5 19.5q-4 16 16.5 33.5t40.5 21.5q10 2 8 3t23 1q16 0 24.5 -2t28.5 -14q12 -8 17.5 -4t13.5 4q10 0 12 -6t12 -10q12 -4 21.5 -8.5t21.5 -14.5 q6 -4 15.5 -16.5t23.5 -3.5q6 -4 18.5 -10.5t26 -14.5t23.5 -15.5t12 -9.5q14 0 21.5 -3t11.5 -8t6 -8t8 -1q12 4 23.5 0t31.5 -4q33 0 56.5 7t32.5 17q18 25 26 25t12 18q4 16 18.5 28.5t14.5 27.5q0 10 12.5 36.5t6.5 45.5q-4 8 -2 11t-4 13q-10 14 -15.5 15.5t-13.5 -0.5 q-12 -4 -12 -15q0 -6 -4.5 -12t-0.5 -14q4 -4 -3 -14.5t-11 -18.5q-8 -14 -2 -25.5t-10 -15.5q-10 -4 -28.5 -15.5t-57.5 -11.5q-23 0 -34 5t-21 10q-23 10 -33.5 8t-20.5 14z" />
<glyph unicode="&#xa1;" horiz-adv-x="430" d="M309 614q6 6 4 17q-8 20 -6 43.5t2 46.5q10 8 4 16t-8 17l-57 6q-8 2 -13.5 3t-13.5 -1q-6 4 -14 2t-21 0q-12 0 -28 -8h-8l-9 4v-62q-10 -16 -8 -33.5t4 -35.5q4 -6 7 -13.5t14 -3.5q20 4 32.5 3t24.5 3q10 -4 17.5 -5t15.5 -7q14 -4 27.5 0t17.5 -2q6 2 7 7t9 3z M270 29q16 14 6 34.5t-10 55.5q-4 61 -7 113.5t1 93.5q0 16 2 50t4 48q2 10 -12 13t-37 -1q-16 -2 -30.5 1t-18.5 -7t-3 -25.5t3 -25.5q0 -10 -1 -24.5t-2 -31t-2 -29.5t3 -20q6 -12 6 -20t-3 -15.5t-5 -16.5t0 -25q0 -12 -1 -47t-3 -76t-4 -79t-2 -56q-2 -39 -8.5 -74 t-0.5 -98q-14 -39 -14 -70t4 -45q4 -12 2 -19.5t-5 -14.5t-7 -15.5t-2 -20.5q4 -25 -2 -44t-4 -34q2 -8 15 -4t24 2q16 2 18 -1t19 -3q16 0 38.5 -1t30.5 -1q16 0 30.5 2t12.5 15q-2 10 -8 30.5t-4 44.5q4 41 0 56.5t-6 31.5q-2 10 -5 49t1 76q2 18 1 25.5t-2 10.5t-3.5 5 t-2.5 11q0 45 -4 74.5t0 37.5q12 20 3 30.5t-5 33.5z" />
<glyph unicode="&#xa2;" horiz-adv-x="913" d="M446 238q-2 -16 -2 -21v-12q-6 -16 -5 -21.5t5 -11.5q-4 -10 -6 -17.5t-2 -27.5q4 -23 -4 -38t-2 -38q0 -14 -1 -19t-3 -6t-4 -1v-5q0 -10 -3 -17t5 -13q4 -4 8 -2t14 0q2 -2 12.5 0t20.5 2q8 0 18.5 -1t26.5 3q8 4 6 13t-4 28q0 12 -1 18t-2 10.5t-2 11.5t-1 21 q0 4 -1 5t-2 3t-2 7.5t1 19.5v18q0 6 -2 8.5t-3 6.5t-1 18q0 18 -2 19.5t-2 17.5q-4 6 -2 13l2 8q6 8 1 20t1 14q0 6 9 2t20 -2q25 4 54.5 11.5t45.5 11.5q29 8 42 20.5t42 16.5q16 23 29.5 32t23.5 25q6 10 17.5 17.5t15.5 19.5q4 8 9 23.5t7 31.5q0 4 3 11.5t-3 11.5 q-8 4 -16 3t-35 -3q-18 -8 -28.5 -5t-22.5 1t-13 -12.5t-3 -20.5q-4 -23 -7.5 -34t-9.5 -23q-2 -4 -7 -13.5t-15 -19.5q-25 -25 -45 -25q-10 0 -23.5 -13t-52.5 -13q-12 0 -30.5 -2t-29 0t-29 3t-32.5 5q-18 -2 -27.5 0t-14.5 5t-10 7t-16 8q-31 4 -26 33q-20 10 -32.5 22.5 t-21.5 43.5q0 4 -4 5t-9 4t-10 8t-7 19q-4 8 -9.5 22.5t-9.5 25.5q-4 12 -6 21t-4 19q-4 20 -1 37t3 31q-2 29 9.5 43t7.5 19q-8 10 -1 20t5 25q8 16 13 28.5t15 20.5q8 12 11.5 18t5.5 10t6 8.5t14 12.5q16 29 32.5 33t27.5 8q23 10 29.5 13t23.5 3q16 4 22 9.5t22.5 -1 t33 -2.5t34.5 0q25 0 37.5 -3t20.5 -7t13 -7t11 -5q8 2 17.5 -5t16.5 -16.5t14.5 -17.5t11.5 -10q10 -4 12 -12.5t6 -16.5q6 -10 9 -22.5t10 -30.5q4 -10 4 -23v-26q0 -4 6 -5.5t14 1t15.5 4.5t9.5 2q23 8 49 10q14 2 16 3t12.5 3t9.5 8t-3 17q-2 6 -8.5 20t-13.5 28.5 t-13 28t-8 17.5q-4 12 -27.5 29.5t-32.5 21.5q-20 6 -27 16.5t-24 10.5q-23 6 -41 16t-47 14q-8 0 -28.5 2t-36.5 2q-4 0 -11.5 -2t-11.5 2.5t-3 12.5t3 16q2 6 2 17q0 10 2 26q-6 10 1 18.5t5 22.5t1 21.5t3 23.5q0 14 2 27.5t7 30.5q2 10 4 14t-9 8q-4 2 -12 0t-16 0 q-12 4 -21.5 3t-19.5 -1q-14 -2 -21 -2h-6q-10 -4 -9 -14.5t5 -26.5q6 -29 7 -41t3 -39q0 -10 7.5 -17t-3.5 -11q0 -2 2.5 -19.5t4.5 -34.5q2 -14 3 -20t-3.5 -12.5t-7.5 -5.5t-13 1t-17 -4t-22 0q-10 2 -18 -8t-29 -6q-8 2 -25.5 -5t-42.5 -18q-20 -10 -42.5 -23t-32.5 -34 q-4 -10 -16.5 -16t-28.5 -17q-6 -4 -19.5 -24.5t-32.5 -38.5q-12 -12 -13 -17.5t0 -8.5t2 -10t-5 -21q-12 -27 -15 -67t1 -77t9 -49t10 -16t8 -7.5t3 -19.5q0 -23 19.5 -43t23.5 -27q10 -16 32 -22t50 -41q29 -4 36 -12.5t24 -18.5q14 -8 22 -6t27 -8q25 -4 46.5 -8t43.5 -4 q10 0 15.5 -3.5t2.5 -15.5v-22z" />
<glyph unicode="&#xa3;" horiz-adv-x="1099" d="M743 1153q12 0 27 -8q4 -6 14.5 -7t26.5 -5q23 -12 31 -29t12 -23q6 -10 10 -20t6 -35q10 -10 3 -13t-5 -14q8 -6 7 -15t-1 -19q0 -6 -1 -9.5t6 -13.5q4 -6 18 -8t31 -2q18 0 33.5 1t21.5 1t15.5 -1t13.5 3q10 10 6 29q-4 14 -6 33.5t-6 35.5q-4 10 -14.5 33t-18.5 35 q-4 10 -13.5 12t-9.5 12q-8 6 -29.5 20.5t-31.5 18.5l-55 15q-16 6 -36 11l-36 9l-14 2h-21q-8 -2 -29 -2q-10 -4 -28.5 -5t-28.5 -3q-4 0 -14.5 -5t-22.5 -10.5t-24.5 -11.5t-18.5 -8q-16 -6 -19 -8t-12 -2q-8 -2 -8 -12q0 -8 -20 -7q-10 -8 -18.5 -16t-22.5 -18 q-6 -6 -21.5 -20.5t-31 -32t-26.5 -35t-11 -27.5q-2 -12 -6.5 -17.5t-8.5 -9.5t-6 -11t2 -26q2 -18 -7 -31.5t-13 -41.5q-2 -16 6 -20.5t-2 -20.5q-4 -18 5 -43t7 -35q0 -29 3 -50.5t-1 -27.5q-4 -4 -10 -3t-14.5 4t-18.5 4t-22 -5q-4 -2 -14.5 0t-14.5 2q-8 0 -20.5 1 t-34.5 11q-8 4 -23.5 0t-25.5 5q-2 2 -17.5 4t-25.5 2q-8 0 -9.5 -6.5t-3.5 -10.5q-2 -12 0 -22q-4 -14 -2 -15q-2 -4 -3 -13t1 -17q0 -16 4 -20.5t13.5 -5.5t15.5 1q16 6 27 6q12 0 20 6q6 2 11 0t22 0q12 2 14 4.5t12 -4.5q4 -4 18.5 2.5t24.5 4.5q12 -4 22.5 2t27.5 6h26 t15 -4q6 -4 0.5 -22.5t-5.5 -26.5q-2 -23 8.5 -50.5t-1.5 -38.5q-4 -16 0 -24t-2 -29q-8 -18 -2 -32.5t6 -32.5q-2 -29 -2 -43t-5 -29q-4 -16 -6 -28.5t-8 -26.5q-6 -8 -12 -20.5t-21 -14.5q-8 -2 -8 -14q0 -10 -12 -23q-23 -16 -53.5 -37.5t-48.5 -21.5q-8 2 -7.5 -4.5 t-15.5 -4.5q-14 2 -25 2q-10 0 -20 3q-4 8 -7 6t-12 0q-10 2 -12 6t-16 0q-8 -2 -20.5 10t-22.5 2q-18 4 -19 -2q0 -4 -8 -10q-4 -4 -2 -17.5t-4 -29.5q-4 -8 -1 -18.5t1 -16.5q-4 -14 9.5 -12t17.5 2q8 4 9 0t19 0q12 2 14.5 5t8.5 1q10 -2 15 -1t11.5 2t16.5 1t29 -2 q10 -2 19 3t22 7q41 2 61 2h37q35 0 70.5 -1t64.5 -1q25 0 60.5 -1t72.5 -2t68.5 -2t48.5 -1q8 0 15 4t12.5 7t10.5 2t11 -11q29 -2 77 -5t94 -5t81 -4t39 -2q14 0 23.5 -3.5t13.5 1.5q8 10 7 17t-1 28q0 4 -1 19t-5 32q-2 10 0 18t-6 17q-6 6 -11.5 9t-17.5 -3 q-6 -4 -22.5 -9.5t-26.5 -9.5q-12 -6 -16.5 -4t-10.5 5t-18 3t-43 -8q-18 -4 -33 -4h-39q-10 0 -15.5 -4t-10.5 -8t-13 -5t-26.5 3t-27.5 1t-28.5 -7t-59.5 -8.5t-116 -2.5q-10 0 -22.5 4.5t-32.5 -6.5q-16 -10 -45 -2t-62 4q-10 -2 -25.5 -3t-15.5 7q-2 6 15.5 18.5 t21.5 16.5q14 14 40 26.5t36 33.5q6 16 14 17t19 24q10 27 21 41t13 49q2 25 7.5 46t1.5 27q-12 20 -13.5 26.5t1.5 8.5t6.5 5.5t-0.5 17.5q-4 16 -3.5 27.5t4 22.5t4.5 25.5t-5 36.5q-2 6 -5.5 22.5t2.5 27.5q6 8 37 8q18 0 43 -5t31 -3q27 4 49.5 1t36.5 -3 q16 0 30.5 -4.5t55.5 -8.5q10 0 16.5 2t10.5 4t7 0t9 -12q14 -4 22.5 -7t22.5 -3q6 0 12.5 3t6.5 7q0 10 2 11t2 12q0 8 -2 13t2 13q4 10 2 18.5t2 20.5q6 23 -6 29q-6 4 -10.5 1t-16.5 -1q-10 0 -20.5 -3t-21.5 -6t-26.5 -4t-35.5 3q-8 2 -12.5 -8.5t-20.5 -0.5 q-20 4 -30.5 3.5t-21 -4t-24.5 -5.5t-41 0q-14 -10 -22 -10t-14.5 3t-12.5 5t-14 0q-10 -4 -29 -6t-23 8q-2 4 -3 18.5t-1 30.5v37v35q2 14 3 25.5t-5 21.5q4 20 4 31q-4 20 -1 29.5t7 27.5q-4 8 -3 30t12 56q6 16 12 24.5t4 18.5q-4 25 6 25q12 0 19 6q4 12 10 15t16 14 q16 16 39 28.5t41 16.5q20 4 28.5 5t31.5 3q8 0 14 1t14 1h10z" />
<glyph unicode="&#xa4;" horiz-adv-x="974" d="M672 295q8 0 17 -1t20 -22q8 -16 13 -29.5t13 -13.5q14 0 13.5 -6t3.5 -26q16 -12 15 -19.5t15 -17.5q10 -4 8 -11.5t2.5 -11.5t7.5 -10t7 -8t12 3t17.5 12t18.5 14.5t13 9.5q14 16 21.5 18t7.5 14q2 2 1 9.5t-5 11.5q-8 6 -15.5 9t-9.5 5q-4 10 -8 13.5t-10 9.5 q-10 6 -22.5 13t-16.5 15q-10 14 -16.5 18.5t-12.5 6.5t-12 6t-14 19q-6 10 -8.5 17t8.5 15q6 4 16 18.5t19 24.5q4 8 11 19.5t11 28.5q2 10 7 29.5t8 43t2 48t-11 44.5q-6 12 -6 23q0 10 -1 22.5t-7 25.5t-21 32q-12 16 -22 20t-10 15q0 4 -3.5 10t3.5 14q4 6 12 11.5 t10 9.5q4 12 12.5 14t22.5 18q8 6 18.5 15.5t20.5 15.5q6 6 12 7t10 12q2 2 7.5 6t13.5 10q4 4 5 11t-1 9q0 12 -7 16.5t-22 20.5q-10 4 -29.5 22.5t-27.5 16.5q-4 -2 -7 -8t-7 -10t-5.5 -10.5t-9.5 -14.5q-6 -8 -7 -11t0 -4t0 -3t-9 -8q-2 -25 -29 -48q-10 -10 -11 -20 t-11.5 -20.5t-16.5 -20.5t-16 -10q-6 0 -9 4t-18 14q-8 4 -26.5 12.5t-28.5 18.5q-6 4 -14.5 2t-15.5 -5t-13 -3t-10 6q-23 0 -21 5t-10 5q-31 0 -42 -5t-32 5q-10 -8 -17 -9t-11 0t-11 1q-4 0 -10 -4q-10 -8 -28.5 -17.5t-28.5 -19.5q-18 -18 -39 -10q-10 4 -15.5 13 t-13.5 20q-6 10 -4 18t-10 4q-10 2 -9 6t2 10.5t-1 14.5t-17 18q-10 14 -15 25.5t-11 17.5q-8 8 -10.5 14.5t-6.5 10.5t-8 11t-8 9t-12.5 -4t-17.5 -14t-17 -16.5t-12 -10.5q-14 -16 -24.5 -20t-10.5 -17q-2 -2 -1 -7t5 -9q8 -6 15 -9t9 -5q4 -10 7.5 -12.5t9.5 -8.5 q10 -6 22.5 -13t16.5 -17.5t8 -13.5t8 -3t9 -3t12 -13q12 -23 26.5 -28t18.5 -21q2 -10 -10.5 -24.5t-22.5 -27.5q-6 -6 -13.5 -18t-12.5 -26.5t-8 -29t-1 -22.5q2 -12 1 -17t-3 -10.5t-4 -11.5t-2 -22q2 -43 11 -75t21.5 -54.5t23.5 -34.5t18 -19q10 -10 -7.5 -23 t-25.5 -21.5t-10 -12.5t-2 -6t-2.5 -4t-12.5 -6t-21.5 -20.5t-27.5 -20.5q-8 -4 -14 -7.5t-11 -13.5q-2 -2 -9 -5t-15 -9q-4 -4 -5 -9t1 -7q0 -12 10 -17.5t25 -21.5q10 -4 28.5 -21.5t28.5 -13.5q4 2 7 8t7 10t6 10.5t11 14.5q6 8 6 12t-1 5t0 3t11 6q6 25 16.5 28 t16.5 23.5t22.5 41t30.5 16.5q10 -4 25.5 -14.5t60.5 -22.5q14 -4 23.5 -15.5t27.5 5.5q23 0 32 -6t40 -4h16t29 4q12 2 16 7t21 5q29 4 48.5 21.5t31.5 17.5zM723 573q2 -18 -1 -47.5t-11.5 -60.5t-20.5 -58.5t-31 -41.5q-23 -14 -25.5 -24.5t-19.5 -18.5 q-18 -6 -30.5 -10.5t-23.5 -7.5t-22.5 -5t-27.5 -2q-29 2 -42 4t-22.5 5t-18.5 7t-28 11q-16 4 -28.5 12t-22.5 14q-12 6 -21.5 23.5t-19.5 40.5q-12 14 -24.5 51t-10.5 67q0 35 1 50.5t8 38.5q4 16 8 33.5t14 33.5q12 20 19.5 33.5t21.5 17.5q14 8 19.5 15.5t8.5 12.5t5 8 t12 7q20 6 31.5 8.5t22 4.5t24.5 2h45t36 -3t8 -7.5t4 -7.5t21.5 -1t35 -11t36.5 -30q43 -41 53.5 -82t16.5 -82z" />
<glyph unicode="&#xa5;" horiz-adv-x="1093" d="M41 1180q2 -10 14.5 -11.5t18.5 -21.5q2 -12 4 -15.5t6 -4.5t9 -3t16 -14q16 -23 27 -43t34 -45q10 0 11 -8t5 -23q20 -20 36 -42.5t32 -47t27.5 -39t21.5 -31.5q4 -4 6 -11t10 -11q25 -8 11 -27q27 -16 50 -58t34 -65q16 -12 14 -22t12.5 -26.5t21.5 -30t3 -21.5 q-4 -6 -19 -6q-10 0 -21 2t-24 2q-8 0 -10 1t-20 7q-10 -2 -22.5 1t-18.5 3q-16 0 -23.5 1t-12.5 3t-11 2h-15q-10 -2 -26 3q-16 0 -20.5 5t-18.5 3q-16 0 -23.5 3t-11.5 -1q-6 -4 -5 -8.5t-3 -20.5q-2 -10 0 -22.5t0 -22.5q0 -4 2 -10t0 -12q-4 -14 4 -19q4 -2 14 1t19 3 q-2 4 5 7t23 -3q10 -4 23.5 4.5t42.5 3.5q12 -2 35.5 5.5t42.5 5.5q20 -2 30.5 3t14.5 3q6 -2 22.5 1t30.5 3q20 0 25 -4q8 -8 8 -33v-33q0 -59 -4 -75q-2 -6 -7.5 -10.5t-9.5 -0.5q-6 -4 -16 -2t-21 2q-10 0 -37.5 -1t-37.5 -1h-25q-8 0 -18.5 4t-11.5 2t-21 -2 q-12 2 -27 2h-24q-4 0 -17.5 3.5t-29 6.5t-29.5 4t-23 -1q-6 -4 -7 1t-17 5q-16 -2 -18.5 0t-12.5 2q-12 0 -12 -19q0 -10 -1 -22t3 -23q4 -12 1 -18t-1 -12q4 -18 14 -25q4 -4 12.5 3t16.5 3q4 -2 17.5 1t30.5 6t36.5 6.5t38.5 1.5q10 0 16 2t10 3t10.5 2t16.5 -3 q41 6 68.5 9t38 5t16.5 7t12 -1q12 -4 28.5 -2t33.5 -2q10 -2 8 -12t-4 -13q-2 -10 0 -18t0 -27v-16q0 -8 -4 -18q-8 -10 -5 -24.5t3 -35.5q0 -18 -7.5 -44.5t-3.5 -37.5q2 -23 -2 -24.5t-2 -20.5q0 -14 10 -14q4 0 6.5 2t20.5 -2q39 4 48 0t26 2q16 8 29.5 5t13.5 15 q0 4 -1 8.5t-3 14.5q0 6 -3 13t3 12q-8 10 -6 22t-5 23q-4 8 -1 17t1 15q0 10 -2 34t-2 40q0 6 -2 12.5t0 14.5q2 14 -6 21t-8 9q0 10 9 15.5t16 7.5q12 4 29.5 1t27.5 1q8 4 12 4t7 -2t6.5 -4t11.5 0q16 2 28.5 1t23.5 -4t22.5 -6t27.5 -1q14 2 30.5 -3t33.5 -3 q31 4 39 -1.5t12 -0.5q16 -2 28.5 -8.5t26.5 -4.5q6 2 15.5 -4t13.5 -2q14 6 14 25q0 10 -1 13l-2 6t-1 5q0 4 4 14.5t3 18.5t-1 18q0 18 -12 19q-10 0 -12 -2t-19 0q-18 0 -18 -6q0 -4 -8 0q-6 2 -20.5 1t-30 -4t-29 -6.5t-17.5 -3.5h-26q-12 0 -27 -2q-18 0 -19 2t-12 -2 q-6 -4 -20 -4h-29q-14 0 -27.5 1t-19.5 1h-37q-10 0 -19 -3t-16 5q-4 4 -4 25v45v18t2 43q0 6 3 13.5t10 9.5q18 4 26 -1t35 -5q23 0 37 -6t35 -2q10 2 16 0t12 0q10 2 15.5 1t8.5 -4.5t7 -6.5t17 -3q6 0 15 1t13 1q10 0 15.5 -4t15.5 -4t19.5 -2t13.5 0q8 4 4 19q-2 6 0 13 t2 11q-2 10 0 19.5t0 19.5q-4 16 -3 20.5t-5 8.5q-4 4 -11.5 1t-23.5 -3q-14 2 -18.5 -3.5t-20.5 -5.5q-16 -4 -27 0q-10 0 -13 -1t-6 -3t-10.5 -3t-21.5 -1q-6 0 -14 -4t-19 -2q-10 0 -24.5 -2t-20.5 -2q-23 0 -37 -2t-14 6q0 10 8 27.5t17 27.5q16 27 36.5 59t36.5 50 q10 12 19.5 15t9.5 14q6 25 28.5 51t39.5 47q10 10 11 18.5t15 12.5q6 23 16.5 33t20.5 26q14 23 24.5 33t14.5 20q4 12 7 16.5t5 4.5q4 0 6.5 -1t6.5 5q10 23 22 35t17 22q6 25 28.5 42.5t32.5 37.5q14 25 8 31q-6 4 -13 2t-30 2q-8 2 -22.5 3t-22.5 1t-15 -5t-9 -5 q-14 0 -24.5 3t-19 -1t-8.5 -12q0 -6 -8 -17q-10 -14 -8 -22.5t-8 -18.5q-8 -6 -12.5 -20.5t-8.5 -22.5q-4 -16 -12 -23.5t-12 -17.5q0 -8 -1 -10t-4.5 -4t-7.5 -6t-6 -19q-8 -16 -12 -17t-14 -11q-8 -16 -5 -26.5t-8 -14.5q-10 -20 -30.5 -58.5t-46.5 -81.5 q-10 -16 -18.5 -18t-14.5 -14.5t-3 -20.5t-10 -16q-16 -4 -14 -12.5t-6 -18.5q-4 -4 -13.5 -21.5t-19.5 -31.5q-25 -41 -33 -41t-18 17.5t-23 39.5q-16 27 -24 41.5t-14 32.5q-12 14 -14.5 21.5l-4.5 13.5t-6 14t-23 27q-4 8 -12 22.5t-16 28.5t-16.5 25.5t-10.5 17.5 q-12 23 -27.5 43t-31.5 59q-35 53 -45.5 81t-16.5 38q-14 4 -18 7t-3 6t2 7.5t-1 10.5q-16 23 -15 30t-8 17q-4 0 -11 -1t-19 3q-18 -2 -30.5 -4t-27.5 4q-23 4 -38 0t-56 0z" />
</font>
</defs>
</svg>
